<svg xmlns="http://www.w3.org/2000/svg" width="3476.916" height="2937.389" viewBox="0 0 3476.916 2937.389">
  <g id="المكتبة_" data-name="المكتبة " transform="translate(-535.499 -1429.216)">
    <g id="Group_64" data-name="Group 64" opacity="0.5">
      <path id="Path_677" data-name="Path 677" d="M1764.33,4344.11s550.29,128.78,1029.74-229.92,665.77-983.98,830.07-1486.56-25.39-973.35-447.76-1149.93-649.9,180.1-1201.57,258.75-710.55,15.87-1130.58,382.73-410.04,1119.7,21.22,1628.69S1764.33,4344.11,1764.33,4344.11Z" fill="#cfcfcf"/>
    </g>
    <g id="Group_65" data-name="Group 65" opacity="0.5">
      <path id="Path_678" data-name="Path 678" d="M924.96,3780.82s298.05,480.17,890.71,565.56,1166.55-225.01,1638.1-464.21,670.3-706.22,496.51-1129.74-586.9-332.2-1032.6-666.68-513.65-491.21-1070.07-528.81S765.92,2058.75,710.96,2723.6s214,1057.21,214,1057.21Z" fill="#cfcfcf"/>
    </g>
    <g id="Group_66" data-name="Group 66">
      <path id="Path_679" data-name="Path 679" d="M1479.19,3826.51H3268.1a160.27,160.27,0,0,0,0-320.54H1479.19a4.189,4.189,0,0,0-4.19,4.19v312.15a4.189,4.189,0,0,0,4.19,4.19Z" fill="#34335f"/>
      <path id="Path_680" data-name="Path 680" d="M1436.98,3826.51H2819.99a160.27,160.27,0,0,0,0-320.54H1436.98a50.168,50.168,0,0,0-50.17,50.17v220.2a50.168,50.168,0,0,0,50.17,50.17Z" fill="#3b3b72"/>
      <path id="Path_681" data-name="Path 681" d="M1386.81,3764.61H2813.65a101.76,101.76,0,0,0,0-203.52H1386.81Z" fill="#fff"/>
      <path id="Path_682" data-name="Path 682" d="M1625.67,3508.52H3063.32a160.27,160.27,0,0,0,0-320.54H1625.67a18.3,18.3,0,0,0-18.3,18.3v283.94A18.3,18.3,0,0,0,1625.67,3508.52Z" fill="#5d2866"/>
      <path id="Path_683" data-name="Path 683" d="M1580.04,3508.52H2692.56a160.27,160.27,0,0,0,0-320.54H1580.04a45.642,45.642,0,0,0-45.64,45.64v229.27a45.642,45.642,0,0,0,45.64,45.64Z" fill="#b6677a"/>
      <path id="Path_684" data-name="Path 684" d="M1534.4,3446.62H2697.41a101.76,101.76,0,0,0,0-203.52H1534.4Z" fill="#fff"/>
      <path id="Path_685" data-name="Path 685" d="M2175.6,3632.75H1385.91a3.82,3.82,0,0,1,0-7.64H2175.6a3.82,3.82,0,0,1,0,7.64Z" fill="#34335f"/>
      <path id="Path_686" data-name="Path 686" d="M2011.1,3700.59H1387.39a3.82,3.82,0,0,1,0-7.64H2011.1a3.82,3.82,0,0,1,0,7.64Z" fill="#34335f"/>
      <path id="Path_687" data-name="Path 687" d="M1833.02,3314.75H1531.77a3.82,3.82,0,0,1,0-7.64h301.25a3.82,3.82,0,0,1,0,7.64Z" fill="#b6677a"/>
      <path id="Path_688" data-name="Path 688" d="M1950.9,3382.59H1533.24a3.82,3.82,0,0,1,0-7.64H1950.9a3.82,3.82,0,0,1,0,7.64Z" fill="#b6677a"/>
      <path id="Path_689" data-name="Path 689" d="M1555.85,4154.53H3365.47c111.42,0,201.74-75.1,201.74-167.74s-90.32-167.74-201.74-167.74H1555.85c-12.72,0-23.04,8.58-23.04,19.15v297.18C1532.81,4145.96,1543.12,4154.53,1555.85,4154.53Z" fill="#a25b6b"/>
      <path id="Path_690" data-name="Path 690" d="M1498.41,4154.53H2898.77c111.42,0,201.74-75.1,201.74-167.74s-90.32-167.74-201.74-167.74H1498.41c-31.73,0-57.44,21.38-57.44,47.76v239.96C1440.97,4133.15,1466.69,4154.53,1498.41,4154.53Z" fill="#b6677a"/>
      <path id="Path_691" data-name="Path 691" d="M1440.97,4089.74H2904.89c70.74,0,128.09-47.68,128.09-106.5s-57.35-106.5-128.09-106.5H1440.97v213.01Z" fill="#fff"/>
      <path id="Path_692" data-name="Path 692" d="M1816.84,3951.73H1437.65c-2.66,0-4.8-1.79-4.8-3.99s2.15-3.99,4.8-3.99h379.19c2.65,0,4.8,1.79,4.8,3.99s-2.15,3.99-4.8,3.99Z" fill="#b6677a"/>
      <path id="Path_693" data-name="Path 693" d="M1965.23,4022.73H1439.51c-2.66,0-4.8-1.79-4.8-3.99s2.15-3.99,4.8-3.99h525.72c2.65,0,4.8,1.79,4.8,3.99S1967.88,4022.73,1965.23,4022.73Z" fill="#b6677a"/>
      <path id="Path_694" data-name="Path 694" d="M3090.56,3511.55H2738.7a3.026,3.026,0,1,1,0-6.04h351.86a3.026,3.026,0,1,1,0,6.04Z" fill="#0c0c0c"/>
    </g>
    <path id="Path_695" data-name="Path 695" d="M2040.06,1590.58c-18.71-33.71-38.55-68.68-70.48-90.31-7.29-4.94-15.7-9.22-24.47-8.46-8.42.73-15.68,5.95-22.41,11.06a1016.075,1016.075,0,0,0-121.06,108.39c-8.35,8.78-17.13,19.37-15.79,31.41,1.18,10.55,9.78,18.52,17.82,25.45l55.03,47.47,181.34-125.01Z" fill="#615faf"/>
    <g id="Group_67" data-name="Group 67">
      <path id="Path_696" data-name="Path 696" d="M1807.91,1663.47c-1.73-3.87-6.47-14.21,1.1-14.64,3.94-.22,8.3,2.39,11.29,4.68,1.28.98,2.52-1.19,1.26-2.16-3.9-2.98-11.84-7.34-16.61-3.86-5.43,3.97-1.3,12.58.79,17.24.66,1.47,2.81.2,2.16-1.26h0Z" fill="#fff"/>
      <path id="Path_697" data-name="Path 697" d="M1807.06,1665.49a16.54,16.54,0,0,0,9.43-3.48c2.48-2.07,5.83-5.87,5.63-9.32-.09-1.6-2.59-1.61-2.5,0,.16,2.76-3.02,6.1-5.06,7.67a14.265,14.265,0,0,1-7.5,2.64c-1.6.11-1.61,2.61,0,2.5h0Z" fill="#fff"/>
    </g>
    <g id="Group_68" data-name="Group 68">
      <path id="Path_698" data-name="Path 698" d="M1825.94,1648.04c-1.73-3.87-6.47-14.21,1.1-14.64,3.94-.22,8.3,2.39,11.29,4.68,1.28.98,2.52-1.19,1.26-2.16-3.9-2.98-11.84-7.34-16.61-3.86-5.43,3.97-1.3,12.58.79,17.24.66,1.47,2.81.2,2.16-1.26h0Z" fill="#fff"/>
      <path id="Path_699" data-name="Path 699" d="M1825.09,1650.06a16.54,16.54,0,0,0,9.43-3.48c2.48-2.07,5.83-5.87,5.63-9.32-.09-1.6-2.59-1.61-2.5,0,.16,2.76-3.02,6.1-5.06,7.67a14.265,14.265,0,0,1-7.5,2.64c-1.6.11-1.61,2.61,0,2.5h0Z" fill="#fff"/>
    </g>
    <g id="Group_69" data-name="Group 69">
      <path id="Path_700" data-name="Path 700" d="M1843.97,1632.61c-1.73-3.87-6.47-14.21,1.1-14.64,3.94-.22,8.3,2.39,11.29,4.68,1.28.98,2.52-1.19,1.26-2.16-3.9-2.98-11.84-7.34-16.61-3.86-5.43,3.97-1.3,12.58.79,17.24.66,1.47,2.81.2,2.16-1.26h0Z" fill="#fff"/>
      <path id="Path_701" data-name="Path 701" d="M1843.12,1634.63a16.54,16.54,0,0,0,9.43-3.48c2.61-2.18,5.83-5.87,5.63-9.32-.09-1.6-2.59-1.61-2.5,0,.16,2.76-3.02,6.1-5.06,7.67a14.265,14.265,0,0,1-7.5,2.64c-1.6.11-1.61,2.61,0,2.5h0Z" fill="#fff"/>
    </g>
    <g id="Group_70" data-name="Group 70">
      <path id="Path_702" data-name="Path 702" d="M1862,1617.19c-1.73-3.87-6.47-14.21,1.1-14.64,3.94-.22,8.3,2.39,11.29,4.68,1.28.98,2.52-1.19,1.26-2.16-3.9-2.98-11.84-7.34-16.61-3.86-5.43,3.97-1.3,12.58.79,17.24.66,1.47,2.81.2,2.16-1.26h0Z" fill="#fff"/>
      <path id="Path_703" data-name="Path 703" d="M1861.15,1619.21a16.54,16.54,0,0,0,9.43-3.48c2.61-2.18,5.83-5.87,5.63-9.32-.09-1.6-2.59-1.61-2.5,0,.16,2.76-3.02,6.1-5.06,7.67a14.265,14.265,0,0,1-7.5,2.64c-1.6.11-1.61,2.61,0,2.5h0Z" fill="#fff"/>
    </g>
    <g id="Group_71" data-name="Group 71">
      <path id="Path_704" data-name="Path 704" d="M1880.03,1601.76c-1.73-3.87-6.47-14.21,1.1-14.64,3.94-.22,8.3,2.39,11.29,4.68,1.28.98,2.52-1.19,1.26-2.16-3.9-2.98-11.84-7.34-16.61-3.86-5.43,3.97-1.3,12.58.79,17.24.66,1.47,2.81.2,2.16-1.26h0Z" fill="#fff"/>
      <path id="Path_705" data-name="Path 705" d="M1879.18,1603.78a16.54,16.54,0,0,0,9.43-3.48c2.48-2.07,5.83-5.87,5.63-9.32-.09-1.6-2.59-1.61-2.5,0,.16,2.76-3.02,6.1-5.06,7.67a14.265,14.265,0,0,1-7.5,2.64c-1.6.11-1.61,2.61,0,2.5h0Z" fill="#fff"/>
    </g>
    <g id="Group_72" data-name="Group 72">
      <path id="Path_706" data-name="Path 706" d="M1898.06,1586.33c-1.73-3.87-6.47-14.21,1.1-14.64,3.94-.22,8.3,2.39,11.29,4.68,1.28.98,2.52-1.19,1.26-2.16-3.9-2.98-11.84-7.34-16.61-3.86-5.43,3.97-1.3,12.58.79,17.24.66,1.47,2.81.2,2.16-1.26h0Z" fill="#fff"/>
      <path id="Path_707" data-name="Path 707" d="M1897.21,1588.35a16.54,16.54,0,0,0,9.43-3.48c2.48-2.07,5.83-5.87,5.63-9.32-.09-1.6-2.59-1.61-2.5,0,.16,2.76-3.02,6.1-5.06,7.67a14.265,14.265,0,0,1-7.5,2.64c-1.6.11-1.61,2.61,0,2.5h0Z" fill="#fff"/>
    </g>
    <g id="Group_73" data-name="Group 73">
      <path id="Path_708" data-name="Path 708" d="M1915.44,1571.83c-1.73-3.87-6.47-14.21,1.1-14.64,3.94-.22,8.3,2.39,11.29,4.68,1.28.98,2.52-1.19,1.26-2.16-3.9-2.98-11.84-7.34-16.61-3.86-5.43,3.97-1.3,12.58.79,17.24.66,1.47,2.81.2,2.16-1.26h0Z" fill="#fff"/>
      <path id="Path_709" data-name="Path 709" d="M1914.59,1573.85a16.54,16.54,0,0,0,9.43-3.48c2.61-2.18,5.83-5.87,5.63-9.32-.09-1.6-2.59-1.61-2.5,0,.16,2.76-3.02,6.1-5.06,7.67a14.265,14.265,0,0,1-7.5,2.64c-1.6.11-1.61,2.61,0,2.5h0Z" fill="#fff"/>
    </g>
    <g id="Group_74" data-name="Group 74">
      <path id="Path_710" data-name="Path 710" d="M1932.81,1557.86c-1.73-3.87-6.47-14.21,1.1-14.64,3.94-.22,8.3,2.39,11.29,4.68,1.28.98,2.52-1.19,1.26-2.16-3.9-2.98-11.84-7.34-16.61-3.86-5.43,3.97-1.3,12.58.79,17.24.66,1.47,2.81.2,2.16-1.26h0Z" fill="#fff"/>
      <path id="Path_711" data-name="Path 711" d="M1931.96,1559.88a16.54,16.54,0,0,0,9.43-3.48c2.61-2.18,5.83-5.87,5.63-9.32-.09-1.6-2.59-1.61-2.5,0,.16,2.76-3.02,6.1-5.06,7.67a14.265,14.265,0,0,1-7.5,2.64c-1.6.11-1.61,2.61,0,2.5h0Z" fill="#fff"/>
    </g>
    <g id="Group_75" data-name="Group 75">
      <path id="Path_712" data-name="Path 712" d="M1950.19,1543.89c-1.73-3.87-6.47-14.21,1.1-14.64,3.94-.22,8.3,2.39,11.29,4.68,1.28.98,2.52-1.19,1.26-2.16-3.9-2.98-11.84-7.34-16.61-3.86-5.43,3.97-1.3,12.58.79,17.24.66,1.47,2.81.2,2.16-1.26h0Z" fill="#fff"/>
      <path id="Path_713" data-name="Path 713" d="M1949.34,1545.91a16.54,16.54,0,0,0,9.43-3.48c2.61-2.18,5.83-5.87,5.63-9.32-.09-1.6-2.59-1.61-2.5,0,.16,2.76-3.02,6.1-5.06,7.67a14.023,14.023,0,0,1-7.5,2.64c-1.6.11-1.61,2.61,0,2.5h0Z" fill="#fff"/>
    </g>
    <g id="Group_76" data-name="Group 76">
      <path id="Path_714" data-name="Path 714" d="M1967.56,1529.92c-1.73-3.87-6.47-14.21,1.1-14.64,3.94-.22,8.3,2.39,11.29,4.68,1.28.98,2.52-1.19,1.26-2.16-3.9-2.98-11.84-7.34-16.61-3.86-5.43,3.97-1.3,12.58.79,17.24.66,1.47,2.81.2,2.16-1.26h0Z" fill="#fff"/>
      <path id="Path_715" data-name="Path 715" d="M1966.72,1531.94a16.54,16.54,0,0,0,9.43-3.48c2.61-2.18,5.83-5.87,5.63-9.32-.09-1.6-2.59-1.61-2.5,0,.16,2.76-3.02,6.1-5.06,7.67a14.265,14.265,0,0,1-7.5,2.64c-1.6.11-1.61,2.61,0,2.5h0Z" fill="#fff"/>
    </g>
    <g id="Group_77" data-name="Group 77">
      <path id="Path_716" data-name="Path 716" d="M1849.7,1684.58c-1.73-3.87-6.47-14.21,1.1-14.64,3.94-.22,8.3,2.39,11.29,4.68,1.28.98,2.52-1.19,1.26-2.16-3.9-2.98-11.84-7.34-16.61-3.86-5.43,3.97-1.3,12.58.79,17.24.66,1.47,2.81.2,2.16-1.26h0Z" fill="#fff"/>
      <path id="Path_717" data-name="Path 717" d="M1848.85,1686.6a16.54,16.54,0,0,0,9.43-3.48c2.48-2.07,5.83-5.87,5.63-9.32-.09-1.6-2.59-1.61-2.5,0,.16,2.76-3.02,6.1-5.06,7.67a14.265,14.265,0,0,1-7.5,2.64c-1.6.11-1.61,2.61,0,2.5h0Z" fill="#fff"/>
    </g>
    <g id="Group_78" data-name="Group 78">
      <path id="Path_718" data-name="Path 718" d="M1867.73,1669.15c-1.73-3.87-6.47-14.21,1.1-14.64,3.94-.22,8.3,2.39,11.29,4.68,1.28.98,2.52-1.19,1.26-2.16-3.9-2.98-11.84-7.34-16.61-3.86-5.43,3.97-1.3,12.58.79,17.24.66,1.47,2.81.2,2.16-1.26h0Z" fill="#fff"/>
      <path id="Path_719" data-name="Path 719" d="M1866.88,1671.17a16.54,16.54,0,0,0,9.43-3.48c2.48-2.07,5.83-5.87,5.63-9.32-.09-1.6-2.59-1.61-2.5,0,.16,2.76-3.02,6.1-5.06,7.67a14.265,14.265,0,0,1-7.5,2.64c-1.6.11-1.61,2.61,0,2.5h0Z" fill="#fff"/>
    </g>
    <g id="Group_79" data-name="Group 79">
      <path id="Path_720" data-name="Path 720" d="M1885.76,1653.72c-1.73-3.87-6.47-14.21,1.1-14.64,3.94-.22,8.3,2.39,11.29,4.68,1.28.98,2.52-1.19,1.26-2.16-3.9-2.98-11.84-7.34-16.61-3.86-5.43,3.97-1.3,12.58.79,17.24.66,1.47,2.81.2,2.16-1.26h0Z" fill="#fff"/>
      <path id="Path_721" data-name="Path 721" d="M1884.91,1655.74a16.54,16.54,0,0,0,9.43-3.48c2.61-2.18,5.83-5.87,5.63-9.32-.09-1.6-2.59-1.61-2.5,0,.16,2.76-3.02,6.1-5.06,7.67a14.265,14.265,0,0,1-7.5,2.64c-1.6.11-1.61,2.61,0,2.5h0Z" fill="#fff"/>
    </g>
    <g id="Group_80" data-name="Group 80">
      <path id="Path_722" data-name="Path 722" d="M1903.79,1638.3c-1.73-3.87-6.47-14.21,1.1-14.64,3.94-.22,8.3,2.39,11.29,4.68,1.28.98,2.52-1.19,1.26-2.16-3.9-2.98-11.84-7.34-16.61-3.86-5.43,3.97-1.3,12.58.79,17.24.66,1.47,2.81.2,2.16-1.26h0Z" fill="#fff"/>
      <path id="Path_723" data-name="Path 723" d="M1902.94,1640.32a16.54,16.54,0,0,0,9.43-3.48c2.61-2.18,5.83-5.87,5.63-9.32-.09-1.6-2.59-1.61-2.5,0,.16,2.76-3.02,6.1-5.06,7.67a14.265,14.265,0,0,1-7.5,2.64c-1.6.11-1.61,2.61,0,2.5h0Z" fill="#fff"/>
    </g>
    <g id="Group_81" data-name="Group 81">
      <path id="Path_724" data-name="Path 724" d="M1921.82,1622.87c-1.73-3.87-6.47-14.21,1.1-14.64,3.94-.22,8.3,2.39,11.29,4.68,1.28.98,2.52-1.19,1.26-2.16-3.9-2.98-11.84-7.34-16.61-3.86-5.43,3.97-1.3,12.58.79,17.24.66,1.47,2.81.2,2.16-1.26h0Z" fill="#7774e2"/>
      <path id="Path_725" data-name="Path 725" d="M1920.97,1624.89a16.54,16.54,0,0,0,9.43-3.48c2.61-2.18,5.83-5.87,5.63-9.32-.09-1.6-2.59-1.61-2.5,0,.16,2.76-3.02,6.1-5.06,7.67a14.265,14.265,0,0,1-7.5,2.64c-1.6.11-1.61,2.61,0,2.5h0Z" fill="#7774e2"/>
    </g>
    <g id="Group_82" data-name="Group 82">
      <path id="Path_726" data-name="Path 726" d="M1939.19,1608.37c-1.73-3.87-6.47-14.21,1.1-14.64,3.94-.22,8.3,2.39,11.29,4.68,1.28.98,2.52-1.19,1.26-2.16-3.9-2.98-11.84-7.34-16.61-3.86-5.43,3.97-1.3,12.58.79,17.24.66,1.47,2.81.2,2.16-1.26h0Z" fill="#7774e2"/>
      <path id="Path_727" data-name="Path 727" d="M1938.35,1610.39a16.54,16.54,0,0,0,9.43-3.48c2.61-2.18,5.83-5.87,5.63-9.32-.09-1.6-2.59-1.61-2.5,0,.16,2.76-3.02,6.1-5.06,7.67a14.265,14.265,0,0,1-7.5,2.64c-1.6.11-1.61,2.61,0,2.5h0Z" fill="#7774e2"/>
    </g>
    <g id="Group_83" data-name="Group 83">
      <path id="Path_728" data-name="Path 728" d="M1956.57,1594.4c-1.73-3.87-6.47-14.21,1.1-14.64,3.94-.22,8.3,2.39,11.29,4.68,1.28.98,2.52-1.19,1.26-2.16-3.9-2.98-11.84-7.34-16.61-3.86-5.43,3.97-1.3,12.58.79,17.24.66,1.47,2.81.2,2.16-1.26h0Z" fill="#7774e2"/>
      <path id="Path_729" data-name="Path 729" d="M1955.72,1596.42a16.54,16.54,0,0,0,9.43-3.48c2.48-2.07,5.83-5.87,5.63-9.32-.09-1.6-2.59-1.61-2.5,0,.16,2.76-3.02,6.1-5.06,7.67a14.265,14.265,0,0,1-7.5,2.64c-1.6.11-1.61,2.61,0,2.5h0Z" fill="#7774e2"/>
    </g>
    <g id="Group_84" data-name="Group 84">
      <path id="Path_730" data-name="Path 730" d="M1973.94,1580.43c-1.73-3.87-6.47-14.21,1.1-14.64,3.94-.22,8.3,2.39,11.29,4.68,1.28.98,2.52-1.19,1.26-2.16-3.9-2.98-11.84-7.34-16.61-3.86-5.43,3.97-1.3,12.58.79,17.24.66,1.47,2.81.2,2.16-1.26h0Z" fill="#7774e2"/>
      <path id="Path_731" data-name="Path 731" d="M1973.1,1582.45a16.54,16.54,0,0,0,9.43-3.48c2.61-2.18,5.83-5.87,5.63-9.32-.09-1.6-2.59-1.61-2.5,0,.16,2.76-3.02,6.1-5.06,7.67a14.023,14.023,0,0,1-7.5,2.64c-1.6.11-1.61,2.61,0,2.5h0Z" fill="#7774e2"/>
    </g>
    <g id="Group_85" data-name="Group 85">
      <path id="Path_732" data-name="Path 732" d="M1991.32,1566.46c-1.73-3.87-6.47-14.21,1.1-14.64,3.94-.22,8.3,2.39,11.29,4.68,1.28.98,2.52-1.19,1.26-2.16-3.9-2.98-11.84-7.34-16.61-3.86-5.43,3.97-1.3,12.58.79,17.24.66,1.47,2.81.2,2.16-1.26h0Z" fill="#7774e2"/>
      <path id="Path_733" data-name="Path 733" d="M1990.47,1568.48a16.54,16.54,0,0,0,9.43-3.48c2.48-2.07,5.83-5.87,5.63-9.32-.09-1.6-2.59-1.61-2.5,0,.16,2.76-3.02,6.1-5.06,7.67a14.265,14.265,0,0,1-7.5,2.64c-1.6.11-1.61,2.61,0,2.5h0Z" fill="#7774e2"/>
    </g>
    <g id="Group_87" data-name="Group 87">
      <g id="Group_86" data-name="Group 86">
        <path id="Path_734" data-name="Path 734" d="M1819.65,1684.91c61.89-50.87,123.37-102.24,184.92-153.53,4.95-4.12-2.16-11.17-7.07-7.07-61.55,51.29-123.02,102.66-184.92,153.53-4.98,4.09,2.13,11.13,7.07,7.07Z" fill="#fff"/>
        <path id="Path_735" data-name="Path 735" d="M1786.09,1650.74c61.89-50.87,123.37-102.24,184.92-153.53,4.95-4.12-2.16-11.17-7.07-7.07-61.55,51.29-123.02,102.66-184.92,153.53-4.98,4.09,2.13,11.13,7.07,7.07Z" fill="#fff"/>
      </g>
    </g>
    <path id="Path_736" data-name="Path 736" d="M2719.71,2096.19s60.1,4.4,40.97,89.37-73.89-20.68-73.89-20.68l32.92-68.7Z" fill="#f48462"/>
    <path id="Path_737" data-name="Path 737" d="M2483.94,1832.8l-31.1,199.17,285.58-44.14Z" fill="#935463"/>
    <g id="Group_88" data-name="Group 88">
      <path id="Path_738" data-name="Path 738" d="M2944.93,3280.42s72.94,89.63,136.84,120.72c84.6,41.15,184.51,86.29,227.68,90.86s55.58,36.05,46.78,52.98-44.81,16.63-44.81,16.63-584.93,27.49-624.22-5.05,23.33-132.66,14.22-199.49-10.01-78.93-10.01-78.93Z" fill="#f48462"/>
      <rect id="Rectangle_350" data-name="Rectangle 350" width="683.98" height="50.55" rx="25.275" transform="translate(2681.35 3554.566) rotate(-0.86)" fill="#703506"/>
      <path id="Path_739" data-name="Path 739" d="M2832.3,3448.02c-3.38-9.28-11.18-19.37-9.37-29.69,1.91-10.91,11.92-18.33,20.19-24.55,6.1-4.58.13-15.01-6.06-10.36-10.6,7.96-21.75,16.72-25.34,30.16-3.74,14,4.45,25.11,9.01,37.63,2.62,7.2,14.22,4.09,11.57-3.19h0Z" fill="#c6644e"/>
      <path id="Path_740" data-name="Path 740" d="M2684.91,3295.51q2.985,36.66,5.96,73.32c.62,7.64,12.63,7.71,12,0q-2.985-36.66-5.96-73.32c-.62-7.64-12.63-7.71-12,0Z" fill="#c6644e"/>
      <path id="Path_741" data-name="Path 741" d="M3209.92,3543.36c-8.79-29.81-42.63-41.82-71.12-40.84-7.7.27-7.74,12.27,0,12,22.84-.79,52.33,7.55,59.55,32.03,2.18,7.39,13.76,4.25,11.57-3.19Z" fill="#c6644e"/>
      <path id="Path_742" data-name="Path 742" d="M3181.01,3497.89l42.71-4.47c1.18-.12,9.49.13,10.52.73l9.19-.36c.39.23,13.64,16.37,13.96,16.69l23.57,23.3a1.677,1.677,0,0,1,.37,1.85l-2.21,7.51a1.693,1.693,0,0,1-1.57,1.04l-51.78-.3a1.64,1.64,0,0,1-1.1-.42l-44.6-42.62a1.688,1.688,0,0,1,.94-2.95Z" fill="#f48462"/>
      <path id="Path_743" data-name="Path 743" d="M3252.14,3505.81s3.89-22.69,28.19-20.17c0,0-44.93-14.36-70.48-25.89-17.76,6.64-24.54,30.67-24.54,30.67S3234.89,3492.96,3252.14,3505.81Z" fill="#703506"/>
      <path id="Path_744" data-name="Path 744" d="M2985.82,3549.89s9.83-112.35,84.48-153.9c-37.77-27.56-44.6-32.72-86.5-72.52-62.14-15.05-172.06,229.04-172.06,229.04" fill="#703506"/>
      <path id="Path_745" data-name="Path 745" d="M2965.1,3316.51a543.723,543.723,0,0,0,53.78,51.26c5.9,4.9,14.43-3.54,8.49-8.49a544.831,544.831,0,0,1-53.78-51.26c-5.23-5.71-13.69,2.79-8.49,8.49Z" fill="#c6644e"/>
      <path id="Path_746" data-name="Path 746" d="M3288.86,3540.52c-.66-14.72-8.32-24.27-19.52-33.06-11.77-9.24-24.45-15.74-39.18-18.83-7.53-1.58-10.76,9.98-3.19,11.57a80.96,80.96,0,0,1,32.94,15.04c8.86,6.71,16.41,13.56,16.94,25.29.35,7.69,12.35,7.73,12,0h0Z" fill="#c6644e"/>
    </g>
    <path id="Path_747" data-name="Path 747" d="M3067.61,2594.38c-95.05-13.04-328.89,42.56-567.87,111.34-23.64,6.8-37.29-25.97-15.8-37.96h0s256.86-155.61,581.41-73.96c.76.19,1.51.38,2.26.58Z" fill="#fff"/>
    <path id="Path_748" data-name="Path 748" d="M2430.23,2292.46l322.87,97.42s3.24,218.27-201.78,277.88S2322.5,2478.8,2322.5,2478.8l107.74-186.34Z" fill="#fff"/>
    <path id="Path_749" data-name="Path 749" d="M2604.62,2333.68s-10.03,122.62,87.67,110.96,91.69-151.95,91.69-151.95l-179.37,40.99Z" fill="#f48462"/>
    <path id="Path_750" data-name="Path 750" d="M1842.25,2957.97s-188.18-679.36-29.73-866.31,526.28-31.19,526.28-31.19l176.01,623.45-672.56,274.04Z" fill="#fff"/>
    <path id="Path_751" data-name="Path 751" d="M2112.48,2496.38s95.11-150.66,141.28-167.83,157.77,5.44,157.81,18.81-103.35,29.63-103.35,29.63,58.1,101.55,59.04,124.36-51.48,89.29-62.99,95.92-40.4-30.42-40.4-30.42-31.93,38.62-76.92,50.52-96.62-56.34-96.62-56.34l22.15-64.66Z" fill="#f48462"/>
    <path id="Path_752" data-name="Path 752" d="M2263.86,2571.78a4.918,4.918,0,0,1-3.51-8.37l29.81-30.26a4.929,4.929,0,0,1,7.03,6.91l-19.14,19.42,22.96-3.87a4.929,4.929,0,1,1,1.64,9.72l-37.96,6.39a5.756,5.756,0,0,1-.82.06Z"/>
    <path id="Path_753" data-name="Path 753" d="M2246.19,2392.34a4.924,4.924,0,0,1-.81-9.78l62.03-10.43a4.929,4.929,0,1,1,1.64,9.72l-62.03,10.43a4.634,4.634,0,0,1-.83.06Z"/>
    <path id="Path_754" data-name="Path 754" d="M2738.42,1987.83,2423.48,1854.2l-29.56,186.87Z" fill="#fff"/>
    <path id="Path_755" data-name="Path 755" d="M2336.44,1935.76l-45.73,441.7,402.24,45.42,45.47-435.05Z" fill="#b46676"/>
    <path id="Path_756" data-name="Path 756" d="M1949.37,1900.48l2.96,121.19s22.71,34.3,93.75,38.33c52.92,3,71.18-9.39,71.18-9.39l-8.87-61.2-8.72-59.68-128.71-25.03-21.6-4.22Z" fill="#f48462"/>
    <path id="Path_757" data-name="Path 757" d="M1972.99,1915.02a37.442,37.442,0,0,0,3.8,11.14c28.45,57.46,102.17,68.41,132.44,70.38l-8.77-57.23L1973,1915.02Z"/>
    <path id="Path_758" data-name="Path 758" d="M2115.78,1673.62s64.52,144.14,42.47,225.65-96.24,69.37-140.7,54.05-65.27-42.31-65.27-42.31-41.27,14.41-69.31-23.84-11.38-82.61,12.16-92.95,51.81,6.47,51.81,6.47l-22.41-41.86s90.77-214.55,191.24-85.21Z" fill="#f48462"/>
    <path id="Path_759" data-name="Path 759" d="M2110.73,1857.86a4.5,4.5,0,0,1-1.44-.22,4.919,4.919,0,0,1-3.26-6.15c8.12-26.45-11.78-55.13-11.99-55.42a4.922,4.922,0,1,1,8.04-5.68c.94,1.33,22.91,32.88,13.35,63.99a4.922,4.922,0,0,1-4.7,3.48Z"/>
    <path id="Path_760" data-name="Path 760" d="M1940.94,1868.88a4.931,4.931,0,0,1-3.58-1.53l-39.4-41.57a4.93,4.93,0,1,1,7.16-6.78l39.4,41.57a4.93,4.93,0,0,1-3.58,8.32Z"/>
    <path id="Path_761" data-name="Path 761" d="M1899.29,1857.81a4.924,4.924,0,0,1-.74-9.79l27.18-4.18a4.922,4.922,0,0,1,1.49,9.73l-27.18,4.18A4.735,4.735,0,0,1,1899.29,1857.81Z"/>
    <path id="Path_762" data-name="Path 762" d="M1946.95,1800.68s14.96,9.77,25.77-7.24-13.05-67.14-13.05-67.14,44.83,10.07,72.49-4.81,41.16-55.69,41.16-55.69,20.48,42.43,81.6,23.6,72.59-102.1,7.26-118.94-100.94,12.12-100.94,12.12-8.41-60.4-89.07-30.38c-73.49,27.35-85.72,119.52-85.72,119.52s-44.17,2.16-52.55,50.21,47.9,82.7,47.9,82.7,31.87-18.79,65.14-3.95Z"/>
    <path id="Path_763" data-name="Path 763" d="M2045.03,1804.03a4.923,4.923,0,0,1-4.87-4.29l-3.5-26.96a4.921,4.921,0,0,1,9.76-1.26l3.5,26.96a4.909,4.909,0,0,1-4.25,5.51,4.579,4.579,0,0,1-.64.04Z"/>
    <path id="Path_764" data-name="Path 764" d="M2125.06,1797.42a4.938,4.938,0,0,1-4.87-4.19l-4.01-26.89a4.924,4.924,0,1,1,9.74-1.45l4.01,26.89a4.932,4.932,0,0,1-4.14,5.6,6.126,6.126,0,0,1-.74.05Z"/>
    <path id="Path_765" data-name="Path 765" d="M2019.79,1752.4a4.914,4.914,0,0,1-4.38-7.16c9.87-19.3,34.31-14.33,35.32-14.11a4.922,4.922,0,0,1-2.04,9.63c-.72-.15-18.07-3.58-24.5,8.95a4.922,4.922,0,0,1-4.39,2.68Z"/>
    <path id="Path_766" data-name="Path 766" d="M2097.92,1735.56a5,5,0,0,1-2.77-.85,4.921,4.921,0,0,1-1.3-6.84c4.06-5.96,9.3-9.38,15.57-10.18,12.6-1.63,24.56,8.73,25.06,9.17a4.921,4.921,0,0,1-6.49,7.4c-2.5-2.2-10.47-7.61-17.35-6.8-3.38.44-6.21,2.38-8.64,5.95a4.926,4.926,0,0,1-4.08,2.15Z"/>
    <path id="Path_767" data-name="Path 767" d="M2754.87,2255.91s85.77-9.84,59.39-49.29-181.55-58.32-198.09-12.01,138.7,61.3,138.7,61.3Z" fill="#f48462"/>
    <path id="Path_768" data-name="Path 768" d="M2745.58,2326.73s85.77-9.84,59.39-49.29-181.55-58.32-198.09-12.01,138.7,61.3,138.7,61.3Z" fill="#f48462"/>
    <path id="Path_769" data-name="Path 769" d="M2695.97,2386c18.43,6.11,38.17,8.04,57.13,3.89,16.94-3.71,31.74-12.22,23.21-31.41-17.06-38.38-149.51-78.23-170.93-40.34-15.96,28.25,53.96,55.71,90.58,67.86Z" fill="#f48462"/>
    <path id="Path_770" data-name="Path 770" d="M2764.97,2246.46c-.37,0-99.98-7.46-99.98-7.46a4.928,4.928,0,0,1-4.55-5.28,5.181,5.181,0,0,1,5.28-4.55l99.61,7.45a4.927,4.927,0,0,1-.36,9.84Z"/>
    <path id="Path_771" data-name="Path 771" d="M2748.85,2324.88c-.37,0-99.99-7.46-99.99-7.46a4.928,4.928,0,0,1-4.55-5.28,5.137,5.137,0,0,1,5.28-4.55l99.62,7.45a4.927,4.927,0,0,1-.36,9.84Z"/>
    <path id="Path_772" data-name="Path 772" d="M1990.92,2971.59a5.215,5.215,0,0,1-5.04-3.88l-16.75-63.11a5.209,5.209,0,1,1,10.07-2.67l16.75,63.11a5.23,5.23,0,0,1-5.04,6.55Z" fill="#534579"/>
    <path id="Path_773" data-name="Path 773" d="M2485.7,2813.18a5.219,5.219,0,0,1-5.21-5.08l-1.76-67.2a5.224,5.224,0,0,1,5.08-5.35c3.41.15,5.28,2.21,5.35,5.08l1.76,67.2a5.224,5.224,0,0,1-5.08,5.35h-.14Z" fill="#534579"/>
    <path id="Path_774" data-name="Path 774" d="M2430.23,2854.98a5.213,5.213,0,0,1-5.21-5.21l-.15-71.24a5.215,5.215,0,1,1,10.43-.01l.15,71.24a5.22,5.22,0,0,1-5.2,5.22h0Z" fill="#534579"/>
    <path id="Path_775" data-name="Path 775" d="M2076.33,1898.72c-17.75,0-30.55-13.05-35.35-21.12a4.924,4.924,0,0,1,8.46-5.04c.52.86,12.85,20.94,34.11,15.35a4.921,4.921,0,0,1,2.5,9.52A38.031,38.031,0,0,1,2076.33,1898.72Z"/>
    <path id="Path_776" data-name="Path 776" d="M1893.77,2030.07s-559.86,242.22-462.62,660.27c92.66,398.35,731.68,50.42,731.68,50.42l-31.61-312.66-298.18,31.84,60.72-429.87Z" fill="#fff"/>
    <path id="Path_777" data-name="Path 777" d="M1732.9,2450.35a4.92,4.92,0,0,1-.99-9.74c164.82-34.05,351.32-22.78,353.2-22.64a4.923,4.923,0,0,1,4.61,5.22,4.862,4.862,0,0,1-5.22,4.61c-1.87-.14-187.09-11.32-350.59,22.46a5.74,5.74,0,0,1-1,.1Z"/>
    <path id="Path_778" data-name="Path 778" d="M1883.76,2425.88c-25.03,0-111.73-1.73-123.66-25.32-1.93-3.82-3.03-9.98,2.73-17.69,4.92-6.59,11.93-10.56,20.84-11.8,38.57-5.25,103.76,43.86,106.51,45.96a4.938,4.938,0,0,1,1.68,5.47c-.96,2.91-3.87,3.36-8.1,3.38Zm-93.59-45.4a37.189,37.189,0,0,0-5.14.34c-6.29.88-10.97,3.47-14.31,7.93-3.31,4.44-2.24,6.56-1.83,7.36,6.4,12.66,59.49,18.78,102.65,19.77-19.17-12.97-56.02-35.41-81.37-35.41Z"/>
    <path id="Path_779" data-name="Path 779" d="M2062.93,2063.77c-68.27,0-113.25-37.89-113.81-38.36a4.921,4.921,0,0,1,6.42-7.46c.67.57,67.12,56.29,160.28,27.97a4.928,4.928,0,1,1,2.87,9.43,191.08,191.08,0,0,1-55.77,8.44Z"/>
    <path id="Path_780" data-name="Path 780" d="M1868.29,2854.69a4.922,4.922,0,0,1-1.76-9.52c1.96-.75,197.33-75.95,293.61-139.16a4.926,4.926,0,0,1,5.4,8.24c-97.16,63.8-293.51,139.37-295.49,140.12a4.968,4.968,0,0,1-1.76.32Z"/>
    <path id="Path_781" data-name="Path 781" d="M2511.74,2663.53a4.922,4.922,0,0,1-4.89-4.44c-8.74-88.59-51.42-211.39-51.84-212.62a4.919,4.919,0,1,1,9.29-3.24c.44,1.24,43.49,125.13,52.35,214.89a4.926,4.926,0,0,1-4.41,5.39c-.17.01-.33.02-.49.02Z" fill="#fff"/>
    <path id="Path_782" data-name="Path 782" d="M2519.32,2663.92a4.985,4.985,0,0,1-1.98-1.89,4.933,4.933,0,0,1,1.79-6.74c.68-.39,68.97-39.78,141.8-56.51a4.924,4.924,0,1,1,2.2,9.6c-71.39,16.4-138.37,55.05-139.05,55.44A4.919,4.919,0,0,1,2519.32,2663.92Z"/>
    <g id="Group_89" data-name="Group 89">
      <path id="Path_783" data-name="Path 783" d="M3380.24,3323.44s112.53,26.27,182.1,11.76c92.09-19.21,198.73-44.64,235.68-67.44s66.02-5.49,69.42,13.28-25.26,40.58-25.26,40.58-445.84,379.65-496.82,377.95-62.72-119.21-110.82-166.49-56.21-56.3-56.21-56.3l201.92-153.32Z" fill="#f48462"/>
      <rect id="Rectangle_351" data-name="Rectangle 351" width="683.98" height="50.55" rx="25.275" transform="translate(3339.563 3701.179) rotate(-38.59)" fill="#703506"/>
      <path id="Path_784" data-name="Path 784" d="M3393.14,3524.54c-7.86-4.98-18.93-7.85-24.2-16.03-6.49-10.07-2.54-23.2.36-33.76,2.05-7.46-9.53-10.64-11.57-3.19-3.73,13.59-7.02,28.48.05,41.62,6.2,11.52,18.95,15.15,29.31,21.72,6.54,4.15,12.57-6.23,6.06-10.36h0Z" fill="#c6644e"/>
      <path id="Path_785" data-name="Path 785" d="M3184.32,3495.04q24.8,27.165,49.58,54.34c5.22,5.72,13.68-2.79,8.49-8.49q-24.8-27.165-49.58-54.34c-5.22-5.72-13.68,2.79-8.49,8.49Z" fill="#c6644e"/>
      <path id="Path_786" data-name="Path 786" d="M3750.15,3368.89c-25.33-18.19-59.47-5.95-81.24,12.1-5.95,4.93,2.58,13.38,8.49,8.49,17.87-14.81,46-25.08,66.7-10.22,6.28,4.51,12.28-5.89,6.06-10.36h0Z" fill="#c6644e"/>
      <path id="Path_787" data-name="Path 787" d="M3700.04,3350.99l31.04-29.67c.86-.82,7.58-5.71,8.76-5.86l7.05-5.91c.45-.06,20.8,4.6,21.26,4.66l32.9,4.01a1.689,1.689,0,0,1,1.43,1.24l2.85,7.29a1.68,1.68,0,0,1-.61,1.78l-41.13,31.45a1.633,1.633,0,0,1-1.13.34l-61.36-6.42a1.689,1.689,0,0,1-1.06-2.91Z" fill="#f48462"/>
      <path id="Path_788" data-name="Path 788" d="M3761.14,3313.74s-10.81-20.33,9.96-33.21c0,0-44.32,16.14-71.59,22.65-9.98,16.11-.65,39.27-.65,39.27s40.77-28.33,62.27-28.72Z" fill="#703506"/>
      <path id="Path_789" data-name="Path 789" d="M3577.46,3511.55s-60.97-94.88-27.35-173.42c-46.74,1.32-55.3,1.41-112.79-4.44-58.36,26.12,4.06,286.44,4.06,286.44" fill="#703506"/>
      <path id="Path_790" data-name="Path 790" d="M3417.44,3339.48a557.4,557.4,0,0,0,75.49,7.85c7.72.27,7.71-11.73,0-12a533.013,533.013,0,0,1-72.3-7.42c-7.55-1.31-10.8,10.26-3.19,11.57h0Z" fill="#c6644e"/>
      <path id="Path_791" data-name="Path 791" d="M3810.92,3318.15c-8.9-10.49-20.51-13.42-33.81-13.65a95.975,95.975,0,0,0-44.62,9.47c-6.95,3.36-.87,13.71,6.06,10.36,11.81-5.71,23.99-7.96,37.05-7.85,10.87.09,19.53,1.54,26.84,10.16,5,5.9,13.46-2.63,8.49-8.49h0Z" fill="#c6644e"/>
    </g>
    <path id="Path_792" data-name="Path 792" d="M3478.25,3325.98l-284.82,172.18a20.68,20.68,0,0,1-23.32-1.31c-27.34-21.04-101.42-77.69-184.73-138.38a20.751,20.751,0,0,0-12.23-3.97l-384.42.87a20.7,20.7,0,0,1-20.33-24.82l22.73-111.78a20.687,20.687,0,0,0-26.68-23.8c-149.98,48.78-402.67,135.13-509.89,100.67-122.47-39.36-198.11-286.65-217.35-357.03a20.677,20.677,0,0,1,13.15-24.98c58.36-20.34,251.07-86.79,468.9-154,292.04-90.11,629.22-181.61,748.36-165.26h.01a110.954,110.954,0,0,1,19.43,4.27c213.19,70.1,372.97,606.45,400.42,704.03a20.688,20.688,0,0,1-9.22,23.31Z" fill="#fff"/>
    <path id="Path_793" data-name="Path 793" d="M2600.8,3187.08a5.061,5.061,0,0,1-1.43-.98,4.91,4.91,0,0,1-1.16-5.24c1.21-3.23,30.07-79.15,70.84-94.29,11.52-4.29,22.86-3.42,33.87,2.57,12.15,6.65,14.28,14.76,13.94,20.38-2.04,33.04-100.96,73.18-112.24,77.65a4.919,4.919,0,0,1-3.84-.09Zm94.8-90.59a29.109,29.109,0,0,0-23.1-.69c-28.03,10.41-51.15,56.45-60.55,77.7,40.06-17.08,93.95-46.13,95.09-64.59.1-1.5.38-6.08-8.84-11.13-.86-.48-1.73-.9-2.59-1.29Z"/>
    <path id="Path_794" data-name="Path 794" d="M2285.48,2767.9a4.985,4.985,0,0,1-1.98-1.89,4.933,4.933,0,0,1,1.79-6.74c.68-.39,68.97-39.78,141.8-56.51a4.924,4.924,0,1,1,2.2,9.6c-71.39,16.4-138.37,55.05-139.05,55.44A4.919,4.919,0,0,1,2285.48,2767.9Z"/>
    <path id="Path_795" data-name="Path 795" d="M2270.13,2786.6a4.937,4.937,0,0,1-3.67-7.82c.46-.64,46.89-64.36,106.65-109.2a4.921,4.921,0,0,1,5.91,7.87c-58.58,43.97-104.12,106.48-104.57,107.11a4.945,4.945,0,0,1-4.31,2.03Z"/>
    <path id="Path_796" data-name="Path 796" d="M1954.72,3207.25s54.01,113.76,177.22,95.96,242.84-48.51,242.84-48.51" fill="none" stroke="#0c0c0c" stroke-linecap="round" stroke-miterlimit="10" stroke-width="11"/>
    <path id="Path_797" data-name="Path 797" d="M3695.93,3353.36c10.4-11.8,26.07-19.67,39.45-27.42,6.68-3.87.64-14.25-6.06-10.36-14.22,8.25-30.83,16.77-41.88,29.3-5.09,5.77,3.36,14.29,8.49,8.49h0Z" fill="#c6644e"/>
    <path id="Path_798" data-name="Path 798" d="M1951.89,2084.32a98.511,98.511,0,0,1,22-43.51c5.08-5.78-3.38-14.3-8.49-8.49a111.012,111.012,0,0,0-25.09,48.81c-1.7,7.52,9.86,10.73,11.57,3.19h0Z"/>
    <g id="Group_90" data-name="Group 90">
      <path id="Path_799" data-name="Path 799" d="M1950.12,2084.34c.06.14.11.28.17.43,4.46,11.61,4.28,24.44,4.03,36.88-.07,3.81-.44,8.19-3.54,10.4-2.09,1.49-4.86,1.51-7.42,1.48l-7.11-.09a5.249,5.249,0,0,1-2.78-.55,4.382,4.382,0,0,1-1.47-1.85c-1.57-3.16-1.88-6.79-1.92-10.32a75.853,75.853,0,0,1,8.43-35.41c1.25-2.42,2.84-4.95,5.41-5.85s6.11.98,5.73,3.68l.49,1.2Z"/>
      <path id="Path_800" data-name="Path 800" d="M1944.34,2085.93c3.34,8.58,4.04,17.65,4.09,26.78.02,3.78.78,8.87-.37,12.52-1.32,4.16-6.58,1.64-10.03,2.24-2.05-.33-2.34-.15-.85.55a16.619,16.619,0,0,1-.94-3.75,40.381,40.381,0,0,1-.12-7.04,70.394,70.394,0,0,1,6.77-27.31c.39-.79,2.84-3.98,2.84-4.68-1.91-2.74-2.54-2.91-1.88-.49l.49,1.2c2.89,7.05,14.5,3.96,11.57-3.19-1.01-2.46-1.21-4.78-3.32-6.71a10.836,10.836,0,0,0-9.13-2.58c-7.21,1.32-10.47,8.99-12.99,15.01a81.782,81.782,0,0,0-5.76,21.78c-.93,7.54-1.76,16.92,2.11,23.82s12.31,5.82,18.88,5.42c7-.43,12.24-4.1,13.93-11.07,1.74-7.16,1.01-15.57.62-22.86-.42-7.74-1.51-15.56-4.33-22.82-2.77-7.12-14.38-4.02-11.57,3.19Z"/>
    </g>
    <path id="Path_801" data-name="Path 801" d="M2127.28,2718.99c-45.13-65.68-68.89-145.03-67.87-224.69a376.952,376.952,0,0,1,6.83-66.85c1.46-7.54-10.1-10.78-11.57-3.19-15.65,80.65-5.42,165.16,28.13,240.08a385.638,385.638,0,0,0,34.11,60.71c4.35,6.32,14.75.33,10.36-6.06h0Z"/>
    <path id="Path_802" data-name="Path 802" d="M2095.51,2726.35c-45.13-65.68-68.89-145.03-67.87-224.69a376.963,376.963,0,0,1,6.83-66.85c1.46-7.54-10.1-10.78-11.57-3.19-15.65,80.65-5.42,165.16,28.13,240.08a385.638,385.638,0,0,0,34.11,60.71c4.35,6.32,14.75.33,10.36-6.06h0Z"/>
    <path id="Path_803" data-name="Path 803" d="M2085.2,2066.23c14.1,37.58,28.87,74.98,42.26,112.82,1.55,4.38,3,8.8,4.22,13.28a32.792,32.792,0,0,1,1.31,5.34,13.293,13.293,0,0,0-.04,2.05l1.55-1.21a15.574,15.574,0,0,1-2.21-1.17c-7.51-4.41-12.66-12.83-16.99-20.13-9.26-15.59-15.21-32.84-21.52-49.75l-24.41-65.45c-2.67-7.17-14.28-4.07-11.57,3.19l24.41,65.45c7.26,19.47,14.09,39.6,25.53,57.12,5.31,8.14,11.67,16.78,20.67,21.11,8.31,4,16.57-.51,16.65-9.96.08-9.98-5.14-20.88-8.56-30.06q-5.85-15.72-11.78-31.4l-27.93-74.43c-2.69-7.16-14.29-4.06-11.57,3.19h0Z"/>
    <path id="Path_804" data-name="Path 804" d="M2908.38,3817.78h404.09c7.72,0,7.73-12,0-12H2908.38c-7.72,0-7.73,12,0,12Z" fill="#0c0c0c"/>
    <path id="Path_805" data-name="Path 805" d="M1840.91,3817.78H2245c7.72,0,7.73-12,0-12H1840.91c-7.72,0-7.73,12,0,12Z" fill="#0c0c0c"/>
    <path id="Path_806" data-name="Path 806" d="M2257.91,3511.97H2662c7.72,0,7.73-12,0-12H2257.91c-7.72,0-7.73,12,0,12Z" fill="#0c0c0c"/>
    <path id="Path_807" data-name="Path 807" d="M1578.71,3510.34H1982.8c7.72,0,7.73-12,0-12H1578.71c-7.72,0-7.73,12,0,12Z" fill="#0c0c0c"/>
    <g id="Group_97" data-name="Group 97">
      <g id="Group_95" data-name="Group 95">
        <g id="Group_92" data-name="Group 92">
          <g id="Group_91" data-name="Group 91">
            <path id="Path_808" data-name="Path 808" d="M1277.74,2577.52s0-37.42-52.39-89.81-86.07-82.33-86.07-82.33-26.19,86.07,22.45,138.46,116.01,101.04,116.01,101.04v-67.36Z" fill="#34315c"/>
            <path id="Path_809" data-name="Path 809" d="M1201.71,2811.23s0-37.42-52.39-89.81-86.07-82.33-86.07-82.33-26.2,86.07,22.45,138.46,116.01,101.04,116.01,101.04v-67.36Z" fill="#34315c"/>
            <path id="Path_810" data-name="Path 810" d="M1274.45,2641.26s3.95-37.21,61.59-83.77,94.29-72.77,94.29-72.77,16.95,88.36-36.96,135.31-126.03,88.22-126.03,88.22l7.12-66.98Z" fill="#34315c"/>
            <path id="Path_811" data-name="Path 811" d="M1182.59,2917.27s7.84-36.59,70.05-76.84,101.41-62.47,101.41-62.47,7.58,89.65-50.97,130.68-134.6,74.49-134.6,74.49l14.11-65.86Z" fill="#34315c"/>
            <path id="Path_812" data-name="Path 812" d="M1199.86,3218.19s0-37.42,52.39-89.81,86.07-82.33,86.07-82.33,26.19,86.07-22.46,138.46-116.01,101.04-116.01,101.04v-67.36Z" fill="#34315c"/>
            <path id="Path_813" data-name="Path 813" d="M1198.99,3291.65s5.32-37.04-39.1-96.35-73.5-93.72-73.5-93.72-38.16,81.47,2.55,140.25,100.47,116.5,100.47,116.5l9.57-66.67Z" fill="#34315c"/>
            <path id="Path_814" data-name="Path 814" d="M1147.33,3509.33s0-37.42,52.39-89.81,86.07-82.33,86.07-82.33,26.2,86.07-22.45,138.46-116.01,101.04-116.01,101.04v-67.36Z" fill="#34315c"/>
            <path id="Path_815" data-name="Path 815" d="M1182.31,3706.69s-9.48-36.2,27.94-100.15,62.41-101.44,62.41-101.44,47.14,76.63,13.35,139.63-86.64,127.13-86.64,127.13l-17.06-65.16Z" fill="#34315c"/>
          </g>
          <path id="Path_816" data-name="Path 816" d="M1282.49,2567.93c-3.07,40-7.61,81.38-14.35,116.19-20.71,107-72.48,176.03-93.2,272.68s38.74,221.16,22.82,345.29-64.24,193.17-50.44,276.01,86.29,307.2,86.29,307.2" fill="none" stroke="#fff" stroke-linecap="round" stroke-linejoin="round" stroke-width="4"/>
          <line id="Line_16" data-name="Line 16" y1="43.33" x2="56.46" transform="translate(1273.93 2622.8)" fill="none" stroke="#fff" stroke-linecap="round" stroke-linejoin="round" stroke-width="4"/>
          <line id="Line_17" data-name="Line 17" x1="23.64" y1="42.02" transform="translate(1252.92 2574.22)" fill="none" stroke="#fff" stroke-linecap="round" stroke-linejoin="round" stroke-width="4"/>
          <path id="Path_817" data-name="Path 817" d="M1178.08,2952.37s47.27-35.45,95.85-70.9" fill="none" stroke="#fff" stroke-linecap="round" stroke-linejoin="round" stroke-width="4"/>
          <path id="Path_818" data-name="Path 818" d="M1201.71,2878.59s-39.38-77.22-84.02-128.43" fill="none" stroke="#fff" stroke-linecap="round" stroke-linejoin="round" stroke-width="4"/>
          <path id="Path_819" data-name="Path 819" d="M1201.72,3271.43s36.76-72.22,101.1-135.24" fill="none" stroke="#fff" stroke-linecap="round" stroke-linejoin="round" stroke-width="4"/>
          <path id="Path_820" data-name="Path 820" d="M1192.52,3323.95s-23.63-56.46-51.21-97.16-31.51-45.96-31.51-45.96" fill="none" stroke="#fff" stroke-linecap="round" stroke-linejoin="round" stroke-width="4"/>
          <path id="Path_821" data-name="Path 821" d="M1147.33,3578.1s18.93-48.01,42.57-86.09,55.14-72.22,55.14-72.22" fill="none" stroke="#fff" stroke-linecap="round" stroke-linejoin="round" stroke-width="4"/>
          <path id="Path_822" data-name="Path 822" d="M1199.37,3771.86s-5.53-44.81,14.16-82.89,42.02-87.97,51.21-107.67" fill="none" stroke="#fff" stroke-linecap="round" stroke-linejoin="round" stroke-width="4"/>
        </g>
        <g id="Group_94" data-name="Group 94">
          <g id="Group_93" data-name="Group 93">
            <path id="Path_823" data-name="Path 823" d="M934.67,3077.46s-4.06-23.47,23.1-62.01,45.04-60.97,45.04-60.97,25.77,51.13.95,89.26-61.78,75.95-61.78,75.95l-7.31-42.24Z" fill="#34315c"/>
            <path id="Path_824" data-name="Path 824" d="M1007.72,3215.76s-4.06-23.47,23.1-62.01,45.03-60.97,45.03-60.97,25.77,51.13.95,89.26-61.78,75.95-61.78,75.95l-7.31-42.24Z" fill="#34315c"/>
            <path id="Path_825" data-name="Path 825" d="M943.65,3117.07s-6.52-22.91-47.71-45.85-67.03-35.4-67.03-35.4-1.04,57.25,37.86,80.84,88.61,41.64,88.61,41.64Z" fill="#34315c"/>
            <path id="Path_826" data-name="Path 826" d="M1031.21,3280.17s-8.89-22.09-52.27-40.58-70.37-28.16-70.37-28.16,4.98,57.04,46.15,76.42,92.49,32.1,92.49,32.1l-16-39.77Z" fill="#34315c"/>
            <path id="Path_827" data-name="Path 827" d="M1053.05,3470.75s-4.06-23.47-42.6-50.63-62.91-42.28-62.91-42.28-7.08,56.82,29.11,84.39,83.72,50.77,83.72,50.77l-7.31-42.24Z" fill="#34315c"/>
            <path id="Path_828" data-name="Path 828" d="M1061.58,3516.72s-7.36-22.65,14.06-64.66,35.91-66.75,35.91-66.75,32.78,46.95,13.63,88.22-50.36,83.96-50.36,83.96l-13.24-40.77Z" fill="#34315c"/>
            <path id="Path_829" data-name="Path 829" d="M1127.34,3706.01s2.72-23.66,39.64-52.98,60.39-45.8,60.39-45.8,10.32,56.32-24.25,85.91-80.68,55.46-80.68,55.46l4.89-42.59Z" fill="#34315c"/>
            <path id="Path_830" data-name="Path 830" d="M1117.6,3647.62s-4.06-23.47-42.6-50.63-62.91-42.28-62.91-42.28-7.08,56.82,29.11,84.39,83.71,50.77,83.71,50.77l-7.31-42.24Z" fill="#34315c"/>
            <path id="Path_831" data-name="Path 831" d="M1117.09,3775.18s2.01-23.73-28.39-59.77-50.15-56.84-50.15-56.84-21.24,53.17,6.79,89.01,68.13,70.31,68.13,70.31Z" fill="#34315c"/>
          </g>
          <path id="Path_832" data-name="Path 832" d="M930.65,3071.96c6.26,24.75,13.61,50.21,21.61,71.3,24.6,64.85,64.56,102.52,88.04,160.87s-.29,142.89,23.17,219,61.26,114.16,61.59,167.6-20.76,202-20.76,202" fill="none" stroke="#fff" stroke-linecap="round" stroke-linejoin="round" stroke-width="4"/>
          <line id="Line_18" data-name="Line 18" x1="40.11" y1="21.04" transform="translate(906.57 3111.57)" fill="none" stroke="#fff" stroke-linecap="round" stroke-linejoin="round" stroke-width="4"/>
          <line id="Line_19" data-name="Line 19" y1="28.91" x2="10.26" transform="translate(939.61 3072.69)" fill="none" stroke="#fff" stroke-linecap="round" stroke-linejoin="round" stroke-width="4"/>
          <path id="Path_833" data-name="Path 833" d="M1037.86,3301.7s-33.49-17.1-67.8-34.06" fill="none" stroke="#fff" stroke-linecap="round" stroke-linejoin="round" stroke-width="4"/>
          <path id="Path_834" data-name="Path 834" d="M1015.03,3258s16.31-52.7,38.75-89.66" fill="none" stroke="#fff" stroke-linecap="round" stroke-linejoin="round" stroke-width="4"/>
          <path id="Path_835" data-name="Path 835" d="M1057.67,3504.34s-30.89-41.3-78.08-73.83" fill="none" stroke="#fff" stroke-linecap="round" stroke-linejoin="round" stroke-width="4"/>
          <path id="Path_836" data-name="Path 836" d="M1069.14,3536.28s8.69-37.97,21.56-66.49,14.77-32.24,14.77-32.24" fill="none" stroke="#fff" stroke-linecap="round" stroke-linejoin="round" stroke-width="4"/>
          <path id="Path_837" data-name="Path 837" d="M1123.25,3731.28s26.58-32.59,43.13-44.78a230.783,230.783,0,0,0,28.01-24.35" fill="none" stroke="#fff" stroke-linecap="round" stroke-linejoin="round" stroke-width="4"/>
          <path id="Path_838" data-name="Path 838" d="M1125.07,3690.74s-17.09-28.05-36.04-49.36-42.42-39.3-42.42-39.3" fill="none" stroke="#fff" stroke-linecap="round" stroke-linejoin="round" stroke-width="4"/>
          <path id="Path_839" data-name="Path 839" d="M1113.47,3817.89s-1.4-28.7-17.88-50.44-35.9-50.6-43.8-61.96" fill="none" stroke="#fff" stroke-linecap="round" stroke-linejoin="round" stroke-width="4"/>
        </g>
      </g>
      <g id="Group_96" data-name="Group 96">
        <path id="Path_840" data-name="Path 840" d="M997.27,3866.84h342.71v281.01a3.039,3.039,0,0,1-3.04,3.04H1000.31a3.039,3.039,0,0,1-3.04-3.04V3866.84h0Z" fill="#34335f"/>
        <path id="Path_841" data-name="Path 841" d="M1337.01,3911.54H997.28a26.823,26.823,0,0,1-26.82-26.82h0a26.823,26.823,0,0,1,26.82-26.82h339.73a26.823,26.823,0,0,1,26.82,26.82h0A26.823,26.823,0,0,1,1337.01,3911.54Z" fill="#34335f"/>
      </g>
    </g>
    <line id="Line_20" data-name="Line 20" x2="2739.55" transform="translate(877.02 4154.53)" fill="none" stroke="#1a2e35" stroke-linecap="round" stroke-miterlimit="10" stroke-width="20"/>
    <circle id="Ellipse_316" data-name="Ellipse 316" cx="17.15" cy="17.15" r="17.15" transform="translate(1354.3 2023.92)" fill="#fff"/>
    <circle id="Ellipse_317" data-name="Ellipse 317" cx="14.24" cy="14.24" r="14.24" transform="translate(1524.35 1689.81)" fill="none" stroke="#fff" stroke-miterlimit="10" stroke-width="5"/>
    <circle id="Ellipse_318" data-name="Ellipse 318" cx="22.08" cy="22.08" r="22.08" transform="translate(894.39 2312.5)" fill="none" stroke="#fff" stroke-miterlimit="10" stroke-width="5"/>
    <circle id="Ellipse_319" data-name="Ellipse 319" cx="30.34" cy="30.34" r="30.34" transform="translate(1428.22 2856.23)" fill="none" stroke="#fff" stroke-miterlimit="10" stroke-width="5"/>
    <circle id="Ellipse_320" data-name="Ellipse 320" cx="23.05" cy="23.05" r="23.05" transform="translate(1836.51 3119.7)" fill="#fff"/>
    <circle id="Ellipse_321" data-name="Ellipse 321" cx="17.15" cy="17.15" r="17.15" transform="translate(804.44 3341.17)" fill="#fff"/>
    <circle id="Ellipse_322" data-name="Ellipse 322" cx="17.15" cy="17.15" r="17.15" transform="translate(1292.83 3771.85)" fill="#fff"/>
    <circle id="Ellipse_323" data-name="Ellipse 323" cx="12.01" cy="12.01" r="12.01" transform="translate(3338.23 2451.78)" fill="#fff"/>
    <circle id="Ellipse_324" data-name="Ellipse 324" cx="34.16" cy="34.16" r="34.16" transform="translate(3631.2 2676.77)" fill="#fff"/>
    <circle id="Ellipse_325" data-name="Ellipse 325" cx="29.15" cy="29.15" r="29.15" transform="translate(3595.97 3128.63)" fill="none" stroke="#fff" stroke-miterlimit="10" stroke-width="5"/>
    <circle id="Ellipse_326" data-name="Ellipse 326" cx="25.72" cy="25.72" r="25.72" transform="translate(2778.8 2457.31)" fill="none" stroke="#fff" stroke-miterlimit="10" stroke-width="5"/>
    <path id="Path_842" data-name="Path 842" d="M3545.63,3345.31a765.469,765.469,0,0,0,143.27-29.06c7.36-2.25,4.22-13.84-3.19-11.57a750.2,750.2,0,0,1-140.08,28.64c-7.6.8-7.68,12.81,0,12h0Z" fill="#c6644e"/>
    <path id="Path_843" data-name="Path 843" d="M3489.85,3582.25l-7.49-59.9,27.55-16.38,28.08,38.14Z" fill="#f48462"/>
    <path id="Path_844" data-name="Path 844" d="M2694.64,3341.28s291.38-13.16,483.68,141.51c-3.54-143.7-125.65-193.24-125.65-193.24l-352.9,55.31" fill="#fff"/>
  </g>
</svg>
