<svg id="Component_67_1" data-name="Component 67 – 1" xmlns="http://www.w3.org/2000/svg" width="45" height="49.004" viewBox="0 0 45 49.004">
  <rect id="Rectangle_40" data-name="Rectangle 40" width="45" height="49" rx="7" fill="#efdce0"/>
  <g id="Group_14" data-name="Group 14" transform="translate(7.049 7.649)">
    <g id="Group_15" data-name="Group 15" transform="translate(0)">
      <path id="Path_135" data-name="Path 135" d="M208.97,96.618l-2.88-.758s-1.736,5.387.68,7.232S208.97,96.618,208.97,96.618Z" transform="translate(-199.452 -89.208)" fill="#685a56"/>
      <path id="Path_136" data-name="Path 136" d="M185.767,176.188S189.1,160.55,202.2,160.55s15.056,15.638,15.056,15.638Z" transform="translate(-186.06 -134.833)" fill="#fff"/>
      <ellipse id="Ellipse_149" data-name="Ellipse 149" cx="2.429" cy="2.429" rx="2.429" ry="2.429" transform="translate(3.466 12.252) rotate(-22.39)" fill="#ce8282"/>
      <circle id="Ellipse_150" data-name="Ellipse 150" cx="2.429" cy="2.429" r="2.429" transform="translate(21.245 13.576) rotate(-45)" fill="#ce8282"/>
      <path id="Path_137" data-name="Path 137" d="M234.775,134.569l-.413-5.4-4.212.568-.69,7.887A7.6,7.6,0,0,0,234.775,134.569Z" transform="translate(-215.978 -113.201)" fill="#d19582"/>
      <path id="Path_138" data-name="Path 138" d="M211.031,84.6c1.053,1.059-.171,3.653-1.485,3.495a13.362,13.362,0,0,0,.121,2.967,7.417,7.417,0,0,0,3.815,6,9.832,9.832,0,0,0,7.949.662,7.366,7.366,0,0,0,4.147-4.085,18.016,18.016,0,0,0,.758-7.241c-.432-8.627-7.455-8.5-7.455-8.5S213.619,78.13,211.031,84.6Z" transform="translate(-202.227 -76.827)" fill="#e5b5a3"/>
      <path id="Path_139" data-name="Path 139" d="M228.771,149.619l-.311,3.473s.124,1.737,2.936,2.066,3.134-2.6,3.134-2.6l-.457-6A7.6,7.6,0,0,1,228.771,149.619Z" transform="translate(-215.289 -125.182)" fill="#e5b5a3"/>
      <ellipse id="Ellipse_151" data-name="Ellipse 151" cx="0.432" cy="0.864" rx="0.432" ry="0.864" transform="translate(11.429 12.134)" fill="#373c44"/>
      <path id="Path_140" data-name="Path 140" d="M249.41,114.85c0,.478-.193.864-.432.864s-.429-.385-.429-.864.193-.86.429-.86S249.41,114.375,249.41,114.85Z" transform="translate(-229.138 -101.706)" fill="#373c44"/>
      <path id="Path_141" data-name="Path 141" d="M234.539,118.15c-.171.109-.342.214-.5.311s-.311.242-.329.348a.206.206,0,0,0,.09.155.6.6,0,0,0,.211.13.708.708,0,0,0,.528-.093.621.621,0,0,1-.565.27.64.64,0,0,1-.311-.14.4.4,0,0,1-.183-.345.513.513,0,0,1,.2-.311,1.389,1.389,0,0,1,.273-.165A1.992,1.992,0,0,1,234.539,118.15Z" transform="translate(-218.749 -104.574)" fill="#373c44"/>
      <path id="Path_142" data-name="Path 142" d="M233,124.639a3.685,3.685,0,0,0,.593.311,1.8,1.8,0,0,0,.621.146,1.3,1.3,0,0,0,.621-.115,2.825,2.825,0,0,0,.565-.351,2.051,2.051,0,0,1-.205.283,1.3,1.3,0,0,1-.277.227,1.165,1.165,0,0,1-.7.189A1.594,1.594,0,0,1,233,124.639Z" transform="translate(-218.418 -109.041)" fill="#373c44"/>
      <ellipse id="Ellipse_152" data-name="Ellipse 152" cx="0.907" cy="0.907" rx="0.907" ry="0.907" transform="translate(10.521 14.986)" fill="#ce8282"/>
      <ellipse id="Ellipse_153" data-name="Ellipse 153" cx="0.907" cy="0.907" rx="0.907" ry="0.907" transform="translate(18.934 14.986)" fill="#ce8282"/>
      <path id="Path_143" data-name="Path 143" d="M217.5,84.035c-.233-.69-.311-1.42-.531-2.115a3.153,3.153,0,0,0-1.162-1.8,3.081,3.081,0,0,0-2.119-.345c-1.938.276-3.607,1.472-5.452,2.122a10.074,10.074,0,0,1-6.359.1,5.747,5.747,0,0,1-2-1.038,4.119,4.119,0,0,1-1.264-4.172,1.588,1.588,0,0,1,.391-.724.705.705,0,0,1,.767-.158c.4.2.423.714.491,1.1a3.446,3.446,0,0,0,.6,1.609c.273-.454.118-1.187.174-1.7a2.2,2.2,0,0,1,.739-1.572.543.543,0,0,1,.373-.13c.348.043.388.525.373.876a4.623,4.623,0,0,0,.292,1.836,4.882,4.882,0,0,1,.6-3.106.668.668,0,0,1,.621-.339c.276.056.395.388.4.671a2.016,2.016,0,0,0,.056.833.882.882,0,0,0,.808.454,2.712,2.712,0,0,0,.932-.227A28.346,28.346,0,0,1,213.37,74.5a5.418,5.418,0,0,1,2.8.311,3.979,3.979,0,0,1,1.758,1.752,8.607,8.607,0,0,1,.792,2.389,20.533,20.533,0,0,1,.4,4.775c0,.419.121,1.69-.537,1.656C218.048,85.337,217.648,84.461,217.5,84.035Z" transform="translate(-194.616 -74.448)" fill="#685a56"/>
      <path id="Path_144" data-name="Path 144" d="M174.533,121.579H146.88l.258-.509h27.184Z" transform="translate(-145.003 -86.121)" fill="#6d5a7a"/>
      <path id="Path_145" data-name="Path 145" d="M172.664,131.753H142.69l.177-.513H172.53Z" transform="translate(-142.115 -93.131)" fill="#6d5a7a"/>
      <path id="Path_146" data-name="Path 146" d="M245.79,108.669a1.974,1.974,0,0,1,.621-.621,1.908,1.908,0,0,1,.854-.311,1.628,1.628,0,0,1,.9.155,1.883,1.883,0,0,1,.69.562c-.14-.059-.258-.137-.388-.193a2.619,2.619,0,0,0-.385-.143,1.88,1.88,0,0,0-.786-.071,3.322,3.322,0,0,0-1.507.621Z" transform="translate(-227.235 -97.388)" fill="#373c44"/>
      <path id="Path_147" data-name="Path 147" d="M221.386,107.867a1.9,1.9,0,0,0-1.553-.68,3.391,3.391,0,0,0-.867.152l-.435.143c-.143.056-.289.115-.441.162a4.326,4.326,0,0,1,.373-.3,4.5,4.5,0,0,1,.416-.236,2.5,2.5,0,0,1,.932-.236,1.724,1.724,0,0,1,.963.245A1.4,1.4,0,0,1,221.386,107.867Z" transform="translate(-208.14 -96.802)" fill="#373c44"/>
    </g>
  </g>
</svg>
