<svg xmlns="http://www.w3.org/2000/svg" width="2294.936" height="2827.931" viewBox="0 0 2294.936 2827.931">
  <g id="لغة_الاشارة" data-name="لغة الاشارة" transform="translate(-991.028 -1369.52)">
    <path id="Path_1014" data-name="Path 1014" d="M1016.89,2539.24c-34.2-287.81,60.8-587.2,299.87-781.83,162.71-132.46,374.95-201.73,584.52-188.86,105.5,6.48,213.35,33.09,306.88,83.23,107.43,57.59,190.72,151.38,299.2,207.62,134.9,69.94,278.7,39.2,419.14,83.5,115.66,36.48,208.33,127.45,268.87,232.53,110.51,191.83,120.67,437.97,26.34,638.26-79.75,169.32-225.66,299.75-385.44,397.2-246.33,150.24-537.33,232.14-825.14,211.65s-570.4-147.27-762.49-362.58c-130.55-146.33-209.22-331.01-231.77-520.72Z" fill="#111" opacity="0.1"/>
    <line id="Line_46" data-name="Line 46" x2="1859.06" transform="translate(1024.39 4180.57)" fill="none" stroke="#0c0c0c" stroke-linecap="round" stroke-miterlimit="10" stroke-width="9"/>
    <path id="Path_1015" data-name="Path 1015" d="M1821.29,1768.13s-29.81,47.09-35.56,141.78,14.11,212.32,14.11,212.32l58.67-30.84-34.62-321.47" fill="#111"/>
    <path id="Path_1016" data-name="Path 1016" d="M1821.29,1768.13s52.4-81.85,204.65-16.23,113.16,422.67,113.16,422.67l-279.29-13.44-38.52-392.99Z" fill="#111"/>
    <path id="Path_1017" data-name="Path 1017" d="M1639.9,3842.23l38.8,203.73,133.49,74.91,123.25-41.95-19.73-236.69Z" fill="#f27e64"/>
    <path id="Path_1018" data-name="Path 1018" d="M1946,4014.16l-50.26,95.99-31.8,60.8s-313.57,11.91-329.47,0-15.9-45.61,0-59.55c15.9-13.87,202.46-115.1,202.46-115.1s0-27.81,11.61-30.49c11.67-2.68,88.96,30.49,88.96,30.49l90.21-30.61,18.28,48.47Z" fill="#96455b"/>
    <path id="Path_1019" data-name="Path 1019" d="M1895.74,4110.15l-31.8,60.8s-313.57,11.91-329.47,0-15.9-45.61,0-59.55c0,0,215.2,15.9,334.88,0,11.31-1.49,19.95-1.85,26.38-1.25Z" fill="#e288a1"/>
    <path id="Path_1020" data-name="Path 1020" d="M1904.7,3867.2l30.74,211.72h227.42l9.59-211.72Z" fill="#ff9280"/>
    <path id="Path_1021" data-name="Path 1021" d="M2120.65,4145.16c0,17.21-10.54,41.03-47.64,48.95-37.04,7.98-230.8,0-236.81-6.61-3.22-3.45-5.24-17.51-6.43-30.13a59.165,59.165,0,0,1,9.41-38.17l79.31-120.94s21.85-22.45,64.37-18.52c42.52,3.99,63.83,18.52,63.83,18.52s19.71-19.95,29-13.28c7.68,5.54,33.52,100.22,42.16,142.19,1.79,8.63,2.8,15.07,2.8,17.98Z" fill="#ba6278"/>
    <path id="Path_1022" data-name="Path 1022" d="M1689.91,2643.81s-76.46,316.79-108.53,585.1-48.76,774.46-27.05,790.76,275.83,37.52,275.83,37.52,85.79,37.3,233.63,33.55c107.29-2.72,194.44-30.82,194.44-30.82s-20.95-1263.29-102.68-1447.86c-63.96-144.44-465.63,31.75-465.63,31.75Z" fill="#111"/>
    <path id="Path_1023" data-name="Path 1023" d="M1680.24,2587.85v63.42s160.71,36.83,292.62,27.36,181.2-32.62,181.2-32.62l56.06-321.96L2041.6,2086.89l-137.82-11.16-336.02,243.58,82.07,222.53,30.4,46.01Z" fill="#111"/>
    <path id="Path_1024" data-name="Path 1024" d="M1787.05,2503.96l62.36-290.4h216.82l-48.87,307.55Z" fill="#96455b"/>
    <path id="Path_1025" data-name="Path 1025" d="M2041.56,2213.56l-48.86,307.57-84.75-6.34-97.73-7.2-47.82-3.6,3.13-14.39,22.35-104.07,26.51-123.58,10.42-48.39Z" fill="#ba6278"/>
    <path id="Path_1026" data-name="Path 1026" d="M1678.18,2463.98l54.72-202.02h185.52l-52.44,243.63Z" fill="#a49cf2"/>
    <path id="Path_1027" data-name="Path 1027" d="M1890.05,2261.95l-21.87,101.8-30.5,141.85-29.54-6.53-42.61-9.47-115.72-25.66,54.73-201.99Z" fill="#fff"/>
    <path id="Path_1028" data-name="Path 1028" d="M1685.65,2434.52s69.58-7.21,84.31-7.21,34.55,34.57,34.55,34.57l44.14,12.74-50.45,141.93s-104.97,13.64-148.36-36.83c-16.28-18.94,35.8-145.2,35.8-145.2Z" fill="#f27e64"/>
    <path id="Path_1029" data-name="Path 1029" d="M1903.79,2082.04s-131.9,3.16-265.52,114.69-191.5,222.01-164.14,318.81,198.86,101.01,198.86,101.01l50.5-199.91-132.05-86.28,312.34-248.31Z" fill="#111"/>
    <path id="Path_1030" data-name="Path 1030" d="M1974.96,2468.19s-41.04-21.92-61.03-27.15c-18.93-4.95-33.2-4.02-33.2-4.02l-6.34,29.45s-65.68,14.34-111.97,37.48-37.88,44.19-37.88,44.19-29.46,18.94-16.84,31.57,61.03,0,61.03,0-61.03,23.15-35.77,36.83,80.88,9.47,80.88,9.47,121.14,21.04,161.12-21.04,0-136.78,0-136.78Z" fill="#ff9280"/>
    <path id="Path_1031" data-name="Path 1031" d="M2007.97,1995.56l-2.36,93.98s-17.63,26.59-72.72,29.68c-41.04,2.3-53.48-19.06-53.48-19.06l11.98-81.99,99.83-19.35,16.75-3.27Z" fill="#f27e64"/>
    <path id="Path_1032" data-name="Path 1032" d="M2000.21,2082.04s228.32,8.42,343.01,192.55,24.2,350.37-155.72,384.04-273.57-15.78-273.57-15.78l42.87-209.38,92.28-13.68,90.22-109.95-139.09-227.79Z" fill="#111"/>
    <path id="Path_1033" data-name="Path 1033" d="M2007.97,1989.82a30.748,30.748,0,0,1-2.96,9c-22.21,46.42-96.7,64.1-120.41,65.62l6.79-46.27,116.57-28.35Z"/>
    <path id="Path_1034" data-name="Path 1034" d="M1875.81,1803.43s-52.28,116.59-34.48,182.55,77.83,56.18,113.81,43.8,52.83-34.2,52.83-34.2,33.39,11.68,56.09-19.26,9.25-66.83-9.8-75.21-41.92,5.21-41.92,5.21l18.15-33.86s-73.34-173.64-154.69-69.04Z" fill="#f27e64"/>
    <path id="Path_1035" data-name="Path 1035" d="M2012.35,1906.32s-50.35,10.16-85.33-45.87-31.77-79.04-31.77-79.04l-34.85,57.84s-7.79-40.11,8.25-65.68,32.7-20.27,32.7-20.27l111.02,27.74,29.24,88.99-29.25,36.29Z" fill="#111"/>
    <path id="Path_1036" data-name="Path 1036" d="M1879.8,1952.06a3.548,3.548,0,0,1-3.4-2.51c-7.64-24.97,10.03-50.31,10.79-51.38a3.55,3.55,0,0,1,5.79,4.11c-.16.23-16.39,23.6-9.78,45.2a3.548,3.548,0,0,1-2.36,4.43,3.4,3.4,0,0,1-1.04.15Z"/>
    <path id="Path_1037" data-name="Path 1037" d="M2017.18,1961.07a3.489,3.489,0,0,1-2.44-.97,3.553,3.553,0,0,1-.14-5.02l31.9-33.61a3.551,3.551,0,1,1,5.16,4.88l-31.9,33.61a3.539,3.539,0,0,1-2.58,1.11Z"/>
    <path id="Path_1038" data-name="Path 1038" d="M2050.88,1952.13c-.55-.04-22.54-3.44-22.54-3.44a3.547,3.547,0,0,1-2.96-4.05,3.448,3.448,0,0,1,4.05-2.96l21.99,3.4a3.546,3.546,0,0,1-.55,7.05Z"/>
    <path id="Path_1039" data-name="Path 1039" d="M1923.35,1986.29c-9.4,0-19.2-3.62-20.85-4.24a3.512,3.512,0,0,1-2.22-2.78,3.567,3.567,0,0,1,1.31-3.33l31.46-24.7a3.6,3.6,0,0,1,2.95-.67,3.513,3.513,0,0,1,2.4,1.84c.38.72,9.13,17.98-.52,28.69-3.52,3.92-8.96,5.18-14.53,5.18Zm-12.08-8.92c7.27,1.88,17.45,3.32,21.34-1.01,4.12-4.58,2.63-12.02,1.11-16.6Z"/>
    <path id="Path_1040" data-name="Path 1040" d="M1857.26,1856.17a3.547,3.547,0,0,1-.61-7.04l20.79-3.62a3.488,3.488,0,0,1,4.11,2.88,3.546,3.546,0,0,1-2.88,4.11l-20.79,3.62a3.267,3.267,0,0,1-.61.05Z"/>
    <path id="Path_1041" data-name="Path 1041" d="M1943.69,1869.83a3.587,3.587,0,0,1-1.61-.38l-34.11-17.27a3.555,3.555,0,1,1,3.22-6.34l34.11,17.27a3.552,3.552,0,0,1-1.61,6.72Z"/>
    <path id="Path_1042" data-name="Path 1042" d="M1857.26,1904.24a3.4,3.4,0,0,1-1.04-.15,3.552,3.552,0,0,1-2.36-4.43l5.94-19.33-5.28-6.47a3.545,3.545,0,0,1,5.48-4.5l6.49,7.94a3.567,3.567,0,0,1,.66,3.29l-6.49,21.15a3.567,3.567,0,0,1-3.4,2.51Z"/>
    <path id="Path_1043" data-name="Path 1043" d="M1916.41,1909.92a3.4,3.4,0,0,1-1.04-.15,3.552,3.552,0,0,1-2.36-4.43l5.92-19.28-7.7-8.98a3.554,3.554,0,0,1,5.41-4.61l8.96,10.46a3.55,3.55,0,0,1,.7,3.34l-6.49,21.13a3.567,3.567,0,0,1-3.4,2.51Z"/>
    <path id="Path_1044" data-name="Path 1044" d="M1804.51,2465.42c-.67-.06-66.96-12.68-66.96-12.68a3.558,3.558,0,0,1,1.33-6.99l66.3,12.62a3.552,3.552,0,0,1-.67,7.04Z"/>
    <path id="Path_1045" data-name="Path 1045" d="M1874.4,2470.03a3.553,3.553,0,0,1-1.01-6.96l36.91-10.92a3.556,3.556,0,1,1,2.02,6.82l-36.91,10.92a3.562,3.562,0,0,1-1.01.14Z"/>
    <path id="Path_1046" data-name="Path 1046" d="M1727.34,2548.35a3.549,3.549,0,0,1-.98-6.96l94.01-27.15a3.548,3.548,0,1,1,1.96,6.82l-94.01,27.15a3.361,3.361,0,0,1-.98.14Z"/>
    <path id="Path_1047" data-name="Path 1047" d="M1762.42,2584.73a3.551,3.551,0,0,1-1-6.96l58.93-17.24a3.554,3.554,0,1,1,2,6.82l-58.93,17.25a3.447,3.447,0,0,1-1,.14Z"/>
    <path id="Path_1048" data-name="Path 1048" d="M2049.08,2423.34a3.544,3.544,0,0,1-.7-7.02c1.25-.25,125.93-24.79,198.04-24.79a3.55,3.55,0,0,1,0,7.1c-71.41,0-195.41,24.41-196.65,24.65a2.817,2.817,0,0,1-.7.07Z" fill="#fff"/>
    <path id="Path_1049" data-name="Path 1049" d="M2154.06,2406.17a3.541,3.541,0,0,1-2.8-5.73c5.44-6.99,54.04-67.88,79.46-54.29,4.8,2.57,5.66,6.03,5.54,8.5-.83,16.95-62.09,43.51-80.85,51.26a3.561,3.561,0,0,1-1.35.26Zm68.23-54.93c-14.41,0-38.57,22.12-56.16,42.34,32.12-14.34,62.67-31.82,63.04-39.28.01-.22.05-.9-1.77-1.87a10.774,10.774,0,0,0-5.1-1.19Z" fill="#fff"/>
    <path id="Path_1050" data-name="Path 1050" d="M2120.65,4145.16c0,17.21-10.54,41.03-47.64,48.95-37.04,7.98-230.8,0-236.81-6.61-3.22-3.45-5.24-17.51-6.43-30.13a59.165,59.165,0,0,1,9.41-38.17s12.39,19.77,130.76,23.88c75.92,2.62,123.56-7.98,147.91-15.9,1.79,8.63,2.8,15.07,2.8,17.98Z" fill="#e288a1"/>
    <path id="Path_1051" data-name="Path 1051" d="M1982.45,1896.67s25.81,71.51,12.39,101.14-76.42,40.94-76.42,40.94h-39.01l2.19,27.07s81.87,25.71,122.65-8.34,92.01-94.17,92.01-94.17l-16.73-77.16-71.56,4.42-25.52,6.1Z" fill="#111"/>
    <path id="Path_1052" data-name="Path 1052" d="M1875.68,2106.08s-6-50.53,7.87-52.41,29.23,7.99,61.68,3.05,50.06-14.99,60.25-14.72,1.43,62.56,1.43,62.56l-81.33,25.37-49.91-23.85Z" fill="#111"/>
    <circle id="Ellipse_347" data-name="Ellipse 347" cx="13.6" cy="13.6" r="13.6" transform="translate(2299.67 1933.28)" fill="#0a0a0a"/>
    <circle id="Ellipse_348" data-name="Ellipse 348" cx="13.6" cy="13.6" r="13.6" transform="translate(1568.87 2686.47)" fill="#0a0a0a"/>
    <circle id="Ellipse_349" data-name="Ellipse 349" cx="9.62" cy="9.62" r="9.62" transform="translate(1373 2647.15)" fill="#0a0a0a"/>
    <circle id="Ellipse_350" data-name="Ellipse 350" cx="23.95" cy="23.95" r="23.95" transform="translate(1632.39 2033.52)" fill="none" stroke="#0c0c0c" stroke-miterlimit="10" stroke-width="5"/>
    <circle id="Ellipse_351" data-name="Ellipse 351" cx="24.06" cy="24.06" r="24.06" transform="translate(1496.41 1821.39)" fill="none" stroke="#0c0c0c" stroke-miterlimit="10" stroke-width="5"/>
    <circle id="Ellipse_352" data-name="Ellipse 352" cx="13.6" cy="13.6" r="13.6" transform="translate(1369.02 2379.98)" fill="#0a0a0a"/>
    <circle id="Ellipse_353" data-name="Ellipse 353" cx="22.19" cy="22.19" r="22.19" transform="translate(3055.88 2491.9)" fill="#0a0a0a"/>
    <circle id="Ellipse_354" data-name="Ellipse 354" cx="18.94" cy="18.94" r="18.94" transform="translate(2793.79 2908.16)" fill="none" stroke="#0c0c0c" stroke-miterlimit="10" stroke-width="5"/>
    <circle id="Ellipse_355" data-name="Ellipse 355" cx="16.71" cy="16.71" r="16.71" transform="translate(2721.12 2129.93)" fill="none" stroke="#0c0c0c" stroke-miterlimit="10" stroke-width="5"/>
    <circle id="Ellipse_356" data-name="Ellipse 356" cx="206.29" cy="206.29" r="206.29" transform="translate(1408.71 1374.89)" fill="#fff" stroke="#0c0c0c" stroke-miterlimit="10" stroke-width="8"/>
    <path id="Path_1053" data-name="Path 1053" d="M1770.03,1717.11l6.83,78.16-80.26-23.72" fill="#fff" stroke="#0c0c0c" stroke-linecap="round" stroke-miterlimit="10" stroke-width="8"/>
    <g id="Group_141" data-name="Group 141">
      <path id="Path_1054" data-name="Path 1054" d="M1444.95,2746.53c39.79,22.36-5.81,77.08-5.81,109s45.6,27.36,68.4,36.48c9.12,0,27.36,0,26.87,23.19" fill="none" stroke="#0c0c0c" stroke-miterlimit="10" stroke-width="5"/>
      <path id="Path_1055" data-name="Path 1055" d="M1400.59,2775.43c6.92,37.73,50.22,24.34,76.71,32.96,45.52,14.81,20.28,61.88,6.67,90.32-8.14,17-16.25,40.77-1.7,56.89" fill="none" stroke="#0c0c0c" stroke-miterlimit="10" stroke-width="5"/>
      <line id="Line_47" data-name="Line 47" y1="39.43" x2="47.47" transform="translate(1406.41 2750.63)" fill="none" stroke="#0c0c0c" stroke-miterlimit="10" stroke-width="5"/>
      <line id="Line_48" data-name="Line 48" y1="29.65" x2="35.75" transform="translate(1425.03 2772.18)" fill="none" stroke="#0c0c0c" stroke-miterlimit="10" stroke-width="5"/>
      <line id="Line_49" data-name="Line 49" y1="23.72" x2="30.19" transform="translate(1446.04 2808.1)" fill="none" stroke="#0c0c0c" stroke-miterlimit="10" stroke-width="5"/>
      <line id="Line_50" data-name="Line 50" y1="42.44" x2="59.01" transform="translate(1439.8 2824.88)" fill="none" stroke="#0c0c0c" stroke-miterlimit="10" stroke-width="5"/>
      <line id="Line_51" data-name="Line 51" y1="30.2" x2="41.13" transform="translate(1462.4 2853.67)" fill="none" stroke="#0c0c0c" stroke-miterlimit="10" stroke-width="5"/>
      <line id="Line_52" data-name="Line 52" y1="41.85" x2="51.41" transform="translate(1479.9 2906.17)" fill="none" stroke="#0c0c0c" stroke-miterlimit="10" stroke-width="5"/>
      <line id="Line_53" data-name="Line 53" y1="23.57" x2="33.54" transform="translate(1481.18 2891.52)" fill="none" stroke="#0c0c0c" stroke-miterlimit="10" stroke-width="5"/>
    </g>
    <g id="Group_142" data-name="Group 142">
      <path id="Path_1056" data-name="Path 1056" d="M2429.66,3082.19a41.134,41.134,0,0,1,39.45-29.49,41.7,41.7,0,0,1,39.93,31.24" fill="none" stroke="#0c0c0c" stroke-miterlimit="10" stroke-width="5"/>
      <path id="Path_1057" data-name="Path 1057" d="M2464.46,3134.68a41.124,41.124,0,0,1-36.46-40.86" fill="none" stroke="#0c0c0c" stroke-miterlimit="10" stroke-width="5"/>
      <path id="Path_1058" data-name="Path 1058" d="M2510.24,3093.82a41.12,41.12,0,0,1-41.12,41.12" fill="none" stroke="#0c0c0c" stroke-miterlimit="10" stroke-width="5"/>
      <path id="Path_1059" data-name="Path 1059" d="M2512.57,3067.75c12.86-1.65,21.48-.76,22.81,3.08,2.66,7.66-24.85,24.17-61.45,36.87s-68.42,16.78-71.08,9.12c-1.42-4.1,5.78-10.72,18.38-17.94" fill="none" stroke="#0c0c0c" stroke-miterlimit="10" stroke-width="5"/>
    </g>
    <g id="Group_143" data-name="Group 143">
      <path id="Path_1060" data-name="Path 1060" d="M2717.1,2618.21a43.278,43.278,0,0,1-43.21,43.24q-2.1,0-4.11-.18a43.24,43.24,0,1,1,47.32-43.07Z" fill="none" stroke="#0c0c0c" stroke-miterlimit="10" stroke-width="5"/>
      <path id="Path_1061" data-name="Path 1061" d="M2710.16,2626.03a6.69,6.69,0,1,1-6.69-6.69A6.69,6.69,0,0,1,2710.16,2626.03Z" fill="none" stroke="#0c0c0c" stroke-miterlimit="10" stroke-width="5"/>
      <path id="Path_1062" data-name="Path 1062" d="M2649.99,2643.02a10.8,10.8,0,0,1-3.9,8.32,42.79,42.79,0,0,1-12.59-17.65,10.5,10.5,0,0,1,5.58-1.55A10.9,10.9,0,0,1,2649.99,2643.02Z" fill="none" stroke="#0c0c0c" stroke-miterlimit="10" stroke-width="5"/>
      <path id="Path_1063" data-name="Path 1063" d="M2703.48,2649.69a42.954,42.954,0,0,1-29.59,11.76q-2.1,0-4.11-.18a17.579,17.579,0,0,1-.37-3.57,17.966,17.966,0,0,1,34.07-8.01Z" fill="none" stroke="#0c0c0c" stroke-miterlimit="10" stroke-width="5"/>
      <circle id="Ellipse_357" data-name="Ellipse 357" cx="9.95" cy="9.95" r="9.95" transform="translate(2653.45 2581.18)" fill="none" stroke="#0c0c0c" stroke-miterlimit="10" stroke-width="5"/>
      <path id="Path_1064" data-name="Path 1064" d="M2672.61,2619.35a4.6,4.6,0,1,1-4.6-4.6A4.6,4.6,0,0,1,2672.61,2619.35Z" fill="none" stroke="#0c0c0c" stroke-miterlimit="10" stroke-width="5"/>
      <path id="Path_1065" data-name="Path 1065" d="M2708.96,2592.98a11.553,11.553,0,0,1-3.75.58,12.645,12.645,0,0,1-12.65-12.68,13.422,13.422,0,0,1,.09-1.58,43.027,43.027,0,0,1,16.3,13.68Z" fill="none" stroke="#0c0c0c" stroke-miterlimit="10" stroke-width="5"/>
    </g>
    <g id="Group_144" data-name="Group 144">
      <circle id="Ellipse_358" data-name="Ellipse 358" cx="33.8" cy="33.8" r="33.8" transform="translate(2845.165 2299.631) rotate(-80.68)" fill="none" stroke="#0c0c0c" stroke-miterlimit="10" stroke-width="5"/>
      <path id="Path_1066" data-name="Path 1066" d="M2951.62,2315.25a37.5,37.5,0,1,1,8.59-52.33A37.491,37.491,0,0,1,2951.62,2315.25Z" fill="none" stroke="#0c0c0c" stroke-miterlimit="10" stroke-width="5"/>
      <line id="Line_54" data-name="Line 54" x1="15.58" y2="5.56" transform="translate(2899.06 2257.66)" fill="none" stroke="#0c0c0c" stroke-miterlimit="10" stroke-width="5"/>
      <line id="Line_55" data-name="Line 55" x1="22.36" y2="8.08" transform="translate(2894.44 2264.09)" fill="none" stroke="#0c0c0c" stroke-miterlimit="10" stroke-width="5"/>
      <line id="Line_56" data-name="Line 56" x1="24.96" y2="9.6" transform="translate(2892.67 2271.82)" fill="none" stroke="#0c0c0c" stroke-miterlimit="10" stroke-width="5"/>
      <line id="Line_57" data-name="Line 57" x1="22.76" y2="10.4" transform="translate(2893.1 2282.39)" fill="none" stroke="#0c0c0c" stroke-miterlimit="10" stroke-width="5"/>
      <line id="Line_58" data-name="Line 58" x1="17.31" y2="7.18" transform="translate(2894.54 2290.52)" fill="none" stroke="#0c0c0c" stroke-miterlimit="10" stroke-width="5"/>
      <path id="Path_1067" data-name="Path 1067" d="M2900.17,2220.12c-.98-2.94-11.93-5.02-12.47,3.09s11.56,1.37,14.95-2.95c0,0-6.22,8.35-3.58,10" fill="none" stroke="#0c0c0c" stroke-miterlimit="10" stroke-width="5"/>
      <path id="Path_1068" data-name="Path 1068" d="M2960.84,2230.22l-9.73,20.22s4.87-10.11,10.07-9.19c6.41,1.14,2.15,11.63-5.6,7.77" fill="none" stroke="#0c0c0c" stroke-miterlimit="10" stroke-width="5"/>
    </g>
    <g id="Group_145" data-name="Group 145">
      <path id="Path_1069" data-name="Path 1069" d="M1426.69,2226.32c4.36,17.26,2.21-14.52,10.76-53.4s23.18-23.11,23.18-23.11" fill="none" stroke="#0c0c0c" stroke-miterlimit="10" stroke-width="5"/>
      <line id="Line_59" data-name="Line 59" y1="10.98" x2="26.79" transform="translate(1424.01 2175.61)" fill="none" stroke="#0c0c0c" stroke-miterlimit="10" stroke-width="5"/>
      <path id="Path_1070" data-name="Path 1070" d="M1472.96,2162.44s-16.02,33.12,8.13,47.19" fill="none" stroke="#0c0c0c" stroke-miterlimit="10" stroke-width="5"/>
      <path id="Path_1071" data-name="Path 1071" d="M1495.67,2153.12s26.44,14.69,9.87,46.48" fill="none" stroke="#0c0c0c" stroke-miterlimit="10" stroke-width="5"/>
      <line id="Line_60" data-name="Line 60" x2="18.94" y2="13.83" transform="translate(1477.56 2173.65)" fill="none" stroke="#0c0c0c" stroke-miterlimit="10" stroke-width="5"/>
      <line id="Line_61" data-name="Line 61" x1="14.82" y2="23.6" transform="translate(1477.59 2167.56)" fill="none" stroke="#0c0c0c" stroke-miterlimit="10" stroke-width="5"/>
    </g>
    <g id="Group_146" data-name="Group 146">
      <line id="Line_62" data-name="Line 62" x2="20.73" y2="19.61" transform="translate(1247.55 2545.66)" fill="none" stroke="#0c0c0c" stroke-miterlimit="10" stroke-width="5"/>
      <line id="Line_63" data-name="Line 63" x1="17.36" y2="25.94" transform="translate(1250.92 2540.53)" fill="none" stroke="#0c0c0c" stroke-miterlimit="10" stroke-width="5"/>
      <line id="Line_64" data-name="Line 64" y1="7.71" x2="20.74" transform="translate(1288.68 2540.26)" fill="none" stroke="#0c0c0c" stroke-miterlimit="10" stroke-width="5"/>
      <line id="Line_65" data-name="Line 65" x2="12.61" y2="11.16" transform="translate(1319.37 2518.64)" fill="none" stroke="#0c0c0c" stroke-miterlimit="10" stroke-width="5"/>
      <line id="Line_66" data-name="Line 66" x1="15.97" y2="54.82" transform="translate(1325.67 2505.22)" fill="none" stroke="#0c0c0c" stroke-miterlimit="10" stroke-width="5"/>
    </g>
    <path id="Path_1072" data-name="Path 1072" d="M2576.73,2214.9l5.41-12.16-8.76-4.84a27.979,27.979,0,0,0,.18-6.46l8.99-4.38-4.78-12.43-9.61,2.77a27.394,27.394,0,0,0-4.46-4.68l3.27-9.46-12.16-5.41-4.84,8.76a27.979,27.979,0,0,0-6.46-.18l-4.38-8.99-12.43,4.78,2.77,9.61a27.394,27.394,0,0,0-4.68,4.46l-9.46-3.27-5.41,12.16,8.76,4.84a27.979,27.979,0,0,0-.18,6.46l-8.99,4.37,4.78,12.43,9.61-2.77a27.394,27.394,0,0,0,4.46,4.68l-3.27,9.46,12.16,5.41,4.84-8.76a27.979,27.979,0,0,0,6.46.18l4.37,8.99,12.43-4.78-2.77-9.61a27.394,27.394,0,0,0,4.68-4.46l9.46,3.27Zm-36.98-6.8a15.469,15.469,0,1,1,20.42-7.85A15.469,15.469,0,0,1,2539.75,2208.1Z" fill="none" stroke="#0c0c0c" stroke-miterlimit="10" stroke-width="5"/>
    <path id="Path_1073" data-name="Path 1073" d="M2512.1,2277.33l7.35-16.52-11.9-6.57a37.473,37.473,0,0,0,.24-8.78l12.21-5.94-6.49-16.88-13.05,3.77a37.482,37.482,0,0,0-6.05-6.36l4.44-12.85-16.52-7.35-6.57,11.9a37.473,37.473,0,0,0-8.78-.24l-5.94-12.21-16.88,6.49,3.76,13.05a37.482,37.482,0,0,0-6.36,6.05l-12.85-4.44-7.35,16.52,11.9,6.57a37.473,37.473,0,0,0-.24,8.78l-12.21,5.94,6.49,16.88,13.05-3.76a37.482,37.482,0,0,0,6.05,6.36l-4.44,12.85,16.52,7.35,6.57-11.9a37.473,37.473,0,0,0,8.78.24l5.94,12.21,16.88-6.49-3.77-13.05a37.482,37.482,0,0,0,6.36-6.05l12.85,4.44Zm-50.23-9.24a21.014,21.014,0,1,1,27.74-10.66A21.021,21.021,0,0,1,2461.87,2268.09Z" fill="none" stroke="#0c0c0c" stroke-miterlimit="10" stroke-width="5"/>
    <g id="Group_148" data-name="Group 148">
      <g id="Group_147" data-name="Group 147">
        <path id="Path_1074" data-name="Path 1074" d="M1158.48,3897.47c15.21-7.85,33.11-8.87,49.99-6.08,9.07,1.5,18.52,4.21,24.7,11.03s7.34,18.8.25,24.66c-4.22,3.48-10.1,4.01-15.57,3.95-13.22-.15-27.88-2.48-38.44,5.47-6.02,4.54-10.03,12.08-17.24,14.31-7.05,2.18-15-1.98-18.73-8.33s-3.86-14.31-2.12-21.48a32.789,32.789,0,0,1,17.15-23.53Z" fill="#ba6278"/>
        <path id="Path_1075" data-name="Path 1075" d="M1123.64,3830.22c9.3,13.28,27.37,8.88,35.75.78s11.92-19.85,15.14-31.06c7.37-25.6,14.79-52.45,9.32-78.52-1.64-7.79-4.55-15.57-10.03-21.35s-13.9-9.22-21.6-7.19c-9.11,2.41-14.78,11.33-18.87,19.82a187.262,187.262,0,0,0-18.5,80.32c-.05,12.94,1.48,26.51,8.78,37.19" fill="#ba6278"/>
        <path id="Path_1076" data-name="Path 1076" d="M1098.11,3849.27c10.1-11.98,12.01-29.46,7.52-44.47s-14.64-27.78-26.34-38.21a141.905,141.905,0,0,0-47.16-27.83c-6.82-2.4-14.01-4.29-21.21-3.6s-14.44,4.37-17.8,10.77c-4.96,9.47-.2,20.95,4.94,30.32a359.933,359.933,0,0,0,30.98,47.17c9.28,11.97,19.92,23.78,34.07,29.19s28.85,4.77,36.35-5.04" fill="#ba6278"/>
        <path id="Path_1077" data-name="Path 1077" d="M1123.01,4030.55c.17.01.46-2.14.84-6.03.43-4.39.96-9.91,1.6-16.47a240.043,240.043,0,0,1,3.7-24.16,186.048,186.048,0,0,1,8.78-28.51,105.127,105.127,0,0,1,14.56-25.8,54.271,54.271,0,0,1,18.41-15.3,51.605,51.605,0,0,1,15.5-4.83c3.85-.4,6.01-.7,6.01-.87s-2.16-.2-6.11-.09a46.736,46.736,0,0,0-16.16,4.21,54.347,54.347,0,0,0-19.42,15.43c-5.98,7.26-11.03,16.35-15.09,26.32a175.446,175.446,0,0,0-8.72,28.98,204.223,204.223,0,0,0-3.21,24.46c-.52,6.99-.72,12.66-.82,16.57s-.04,6.08.13,6.09Z" fill="#282828"/>
        <path id="Path_1078" data-name="Path 1078" d="M1124.15,4017.88a11.523,11.523,0,0,0,.16-2.8c0-2.1-.01-4.75-.02-8.01-.02-6.95-.02-17,.36-29.42.61-24.84,2.75-51.56,6.88-89.25,3.91-35.43,9.16-76.67,14.7-103.48,1.19-6.1,2.38-11.59,3.51-16.39,1.07-4.82,1.99-8.97,2.88-12.33.76-3.16,1.38-5.74,1.87-7.78a12.266,12.266,0,0,0,.49-2.76,11.685,11.685,0,0,0-.97,2.63c-.61,2.02-1.38,4.55-2.32,7.67-1.03,3.33-2.09,7.45-3.29,12.25-1.26,4.78-2.58,10.26-3.88,16.35-5.48,24.29-11.28,58.25-15.45,96.02-4.14,37.76-6,72.14-6.17,97.04-.15,12.45.12,22.53.43,29.48.2,3.25.36,5.9.49,8a11.6,11.6,0,0,0,.34,2.78Z" fill="#282828"/>
        <path id="Path_1079" data-name="Path 1079" d="M1124.31,3951.56c.17,0,.14-2.98-.06-8.36-.31-5.37-1.05-13.14-2.56-22.66a300.915,300.915,0,0,0-7.37-33.02,270.067,270.067,0,0,0-13.81-39.07c-11.45-27.17-27.01-49.38-40.55-63.14-3.17-3.65-6.71-6.29-9.54-8.87-1.46-1.24-2.76-2.47-4.07-3.45-1.32-.91-2.56-1.76-3.7-2.55-4.46-3.05-6.95-4.65-7.04-4.51-.4.54,9.98,6.65,23.08,20.59,13.05,13.91,28.17,35.97,39.53,62.91a310.352,310.352,0,0,1,13.89,38.71,333.931,333.931,0,0,1,7.84,32.69c1.73,9.42,2.73,17.11,3.33,22.44.5,5.33.85,8.29,1.02,8.29Z" fill="#282828"/>
      </g>
      <path id="Path_1080" data-name="Path 1080" d="M1060.22,4068.54l6.64,91.04h116.95l6.65-91.04Z" fill="#444"/>
      <rect id="Rectangle_359" data-name="Rectangle 359" width="155.49" height="35.88" transform="translate(1048.92 4032.66)" fill="#444"/>
      <path id="Path_1081" data-name="Path 1081" d="M1048.92,4156.09v9.95h152.92v-9.95Z" fill="#282828"/>
      <path id="Path_1082" data-name="Path 1082" d="M1063.39,4183.54l-7.16-17.5h140.04l-8.35,17.5Z" fill="#444"/>
      <path id="Path_1083" data-name="Path 1083" d="M1188.29,4098.29a7.1,7.1,0,0,1-.55.84c-.46.62-1.04,1.38-1.75,2.32-1.66,2.13-3.94,5.05-6.81,8.72l-.3.39-.29-.41c-4.28-5.92-10-13.83-16.74-23.15h.96c-4.98,7.05-10.52,14.9-16.48,23.33l-.52.73-.58-.69c-6.08-7.24-12.69-15.09-19.54-23.25h1.13c-.34.41-.71.87-1.08,1.34-6.06,7.6-11.93,14.95-17.48,21.91l-.58.73-.54-.76c-5.93-8.39-11.48-16.24-16.49-23.33l.96.05c-8.13,9.26-15.02,17.11-20.3,23.13l-.36.41-.28-.46c-2.68-4.5-4.81-8.08-6.36-10.68-.66-1.16-1.2-2.1-1.63-2.84a4.608,4.608,0,0,1-.5-1.01,4.714,4.714,0,0,1,.68.9c.47.72,1.07,1.62,1.81,2.74,1.62,2.55,3.86,6.07,6.67,10.49l-.64-.05c5.2-6.1,11.98-14.05,19.98-23.42l.5-.59.46.64c5.06,7.06,10.65,14.87,16.64,23.22l-1.12-.03c5.53-6.97,11.39-14.33,17.43-21.94.37-.46.74-.92,1.08-1.35l.56-.7.57.68c6.84,8.17,13.42,16.05,19.49,23.3l-1.09.04c6.01-8.39,11.61-16.2,16.64-23.22l.49-.68.48.68c6.59,9.42,12.19,17.41,16.38,23.4l-.6-.02c2.99-3.58,5.36-6.43,7.09-8.5.77-.89,1.39-1.61,1.9-2.2a4.249,4.249,0,0,1,.7-.71Z" fill="#282828"/>
      <path id="Path_1084" data-name="Path 1084" d="M1192.09,4067.94c0,.4-29.3.73-65.44.73s-65.45-.33-65.45-.73,29.3-.73,65.45-.73,65.44.33,65.44.73Z" fill="#282828"/>
      <path id="Path_1085" data-name="Path 1085" d="M1197.99,4167.02c0,.4-31.85.73-71.12.73s-71.13-.33-71.13-.73,31.84-.73,71.13-.73S1197.99,4166.62,1197.99,4167.02Z" fill="#282828"/>
    </g>
    <g id="Group_151" data-name="Group 151">
      <path id="Path_1086" data-name="Path 1086" d="M2742.87,3607.62c72.57-74.27,186.27-105.48,286.59-78.66-87.14,58.43-185.07,89.74-289.98,90.6" fill="#96455b"/>
      <g id="Group_150" data-name="Group 150">
        <path id="Path_1087" data-name="Path 1087" d="M2840.08,3263.4c-11.94-84.45,20.88-179.45,84.11-240.84,2.09,83.7-33.25,177.88-84.11,240.84" fill="#96455b"/>
        <path id="Path_1088" data-name="Path 1088" d="M2789.52,3422.93A450.958,450.958,0,0,1,2996.63,3225c-26.4,97.24-109.56,176.78-207.88,198.82" fill="#96455b"/>
        <path id="Path_1089" data-name="Path 1089" d="M2779.05,3453.71c51.01,1.43,102.63-.36,151.96-13.42s96.58-38.14,129.4-77.21a507.731,507.731,0,0,0-280.59,85.66" fill="#96455b"/>
        <path id="Path_1090" data-name="Path 1090" d="M2804.94,3352.32c-25.89-97.04-68.61-164.16-144.88-218.54a201.834,201.834,0,0,0,144.88,218.54" fill="#96455b"/>
        <path id="Path_1091" data-name="Path 1091" d="M2612.4,3519.67c-1.34-56.39,35.01-111.8,87.26-133.04-4.24,50.11-43.6,108.08-87.26,133.04" fill="#96455b"/>
        <path id="Path_1092" data-name="Path 1092" d="M2588.03,3437.85c-5.8-81.06-63.39-156.06-140.21-182.57,17.62,81.09,64.5,148.59,140.21,182.57" fill="#96455b"/>
        <path id="Path_1093" data-name="Path 1093" d="M2624.75,3583.05c-17.99-25.73-47.34-41.73-77.71-49.68s-62.11-8.65-93.5-9.31c42.34,46.59,105.93,73.07,168.82,70.31" fill="#96455b"/>
        <path id="Path_1094" data-name="Path 1094" d="M2661.21,3789.89a239.491,239.491,0,0,0-292.46,138.54c106.24-20.16,211.07-67.35,292.46-138.54" fill="#96455b"/>
        <path id="Path_1095" data-name="Path 1095" d="M2777.81,3718c-17.65,52.17-14.26,115.22,24.97,160.18,15.96-53.53,6.53-114.05-24.97-160.18" fill="#96455b"/>
        <path id="Path_1096" data-name="Path 1096" d="M2846.72,3689.02c4.91,67.07,47.79,130.08,108.39,159.25,3.01,1.45,6.49,2.84,9.58,1.58,4.78-1.95,5.22-8.47,4.63-13.6-7.68-66.83-57.2-131.47-122.61-147.22" fill="#96455b"/>
        <path id="Path_1097" data-name="Path 1097" d="M2891.73,3682.25a160.953,160.953,0,0,0,235.12,1.2c-74.74-8.18-160.97-13.63-235.11-1.2" fill="#96455b"/>
        <g id="Group_149" data-name="Group 149">
          <path id="Path_1098" data-name="Path 1098" d="M2902.92,3084.8s-.19.76-.68,2.19c-.56,1.55-1.31,3.64-2.28,6.32-2.11,5.67-5.14,13.8-9.02,24.2-4.02,10.47-8.66,23.38-14.04,38.37q-4.065,11.25-8.66,23.99-4.425,12.81-9.33,27.03c-13.24,37.84-27.94,83.27-43.81,133.84-15.58,50.66-31.95,106.6-48.05,165.61-15.89,59.09-29.97,115.65-41.96,167.29-11.65,51.71-21.66,98.4-28.9,137.83q-2.79,14.76-5.3,28.1-2.265,13.35-4.27,25.14c-2.71,15.69-5.02,29.21-6.58,40.31-1.68,10.97-3,19.54-3.92,25.52-.46,2.81-.82,5-1.09,6.63a13.533,13.533,0,0,1-.47,2.25,13.011,13.011,0,0,1,.18-2.28c.2-1.63.47-3.84.81-6.67.79-6,1.93-14.6,3.39-25.61,1.39-11.13,3.55-24.68,6.11-40.41q1.905-11.805,4.06-25.2,2.415-13.335,5.11-28.15c6.99-39.51,16.8-86.27,28.32-138.05,11.85-51.71,25.87-108.33,41.76-167.45,16.11-59.05,32.57-114.99,48.3-165.64,16.02-50.56,30.93-95.94,44.42-133.72q5.01-14.175,9.53-26.98,4.71-12.7,8.87-23.93c5.52-14.95,10.31-27.81,14.5-38.22,4.09-10.32,7.29-18.38,9.52-24.01,1.08-2.63,1.92-4.69,2.54-6.22a12.634,12.634,0,0,1,.96-2.08Z" fill="#1a2e35"/>
          <path id="Path_1099" data-name="Path 1099" d="M2492.42,3298.57s.47.38,1.29,1.21c.91.96,2.09,2.2,3.57,3.76,3.12,3.32,7.64,8.3,13.29,14.87a523.845,523.845,0,0,1,44,58.67,393.934,393.934,0,0,1,46.01,98.43c12.33,39.18,19.98,83.72,27.6,130.27,15.2,93.19,33.84,176.65,47.34,237.02,6.8,30.04,12.32,54.4,16.19,71.47,1.84,8.3,3.28,14.82,4.31,19.45.44,2.11.78,3.78,1.05,5.08a7.944,7.944,0,0,1,.26,1.75,8.35,8.35,0,0,1-.55-1.68c-.34-1.28-.78-2.93-1.33-5.01-1.15-4.6-2.77-11.08-4.83-19.33-4.08-17.01-9.9-41.32-17.07-71.27-14-60.26-32.98-143.72-48.19-237-7.62-46.56-15.17-90.95-27.29-129.96a398.251,398.251,0,0,0-45.2-98.13,564.988,564.988,0,0,0-43.14-59.03c-5.5-6.67-9.89-11.76-12.87-15.2-1.39-1.64-2.5-2.94-3.36-3.95a7.645,7.645,0,0,1-1.07-1.41Z" fill="#1a2e35"/>
          <path id="Path_1100" data-name="Path 1100" d="M2914.06,3679.07a9.641,9.641,0,0,1-2.69.49l-7.74.85q-2.58.255-5.59.55-3.09.465-6.61.99c-4.74.7-10.15,1.4-16.04,2.71q-4.455.885-9.28,1.85-4.8,1.215-9.94,2.52c-6.92,1.56-14.06,4.09-21.68,6.39a318.914,318.914,0,0,0-47.32,20.85,267.074,267.074,0,0,0-42.43,29.47c-5.89,5.34-11.58,10.33-16.28,15.63a170.385,170.385,0,0,0-12.88,14.86c-3.97,4.54-6.74,9.26-9.54,13.14a97.3,97.3,0,0,0-6.53,10.39c-1.58,2.67-2.89,4.88-3.96,6.69a9.785,9.785,0,0,1-1.56,2.25,9.416,9.416,0,0,1,1.05-2.51c.95-1.89,2.11-4.19,3.51-6.98a85.87,85.87,0,0,1,6.16-10.71c2.69-4,5.37-8.84,9.28-13.51a161.97,161.97,0,0,1,12.75-15.25c4.68-5.43,10.36-10.54,16.28-15.99a257.645,257.645,0,0,1,42.77-29.98,305.626,305.626,0,0,1,47.87-20.85c7.71-2.25,14.94-4.72,21.94-6.19q5.2-1.23,10.05-2.37,4.875-.87,9.38-1.68c5.95-1.19,11.42-1.75,16.21-2.3,2.37-.27,4.59-.53,6.67-.76q3.03-.165,5.64-.3c3.11-.13,5.69-.23,7.8-.32a9.813,9.813,0,0,1,2.72.08Z" fill="#1a2e35"/>
        </g>
        <path id="Path_1101" data-name="Path 1101" d="M2935.34,3300.36c.13.15-1.79,1.99-5.38,5.19-4.05,3.52-9.21,7.99-15.38,13.34-13.07,11.17-31.25,26.45-51.45,43.2s-38.59,31.79-51.99,42.56c-6.4,5.07-11.75,9.31-15.96,12.64-3.81,2.94-5.97,4.48-6.09,4.33s1.81-2,5.4-5.2c4.05-3.52,9.22-7.99,15.38-13.34,13.07-11.17,31.24-26.45,51.44-43.19s38.56-31.77,51.96-42.54c6.4-5.07,11.76-9.31,15.97-12.65,3.81-2.94,5.98-4.49,6.11-4.34Z" fill="#1a2e35"/>
        <path id="Path_1102" data-name="Path 1102" d="M2953.72,3399.22c.22.76-39.02,13.02-87.64,27.38s-88.23,25.4-88.45,24.64,39.01-13.02,87.64-27.38,88.22-25.4,88.44-24.64Z" fill="#1a2e35"/>
        <path id="Path_1103" data-name="Path 1103" d="M2808.82,3359.87c-.17.1-1.6-1.91-4.05-5.64-2.76-4.21-6.23-9.49-10.34-15.76-8.77-13.27-21.23-31.38-35.96-50.66-14.75-19.27-28.94-36.06-39.4-48.05-4.95-5.65-9.11-10.39-12.42-14.18-2.93-3.36-4.48-5.28-4.34-5.41s1.97,1.53,5.15,4.65,7.68,7.75,13.12,13.59c10.87,11.67,25.36,28.32,40.17,47.67,14.78,19.36,27.03,37.72,35.39,51.31,4.18,6.79,7.45,12.36,9.59,16.27,2.16,3.91,3.27,6.11,3.1,6.21Z" fill="#1a2e35"/>
        <path id="Path_1104" data-name="Path 1104" d="M2672.55,3414.74c.34.24-3.35,5.92-9.21,15.14s-13.82,22.03-22.06,36.5-15.18,27.87-20.11,37.62-7.93,15.82-8.31,15.65c-.34-.15,2.01-6.51,6.49-16.52s11.18-23.61,19.45-38.16,16.55-27.25,22.86-36.21,10.59-14.23,10.89-14.02Z" fill="#1a2e35"/>
        <path id="Path_1105" data-name="Path 1105" d="M2625.92,3585.75c-.2.39-7.69-3.27-19.94-8.78s-29.36-12.72-48.69-19.5c-19.35-6.76-37.21-11.8-50.23-15.12s-21.15-5.14-21.06-5.57c.04-.19,2.11.03,5.84.61,3.73.56,9.1,1.57,15.69,2.99a438.332,438.332,0,0,1,99.32,34.76c6.04,3,10.87,5.55,14.13,7.45,3.27,1.87,5.04,2.99,4.95,3.17Z" fill="#1a2e35"/>
        <path id="Path_1106" data-name="Path 1106" d="M2662.63,3790.2a8.338,8.338,0,0,1-2.42.82c-1.94.49-4.27,1.09-7.06,1.8-6.62,1.53-15.42,3.56-26.1,6.02-22,5.11-52.65,11.5-85.24,22.5-32.6,11.1-60.56,25.21-79.53,37.36-9.5,6.05-16.91,11.4-21.91,15.25-5.02,3.83-7.75,6.01-7.9,5.84-.06-.07.54-.71,1.76-1.86,1.23-1.12,2.99-2.85,5.45-4.85a227.786,227.786,0,0,1,21.5-16.08c18.82-12.68,46.9-27.21,79.7-38.37,32.85-11.08,63.62-17.16,85.75-21.77,10.75-2.1,19.63-3.83,26.29-5.14,6.22-1.16,9.67-1.73,9.72-1.53Z" fill="#1a2e35"/>
        <path id="Path_1107" data-name="Path 1107" d="M2795.36,3840.59c-.78.11-5.45-27.41-10.44-61.47s-8.39-61.78-7.61-61.89,5.45,27.4,10.44,61.48C2792.73,3812.77,2796.14,3840.48,2795.36,3840.59Z" fill="#1a2e35"/>
        <path id="Path_1108" data-name="Path 1108" d="M2933.55,3790.41c-.33.24-4.98-5.5-12.45-14.79s-17.82-22.11-29.51-36.03c-11.71-13.92-22.54-26.32-30.42-35.28s-12.72-14.53-12.42-14.81c.14-.14,1.54,1.08,3.96,3.39s5.82,5.74,9.95,10.06c8.27,8.63,19.38,20.85,31.11,34.81s21.85,27.01,28.93,36.64c3.54,4.81,6.34,8.76,8.19,11.54s2.82,4.37,2.66,4.48Z" fill="#1a2e35"/>
      </g>
      <path id="Path_1109" data-name="Path 1109" d="M2567.84,3918.58v68.28h17.07l60.7,191.58h134.6l58.8-189.68,22.76-1.9v-68.28Z" fill="#444"/>
      <path id="Path_1110" data-name="Path 1110" d="M2850.39,3988.76c0,.79-59.43,1.43-132.73,1.43s-132.74-.64-132.74-1.43,59.42-1.43,132.74-1.43S2850.39,3987.97,2850.39,3988.76Z" fill="#282828"/>
      <path id="Path_1111" data-name="Path 1111" d="M2947.2,3549.54c.04.19-3.04,1.01-8.63,2.33-6.06,1.46-14.02,3.38-23.63,5.69-19.91,4.93-47.25,12.42-76.91,22.38-29.66,9.99-55.97,20.55-74.82,28.65-9.05,3.96-16.55,7.24-22.26,9.74-5.25,2.33-8.19,3.53-8.28,3.35s2.69-1.72,7.8-4.36c5.1-2.66,12.58-6.29,21.93-10.58a775.646,775.646,0,0,1,152.08-51.15c10.04-2.23,18.2-3.86,23.87-4.82,5.67-.98,8.81-1.44,8.85-1.24Z" fill="#1a2e35"/>
      <path id="Path_1112" data-name="Path 1112" d="M2805.7,4095.14c0,.79-41.7,1.43-93.12,1.43s-93.13-.64-93.13-1.43,41.69-1.43,93.13-1.43S2805.7,4094.35,2805.7,4095.14Z" fill="#fafafa"/>
      <path id="Path_1113" data-name="Path 1113" d="M2810.94,4079.31c0,.79-44.19,1.43-98.69,1.43s-98.7-.64-98.7-1.43,44.18-1.43,98.7-1.43S2810.94,4078.52,2810.94,4079.31Z" fill="#fafafa"/>
    </g>
    <g id="Group_153" data-name="Group 153">
      <path id="Path_1114" data-name="Path 1114" d="M1756.59,1529.09c-7.32,5.2-17.25,3.81-22.17-3.11l-71.23-100.26c-4.92-6.93-2.97-16.76,4.35-21.96s17.26-3.81,22.18,3.11l71.23,100.26C1765.87,1514.06,1763.92,1523.88,1756.59,1529.09Z" fill="#f4aa89"/>
      <g id="Group_152" data-name="Group 152">
        <path id="Path_1115" data-name="Path 1115" d="M1807.23,1665.81c-.03-.61-.04-1.23-.02-1.85a1.228,1.228,0,0,1,.02-.27l.9-6.72c.02-.1.05-.19.08-.29a24.905,24.905,0,0,1,2.76-6.41c.17-.26.32-.49.48-.72.18-.33.35-.67.54-1,.95-1.23,1.91-2.47,2.86-3.7.4-3.05.8-6.09,1.19-9.14l-22.83-32.4-32.27-81-49.39-6.71-49.28,62.98,77.02,58.8,42.9,61.25,10.43-7.41a15.471,15.471,0,0,1,2.07-4.1c2.72-3.67,5.24-7.45,7.66-11.31A23.869,23.869,0,0,1,1807.23,1665.81Z" fill="#f6bc9f"/>
        <path id="Path_1116" data-name="Path 1116" d="M1807.23,1665.81c-.03-.61-.04-1.23-.02-1.85a1.228,1.228,0,0,1,.02-.27c.08-.63.17-1.26.25-1.89l-20.84,14.81-34.02-48.58a14.387,14.387,0,0,0-3.1-3.23l-64.99-49.61,33.46-42.77,31.18,4.24,29.11,73.02a14.681,14.681,0,0,0,1.63,2.99l29.17,41.42a21.029,21.029,0,0,1,1.88-3.84c.17-.26.32-.49.48-.72.18-.33.35-.67.54-1l2.88-3.72c.56-4.26,1.12-8.52,1.65-12.79.77-6.14,2.15-11.15,5.69-15.83l-14.71-20.88-31.65-79.4a14.818,14.818,0,0,0-11.9-9.16l-49.39-6.71a16.918,16.918,0,0,0-15.49,6.41l-49.27,62.97c-5.44,6.95-4.43,16.59,2.25,21.7l75.22,57.42,41.61,59.4a14.881,14.881,0,0,0,9.18,5.98c.88-8.19,6.43-15.31,13.66-19.11a18.263,18.263,0,0,1,2.98-7.71c2.72-3.67,5.24-7.45,7.66-11.31a23.869,23.869,0,0,1,4.88-10Z" fill="#f6bc9f"/>
      </g>
      <path id="Path_1117" data-name="Path 1117" d="M1731.94,1579.03a16.467,16.467,0,0,1-15.92,1.92l-54.75-23.28c-7.93-3.37-11.22-12.58-7.35-20.56s13.43-11.71,21.35-8.33l54.75,23.28c7.94,3.37,11.23,12.58,7.36,20.55a16.887,16.887,0,0,1-5.44,6.42Z" fill="#f4aa89"/>
      <path id="Path_1118" data-name="Path 1118" d="M1719.12,1601.97a16.549,16.549,0,0,1-14.87,2.32l-48.27-16.47a14.863,14.863,0,0,1-8.87-19.9,16.875,16.875,0,0,1,20.78-9.79l48.27,16.46a14.854,14.854,0,0,1,8.88,19.9,16.94,16.94,0,0,1-5.91,7.48Z" fill="#f4aa89"/>
      <path id="Path_1119" data-name="Path 1119" d="M1743.97,1558.94a16.318,16.318,0,0,1-17.91.88l-120.73-74.22c-7.29-4.49-9.17-14.13-4.21-21.54s14.9-9.78,22.2-5.29l120.74,74.22c7.28,4.49,9.18,14.13,4.21,21.54a16.919,16.919,0,0,1-4.3,4.42Z" fill="#f4aa89"/>
      <path id="Path_1120" data-name="Path 1120" d="M1794.02,1592.47a17.391,17.391,0,0,1-4.31,2.22c-8.44,2.94-17.36-1.27-19.91-9.42l-15.09-48.2-43.57-8.64a14.793,14.793,0,0,1-11.51-18.46,16.936,16.936,0,0,1,19.44-12.31l52.28,10.38a14.775,14.775,0,0,1,11.34,10.05l17.68,56.52a16.2,16.2,0,0,1-6.37,17.86Z" fill="#f6bc9f"/>
      <path id="Path_1121" data-name="Path 1121" d="M1755.72,1618.08a7.131,7.131,0,0,1-8.07.24c-.4-.28-40.06-27.85-9.23-74.78a7.278,7.278,0,0,1,9.69-2.41,6.628,6.628,0,0,1,1.94,9.41c-23.54,35.84,4.73,55.52,5.94,56.34a6.656,6.656,0,0,1,1.44,9.51,7.491,7.491,0,0,1-1.72,1.7Z" fill="#f4aa89"/>
    </g>
    <g id="Group_156" data-name="Group 156">
      <path id="Path_1122" data-name="Path 1122" d="M1477.24,1618.63a15.319,15.319,0,0,1-15.11-12.91c-9.9-62.13,13.97-92.78,35.74-107.55,31.17-21.16,74.33-19.8,87.43-12.02a15.32,15.32,0,0,1-15.03,26.69c-5.56-1.87-37.32-4.1-58.97,13.48-18.09,14.69-24.45,39.78-18.91,74.58a15.316,15.316,0,0,1-15.15,17.73Z" fill="#f4aa89"/>
      <path id="Path_1123" data-name="Path 1123" d="M1476.85,1592.52a15.337,15.337,0,0,1-15.13-12.99c-4.59-29.85,1.21-54.46,17.22-73.14,28.28-32.97,77.9-33.35,80-33.35a15.32,15.32,0,0,1,.04,30.64c-.64,0-37.95.57-56.88,22.76-9.87,11.57-13.27,27.86-10.1,48.42a15.314,15.314,0,0,1-12.81,17.47,15.6,15.6,0,0,1-2.35.18Z" fill="#f4aa89"/>
      <g id="Group_154" data-name="Group 154">
        <path id="Path_1124" data-name="Path 1124" d="M1482.98,1565.19l-7.38,8.73-6.67,58.93-24.11,70.44c5.74,5.17,10.26,11.55,14.86,17.76,2.88,2.29,5.76,4.59,8.59,6.93h40.87l23.12-70.23,39.39-37.36s-65.11,37.75-88.69-55.2Z" fill="#f6bc9f"/>
        <path id="Path_1125" data-name="Path 1125" d="M1583.94,1611.22a15.317,15.317,0,0,0-19.95-4.08,50.653,50.653,0,0,1-21.95,5.52c-20.71,0-35.58-17.24-44.2-51.23a15.327,15.327,0,0,0-26.56-6.12l-7.38,8.73a15.358,15.358,0,0,0-3.52,8.16l-6.48,57.28-19.68,57.51a26.557,26.557,0,0,1,10.59,16.28c5.76,5.17,10.27,11.57,14.88,17.78,8.85,7.02,17.6,14.2,25.5,22.26h23.97a15.329,15.329,0,0,0,14.55-10.53l21.92-66.57,36.59-34.7a15.309,15.309,0,0,0,1.72-20.29Zm-62.2,35.42a15.291,15.291,0,0,0-4.01,6.32l-19.66,59.71h-40.24l25.61-74.85a14.475,14.475,0,0,0,.73-3.24l2.51-22.15c12.55,18.24,27.55,26.07,40.42,29.13l-5.35,5.08Z" fill="#f6bc9f"/>
      </g>
      <path id="Path_1126" data-name="Path 1126" d="M1497.9,1616.32a15.309,15.309,0,0,1-11.84-5.59l-22.28-27.08a15.309,15.309,0,0,1-3.14-12.99c6.06-27.78,19.82-48.07,40.88-60.31a86.64,86.64,0,0,1,18.18-7.88c.43-.14.87-.28,1.31-.39,34.86-10.16,70.73.79,72.51,1.35a15.319,15.319,0,0,1-9.12,29.25c-.44-.14-28.5-8.53-53.89-1.47-16.61,8.83-24.61,21.31-24.47,38.12a64.173,64.173,0,0,0,5.55,24.82,15.319,15.319,0,0,1-13.7,22.17Z" fill="#f6bc9f"/>
      <g id="Group_155" data-name="Group 155">
        <path id="Path_1127" data-name="Path 1127" d="M1595.15,1599.91s-24.71,32.97-60.27,29.51" fill="#f6bc9f"/>
        <path id="Path_1128" data-name="Path 1128" d="M1540.16,1644.99a67.656,67.656,0,0,1-6.76-.33,15.317,15.317,0,1,1,2.96-30.49c26.23,2.54,46.33-23.19,46.53-23.44a15.318,15.318,0,1,1,24.51,18.38c-1.15,1.55-27.39,35.89-67.24,35.89Z" fill="#f6bc9f"/>
      </g>
    </g>
    <circle id="Ellipse_359" data-name="Ellipse 359" cx="206.29" cy="206.29" r="206.29" transform="translate(1408.71 1373.52)" fill="none" stroke="#0c0c0c" stroke-miterlimit="10" stroke-width="8"/>
  </g>
</svg>
