<svg xmlns="http://www.w3.org/2000/svg" width="284.573" height="198.878" viewBox="0 0 284.573 198.878">
  <g id="Group_131" data-name="Group 131" transform="translate(-69.665 -197.682)">
    <g id="Group_13" data-name="Group 13" transform="translate(-6.335 6.204)">
      <path id="Path_116" data-name="Path 116" d="M291.134,95.5l-9.515,6.033,5.775-10.5a9.4,9.4,0,0,0-5.757-2.054h-.153a11.133,11.133,0,0,1-1.974-.147l-3.225,2.042,1.386-2.514a11.416,11.416,0,0,1-5.64-4.292l-5.775,3.679,3.648-6.628c-3.378-4.053-7.927-6.536-12.93-6.536-6,0-11.348,3.568-14.8,9.129a11.036,11.036,0,0,1-9.809,5.273h-.325c-6.627,0-12,7.51-12,16.78s5.371,16.78,12,16.78a9.03,9.03,0,0,0,4.181-1.048,17.283,17.283,0,0,1,14.518-.282,15.119,15.119,0,0,0,12.348,0,17.32,17.32,0,0,1,14.4.282,8.982,8.982,0,0,0,4.132,1.024c6.628,0,12-7.516,12-16.78A21.281,21.281,0,0,0,291.134,95.5Z" transform="translate(66.96 148.328)" fill="#f2f2f2"/>
      <path id="Path_117" data-name="Path 117" d="M273.222,133.85a17.712,17.712,0,0,0-10.263,1.116,15.149,15.149,0,0,1-12.348,0,17.3,17.3,0,0,0-14.518.288,9.043,9.043,0,0,1-4.181,1.042c-5.886,0-10.784-5.929-11.8-13.752a11.453,11.453,0,0,0,2.943-3.17c3.452-5.567,8.8-9.135,14.8-9.135s11.281,3.525,14.714,9.031a11.348,11.348,0,0,0,9.779,5.34h.153C267.189,124.611,271.248,128.369,273.222,133.85Z" transform="translate(66.933 134.53)" opacity="0.03"/>
    </g>
    <g id="Group_32" data-name="Group 32" transform="translate(-217.335 38.204)">
      <path id="Path_116-2" data-name="Path 116" d="M291.134,95.5l-9.515,6.033,5.775-10.5a9.4,9.4,0,0,0-5.757-2.054h-.153a11.133,11.133,0,0,1-1.974-.147l-3.225,2.042,1.386-2.514a11.416,11.416,0,0,1-5.64-4.292l-5.775,3.679,3.648-6.628c-3.378-4.053-7.927-6.536-12.93-6.536-6,0-11.348,3.568-14.8,9.129a11.036,11.036,0,0,1-9.809,5.273h-.325c-6.627,0-12,7.51-12,16.78s5.371,16.78,12,16.78a9.03,9.03,0,0,0,4.181-1.048,17.283,17.283,0,0,1,14.518-.282,15.119,15.119,0,0,0,12.348,0,17.32,17.32,0,0,1,14.4.282,8.982,8.982,0,0,0,4.132,1.024c6.628,0,12-7.516,12-16.78A21.281,21.281,0,0,0,291.134,95.5Z" transform="translate(66.96 148.328)" fill="#f2f2f2"/>
      <path id="Path_117-2" data-name="Path 117" d="M273.222,133.85a17.712,17.712,0,0,0-10.263,1.116,15.149,15.149,0,0,1-12.348,0,17.3,17.3,0,0,0-14.518.288,9.043,9.043,0,0,1-4.181,1.042c-5.886,0-10.784-5.929-11.8-13.752a11.453,11.453,0,0,0,2.943-3.17c3.452-5.567,8.8-9.135,14.8-9.135s11.281,3.525,14.714,9.031a11.348,11.348,0,0,0,9.779,5.34h.153C267.189,124.611,271.248,128.369,273.222,133.85Z" transform="translate(66.933 134.53)" opacity="0.03"/>
    </g>
    <g id="Group_33" data-name="Group 33" transform="translate(-137.335 -25.225)">
      <path id="Path_116-3" data-name="Path 116" d="M266.572,88.272l-6.228,3.949,3.78-6.874A6.156,6.156,0,0,0,260.356,84h-.1a7.287,7.287,0,0,1-1.292-.1l-2.111,1.336.907-1.645a7.472,7.472,0,0,1-3.692-2.809l-3.78,2.408,2.388-4.338a11.058,11.058,0,0,0-8.463-4.278c-3.928,0-7.428,2.335-9.687,5.975a7.223,7.223,0,0,1-6.42,3.451h-.213c-4.338,0-7.853,4.916-7.853,10.983s3.515,10.983,7.853,10.983a5.911,5.911,0,0,0,2.737-.686,11.312,11.312,0,0,1,9.5-.185,9.9,9.9,0,0,0,8.082,0,11.336,11.336,0,0,1,9.422.185,5.879,5.879,0,0,0,2.7.67c4.338,0,7.853-4.92,7.853-10.983A13.929,13.929,0,0,0,266.572,88.272Z" transform="translate(66.96 148.328)" fill="#f2f2f2"/>
      <path id="Path_117-3" data-name="Path 117" d="M254.873,125.693a11.593,11.593,0,0,0-6.717.73,9.915,9.915,0,0,1-8.082,0,11.324,11.324,0,0,0-9.5.189,5.919,5.919,0,0,1-2.737.682c-3.852,0-7.058-3.88-7.725-9a7.5,7.5,0,0,0,1.926-2.075c2.259-3.644,5.758-5.979,9.687-5.979s7.383,2.307,9.631,5.911a7.428,7.428,0,0,0,6.4,3.5h.1C250.924,119.646,253.58,122.106,254.873,125.693Z" transform="translate(66.918 126.977)" opacity="0.03"/>
    </g>
    <g id="undraw_content_team_3epn" transform="translate(91.679 248.735)">
      <path id="Path_259" data-name="Path 259" d="M436.474,690.689h-198.8a6.666,6.666,0,0,1-6.666-6.666h0q108.1-12.563,212.131,0h0a6.666,6.666,0,0,1-6.666,6.666Z" transform="translate(-214.143 -542.863)" fill="#ccc"/>
      <path id="Path_260" data-name="Path 260" d="M443.14,315.444l-212.131-.392,24.585-41.368.118-.2V182.319a8.426,8.426,0,0,1,8.427-8.426h144.7a8.426,8.426,0,0,1,8.426,8.427v91.8Z" transform="translate(-214.143 -173.893)" fill="#e6e6e6"/>
      <path id="Path_261" data-name="Path 261" d="M346.54,195.864a2.748,2.748,0,0,0-2.745,2.745v83.127a2.748,2.748,0,0,0,2.745,2.745H492.8a2.748,2.748,0,0,0,2.745-2.745V198.609a2.748,2.748,0,0,0-2.745-2.745Z" transform="translate(-296.738 -189.982)" fill="#fff"/>
      <path id="Path_262" data-name="Path 262" d="M333.7,567.913a1.18,1.18,0,0,0-1.069.685l-7.576,16.469a1.176,1.176,0,0,0,1.069,1.668H485.43a1.176,1.176,0,0,0,1.052-1.7l-8.234-16.469a1.171,1.171,0,0,0-1.052-.65Z" transform="translate(-282.934 -462.436)" fill="#ccc"/>
      <circle id="Ellipse_199" data-name="Ellipse 199" cx="1.764" cy="1.764" r="1.764" transform="translate(120.578 0.98)" fill="#fff"/>
      <path id="Path_263" data-name="Path 263" d="M558.118,649.94a1.178,1.178,0,0,0-1.136.87l-1.9,7.058a1.176,1.176,0,0,0,1.136,1.482h36.138a1.176,1.176,0,0,0,1.111-1.561l-2.443-7.058a1.177,1.177,0,0,0-1.112-.792Z" transform="translate(-451.435 -522.504)" fill="#ccc"/>
      <path id="Path_264" data-name="Path 264" d="M323.836,366.922v1.569H162.169l.122-.2v-1.372Z" transform="translate(-120.719 -268.699)" fill="#ccc"/>
      <path id="Path_265" data-name="Path 265" d="M850.178,554.237a.287.287,0,0,0-.277.212l-.463,1.719a.286.286,0,0,0,.276.361h8.8a.286.286,0,0,0,.271-.38l-.595-1.719a.287.287,0,0,0-.271-.193Z" transform="translate(-667.015 -452.42)" fill="#ccc"/>
      <path id="Path_266" data-name="Path 266" d="M802.178,554.237a.287.287,0,0,0-.277.212l-.463,1.719a.286.286,0,0,0,.277.361h8.8a.286.286,0,0,0,.271-.38l-.595-1.719a.287.287,0,0,0-.271-.193Z" transform="translate(-631.865 -452.42)" fill="#ccc"/>
      <path id="Path_267" data-name="Path 267" d="M613.59,342.835h.69L612.9,250.644h-.69l.028,1.839H596.779l.027-1.839h-.69l-1.379,92.191h.69l.089-5.977H613.5Zm-.994-66.442H596.422l.169-11.265h15.837Zm.01.69.169,11.265H596.243l.169-11.265Zm.179,11.955.169,11.265h-16.89l.169-11.265Zm.179,11.955.169,11.265H595.885l.169-11.265Zm.179,11.955.169,11.265H595.706l.169-11.265Zm-.894-59.775.169,11.265H596.6l.169-11.265Zm-16.721,82.995L595.7,324.9h17.626l.169,11.265Z" transform="translate(-480.504 -230.098)" fill="#3f3d56"/>
      <circle id="Ellipse_200" data-name="Ellipse 200" cx="11.247" cy="11.247" r="11.247" transform="translate(109.341 29.807)" fill="#2f2e41"/>
      <rect id="Rectangle_48" data-name="Rectangle 48" width="3.417" height="6.122" transform="translate(123.841 49.435) rotate(-10.261)" fill="#2f2e41"/>
      <rect id="Rectangle_49" data-name="Rectangle 49" width="3.417" height="6.122" transform="translate(117.117 50.652) rotate(-10.261)" fill="#2f2e41"/>
      <ellipse id="Ellipse_201" data-name="Ellipse 201" cx="2.847" cy="1.068" rx="2.847" ry="1.068" transform="matrix(0.763, -0.646, 0.646, 0.763, 116.44, 58.153)" fill="#2f2e41"/>
      <ellipse id="Ellipse_202" data-name="Ellipse 202" cx="2.847" cy="1.068" rx="2.847" ry="1.068" transform="matrix(0.763, -0.646, 0.646, 0.763, 123.024, 56.962)" fill="#2f2e41"/>
      <circle id="Ellipse_203" data-name="Ellipse 203" cx="3.844" cy="3.844" r="3.844" transform="translate(115.957 34.458)" fill="#fff"/>
      <circle id="Ellipse_204" data-name="Ellipse 204" cx="1.281" cy="1.281" r="1.281" transform="translate(116.939 35.643)" fill="#3f3d56"/>
      <path id="Path_268" data-name="Path 268" d="M606.072,259.976c.169-4.164-3.419-7.69-8.015-7.877s-8.458,3.037-8.628,7.2,3.026,5.11,7.621,5.3S605.9,264.14,606.072,259.976Z" transform="translate(-476.612 -231.158)" fill="#b46576"/>
      <ellipse id="Ellipse_205" data-name="Ellipse 205" cx="1.765" cy="5.623" rx="1.765" ry="5.623" transform="matrix(0.223, -0.975, 0.975, 0.223, 104.327, 39.469)" fill="#2f2e41"/>
      <ellipse id="Ellipse_206" data-name="Ellipse 206" cx="1.765" cy="5.623" rx="1.765" ry="5.623" transform="matrix(0.223, -0.975, 0.975, 0.223, 126.404, 43.14)" fill="#2f2e41"/>
      <path id="Path_269" data-name="Path 269" d="M616.117,340.152a2.562,2.562,0,1,1-5.042.918v0c-.252-1.393.825-1.885,2.217-2.137S615.865,338.759,616.117,340.152Z" transform="translate(-492.44 -294.667)" fill="#fff"/>
      <ellipse id="Ellipse_207" data-name="Ellipse 207" cx="5.764" cy="1.81" rx="5.764" ry="1.81" transform="matrix(0.357, -0.934, 0.934, 0.357, 77.057, 83.343)" fill="#2f2e41"/>
      <circle id="Ellipse_208" data-name="Ellipse 208" cx="11.529" cy="11.529" r="11.529" transform="translate(56.923 96.843) rotate(-80.783)" fill="#2f2e41"/>
      <rect id="Rectangle_50" data-name="Rectangle 50" width="3.502" height="6.275" transform="translate(64.896 96.358)" fill="#2f2e41"/>
      <rect id="Rectangle_51" data-name="Rectangle 51" width="3.502" height="6.275" transform="translate(71.901 96.358)" fill="#2f2e41"/>
      <ellipse id="Ellipse_209" data-name="Ellipse 209" cx="2.919" cy="1.095" rx="2.919" ry="1.095" transform="translate(64.896 101.612)" fill="#2f2e41"/>
      <ellipse id="Ellipse_210" data-name="Ellipse 210" cx="2.919" cy="1.095" rx="2.919" ry="1.095" transform="translate(71.901 101.466)" fill="#2f2e41"/>
      <path id="Path_270" data-name="Path 270" d="M387.816,433.634c-.931-4.169,2.045-8.382,6.647-9.409s9.087,1.519,10.018,5.688-2.119,5.707-6.72,6.734S388.747,437.8,387.816,433.634Z" transform="translate(-328.849 -357.046)" fill="#b46576"/>
      <ellipse id="Ellipse_211" data-name="Ellipse 211" cx="1.81" cy="5.764" rx="1.81" ry="5.764" transform="translate(51.181 81.126) rotate(-64.626)" fill="#2f2e41"/>
      <circle id="Ellipse_212" data-name="Ellipse 212" cx="11.529" cy="11.529" r="11.529" transform="translate(8.701 87.455)" fill="#2f2e41"/>
      <rect id="Rectangle_52" data-name="Rectangle 52" width="3.502" height="6.275" transform="translate(14.977 108.032)" fill="#2f2e41"/>
      <rect id="Rectangle_53" data-name="Rectangle 53" width="3.502" height="6.275" transform="translate(21.982 108.032)" fill="#2f2e41"/>
      <ellipse id="Ellipse_213" data-name="Ellipse 213" cx="2.919" cy="1.095" rx="2.919" ry="1.095" transform="translate(14.977 113.286)" fill="#2f2e41"/>
      <ellipse id="Ellipse_214" data-name="Ellipse 214" cx="2.919" cy="1.095" rx="2.919" ry="1.095" transform="translate(21.982 113.14)" fill="#2f2e41"/>
      <circle id="Ellipse_215" data-name="Ellipse 215" cx="3.94" cy="3.94" r="3.94" transform="translate(16.582 92.125)" fill="#fff"/>
      <circle id="Ellipse_216" data-name="Ellipse 216" cx="1.313" cy="1.313" r="1.313" transform="translate(19.209 94.752)" fill="#3f3d56"/>
      <path id="Path_271" data-name="Path 271" d="M201.338,477.242c-.931-4.169,2.045-8.382,6.647-9.409s9.087,1.519,10.018,5.688-2.119,5.707-6.72,6.734S202.268,481.411,201.338,477.242Z" transform="translate(-192.291 -388.98)" fill="#e6e6e6"/>
      <ellipse id="Ellipse_217" data-name="Ellipse 217" cx="5.764" cy="1.81" rx="5.764" ry="1.81" transform="matrix(0.357, -0.934, 0.934, 0.357, 23.198, 61.889)" fill="#2f2e41"/>
      <circle id="Ellipse_218" data-name="Ellipse 218" cx="11.529" cy="11.529" r="11.529" transform="translate(3.063 75.389) rotate(-80.783)" fill="#2f2e41"/>
      <rect id="Rectangle_54" data-name="Rectangle 54" width="3.502" height="6.275" transform="translate(11.036 74.905)" fill="#2f2e41"/>
      <rect id="Rectangle_55" data-name="Rectangle 55" width="3.502" height="6.275" transform="translate(18.041 74.905)" fill="#2f2e41"/>
      <ellipse id="Ellipse_219" data-name="Ellipse 219" cx="2.919" cy="1.095" rx="2.919" ry="1.095" transform="translate(11.036 80.158)" fill="#2f2e41"/>
      <ellipse id="Ellipse_220" data-name="Ellipse 220" cx="2.919" cy="1.095" rx="2.919" ry="1.095" transform="translate(18.041 80.012)" fill="#2f2e41"/>
      <circle id="Ellipse_221" data-name="Ellipse 221" cx="3.94" cy="3.94" r="3.94" transform="translate(12.642 58.998)" fill="#fff"/>
      <circle id="Ellipse_222" data-name="Ellipse 222" cx="1.313" cy="1.313" r="1.313" transform="translate(15.269 61.624)" fill="#3f3d56"/>
      <path id="Path_272" data-name="Path 272" d="M186.618,353.491c-.931-4.169,2.045-8.382,6.646-9.409s9.087,1.519,10.018,5.688-2.119,5.707-6.72,6.734S187.549,357.66,186.618,353.491Z" transform="translate(-181.512 -298.357)" fill="#b46576"/>
      <ellipse id="Ellipse_223" data-name="Ellipse 223" cx="1.81" cy="5.764" rx="1.81" ry="5.764" transform="translate(-2.679 59.672) rotate(-64.626)" fill="#2f2e41"/>
      <path id="Path_273" data-name="Path 273" d="M207.707,431.615c0,1.128,2.905,3.357,6.129,3.357s6.247-3.177,6.247-4.305-3.023.219-6.247.219S207.707,430.487,207.707,431.615Z" transform="translate(-197.08 -361.6)" fill="#fff"/>
      <path id="Path_274" data-name="Path 274" d="M269.007,255.461a.8.8,0,0,0-.8.8v33.194a.8.8,0,0,0,.8.8h76.829a.8.8,0,0,0,.8-.8V256.264a.8.8,0,0,0-.8-.8Z" transform="translate(-241.382 -233.626)" fill="#6d5a7a"/>
      <circle id="Ellipse_224" data-name="Ellipse 224" cx="7.796" cy="7.796" r="7.796" transform="translate(40.574 31.44)" fill="#fff"/>
      <path id="Path_40" data-name="Path 40" d="M411.93,316.586a.912.912,0,1,0,0,1.823h24.613a.912.912,0,1,0,.03-1.823H411.93Z" transform="translate(-345.965 -278.388)" fill="#fff"/>
      <path id="Path_40-2" data-name="Path 40" d="M411.93,296.859a.912.912,0,1,0,0,1.823h12.291a.912.912,0,1,0,.03-1.823H411.93Z" transform="translate(-345.965 -263.942)" fill="#fff"/>
      <path id="Path_40-3" data-name="Path 40" d="M411.93,337.253a.912.912,0,1,0,0,1.823h24.613a.912.912,0,0,0,.03-1.823H411.93Z" transform="translate(-345.965 -293.522)" fill="#fff"/>
      <ellipse id="Ellipse_225" data-name="Ellipse 225" cx="1.81" cy="5.764" rx="1.81" ry="5.764" transform="matrix(0.934, -0.357, 0.357, 0.934, 179.696, 95.007)" fill="#2f2e41"/>
      <circle id="Ellipse_226" data-name="Ellipse 226" cx="11.529" cy="11.529" r="11.529" transform="translate(178.465 101.329) rotate(-9.217)" fill="#2f2e41"/>
      <path id="Path_275" data-name="Path 275" d="M733.454,447.932h-3.5l.685,7.515,2.823-.767Z" transform="translate(-536.509 -328.023)" fill="#2f2e41"/>
      <path id="Path_276" data-name="Path 276" d="M704.931,448.005h-3.5l.685,7.515,2.7-.786Z" transform="translate(-515.621 -328.076)" fill="#2f2e41"/>
      <ellipse id="Ellipse_227" data-name="Ellipse 227" cx="2.919" cy="1.095" rx="2.919" ry="1.095" transform="translate(183.323 125.827) rotate(-4.182)" fill="#2f2e41"/>
      <circle id="Ellipse_228" data-name="Ellipse 228" cx="3.94" cy="3.94" r="3.94" transform="translate(187.46 104.002)" fill="#fff"/>
      <circle id="Ellipse_229" data-name="Ellipse 229" cx="1.313" cy="1.313" r="1.313" transform="translate(190.086 106.629)" fill="#3f3d56"/>
      <ellipse id="Ellipse_230" data-name="Ellipse 230" cx="5.764" cy="1.81" rx="5.764" ry="1.81" transform="translate(198.992 106.397) rotate(-53.55)" fill="#2f2e41"/>
      <path id="Path_277" data-name="Path 277" d="M863.077,602.664c0-.93,2.395-2.766,5.052-2.766s5.148,2.618,5.148,3.548-2.491-.18-5.148-.18S863.077,603.594,863.077,602.664Z" transform="translate(-677.01 -485.858)" fill="#fff"/>
      <path id="Path_278" data-name="Path 278" d="M827.8,378.3l-63.108-8.749a1.876,1.876,0,0,1-1.6-2.113l7.094-51.176a1.876,1.876,0,0,1,2.113-1.6l63.108,8.749a1.876,1.876,0,0,1,1.6,2.113L829.91,376.7A1.876,1.876,0,0,1,827.8,378.3Z" transform="translate(-603.776 -276.968)" fill="#6d5a7a"/>
      <path id="Path_279" data-name="Path 279" d="M831.94,412.9l-32.218-4.466a.669.669,0,0,1-.119-.026l18.9-24.282a1.077,1.077,0,0,1,1.857.257l7.771,19.13.372.915Z" transform="translate(-630.528 -327.538)" fill="#fff"/>
      <path id="Path_280" data-name="Path 280" d="M729.63,293.2l-11-1.525,6.487-7.1.467-.511.233-.256.372.916Z" transform="translate(-528.218 -207.839)" opacity="0.2" style="isolation: isolate"/>
      <path id="Path_281" data-name="Path 281" d="M911.184,444.31l-27.866-3.863,6.487-7.1.467-.511,8.454-9.246a1.437,1.437,0,0,1,2.131.167,1.285,1.285,0,0,1,.084.14Z" transform="translate(-691.833 -356.461)" fill="#fff"/>
      <circle id="Ellipse_231" data-name="Ellipse 231" cx="4.819" cy="4.819" r="4.819" transform="translate(196.986 55.194)" fill="#fff"/>
      <rect id="Rectangle_56" data-name="Rectangle 56" width="5.889" height="5.889" transform="translate(169.598 41.631) rotate(7.893)" fill="#3f3d56"/>
      <path id="Path_282" data-name="Path 282" d="M879.822,521.611c.931-4.169-2.045-8.382-6.647-9.409s-9.087,1.519-10.018,5.688,2.119,5.707,6.72,6.734S878.891,525.78,879.822,521.611Z" transform="translate(-676.947 -421.471)" fill="#f2f2f2"/>
      <ellipse id="Ellipse_232" data-name="Ellipse 232" cx="2.919" cy="1.095" rx="2.919" ry="1.095" transform="translate(191.004 125.808) rotate(-4.182)" fill="#2f2e41"/>
    </g>
  </g>
</svg>
