<svg xmlns="http://www.w3.org/2000/svg" width="147.047" height="129.063" viewBox="0 0 147.047 129.063">
  <g id="Group_28" data-name="Group 28" transform="translate(-2602.53 -1105.062)">
    <path id="Path_354" data-name="Path 354" d="M260.434,228.29a4.9,4.9,0,1,1,4.9-4.9,4.9,4.9,0,0,1-4.9,4.9Zm0-8.99a4.086,4.086,0,1,0,4.086,4.086A4.086,4.086,0,0,0,260.434,219.3Z" transform="translate(2347 888.986)" fill="#3f3d56"/>
    <path id="Path_355" data-name="Path 355" d="M864.507,586.978H856.44v-8.067h8.067Zm-7.446-.621h6.826v-6.826h-6.826Z" transform="translate(1885.069 630.503)" fill="#3f3d56"/>
    <path id="Path_356" data-name="Path 356" d="M331.858,560.524l-5.5-5.9,5.9-5.5,5.5,5.9Zm-4.625-5.869,4.656,4.992,4.992-4.656L332.224,550Z" transform="translate(2283.513 662.635)" fill="#3f3d56"/>
    <circle id="Ellipse_244" data-name="Ellipse 244" cx="56.801" cy="56.801" r="56.801" transform="translate(2628.264 1120.522)" fill="#b46576" opacity="0.3"/>
    <path id="Path_359" data-name="Path 359" d="M391.33,85.873,353.51,131.76l55.973,66.058,37.315-43.87Z" transform="translate(2270.409 1019.189)" fill="#b46576"/>
    <path id="Path_360" data-name="Path 360" d="M391.33,85.873,353.51,131.76l55.973,66.058,37.315-43.87Z" transform="translate(2270.409 1019.189)" opacity="0.1"/>
    <path id="Path_361" data-name="Path 361" d="M439.739,309.373h0a19.01,19.01,0,0,1,3.084-4.117l34.736-35.215s12.1-2.017,14.624,4.034l-44.375,36.307Z" transform="translate(2185.693 842.08)" fill="#f2f2f2"/>
    <path id="Path_362" data-name="Path 362" d="M434.805,306.48l51.434,78.665s5.043,3.53,10.085,1.513l52.7-35.55-55.973-84.716-50.426,39.332Z" transform="translate(2188.862 844.217)" fill="#b46576"/>
    <rect id="Rectangle_74" data-name="Rectangle 74" width="39.744" height="0.817" transform="matrix(0.812, -0.584, 0.584, 0.812, 2643.346, 1146.076)" fill="#3f3d56"/>
    <rect id="Rectangle_75" data-name="Rectangle 75" width="0.817" height="76.782" transform="matrix(0.834, -0.552, 0.552, 0.834, 2642.237, 1155.208)" fill="#3f3d56"/>
    <rect id="Rectangle_76" data-name="Rectangle 76" width="42.561" height="0.817" transform="translate(2689.738 1220.717) rotate(-36.344)" fill="#3f3d56"/>
    <rect id="Rectangle_77" data-name="Rectangle 77" width="0.817" height="76.796" transform="translate(2681.07 1124.456) rotate(-34.838)" fill="#3f3d56"/>
    <rect id="Rectangle_78" data-name="Rectangle 78" width="54.16" height="0.504" transform="translate(2628.288 1148.242) rotate(-42.545)" fill="#3f3d56"/>
    <rect id="Rectangle_79" data-name="Rectangle 79" width="55.628" height="0.504" transform="translate(2629.811 1148.75) rotate(-41.439)" fill="#3f3d56"/>
    <rect id="Rectangle_80" data-name="Rectangle 80" width="56.358" height="0.505" transform="matrix(0.768, -0.64, 0.64, 0.768, 2630.83, 1148.754)" fill="#3f3d56"/>
  </g>
</svg>
