<svg xmlns="http://www.w3.org/2000/svg" width="543.451" height="480.951" viewBox="0 0 543.451 480.951">
  <g id="undraw_Settings_re_b08x" transform="translate(-209.549 0)">
    <path id="Path_618" data-name="Path 618" d="M372.68,690.092l-2-.039a463.834,463.834,0,0,1,7.1-66.287c8.648-46.881,23.029-77.67,42.743-91.512l1.148,1.637C375.619,566.224,372.7,688.856,372.68,690.092Z" transform="translate(-125.5 -209.524)" fill="#2f2e41"/>
    <path id="Path_619" data-name="Path 619" d="M397.68,689.613l-2-.039c.043-2.215,1.293-54.414,21.843-68.842l1.148,1.637C398.95,636.215,397.69,689.081,397.68,689.613Z" transform="translate(-125.5 -209.524)" fill="#2f2e41"/>
    <circle id="Ellipse_304" data-name="Ellipse 304" cx="10" cy="10" r="10" transform="translate(297.549 304.548)" fill="#b46576"/>
    <circle id="Ellipse_305" data-name="Ellipse 305" cx="10" cy="10" r="10" transform="translate(292.597 390.548)" fill="#b46576"/>
    <path id="Path_620" data-name="Path 620" d="M393.019,540.067c1.879,12-3.019,22.741-3.019,22.741s-7.945-8.726-9.825-20.73,3.019-22.741,3.019-22.741S391.139,528.063,393.019,540.067Z" transform="translate(-125.5 -209.524)" fill="#2f2e41"/>
    <path id="Path_621" data-name="Path 621" d="M425.706,569.22c-11.493,3.942-22.919.99-22.919.99s7.208-9.344,18.7-13.286,22.919-.99,22.919-.99S437.2,565.278,425.706,569.22Z" transform="translate(-125.5 -209.524)" fill="#2f2e41"/>
    <path id="Path_622" data-name="Path 622" d="M426.075,645.382a31.135,31.135,0,0,1-16.064.694,28.374,28.374,0,0,1,29.172-10.006A31.135,31.135,0,0,1,426.075,645.382Z" transform="translate(-125.5 -209.524)" fill="#2f2e41"/>
    <path id="Path_623" data-name="Path 623" d="M606.671,467.453h-13.14l-6.251-50.685h19.394Z" fill="#9e616a"/>
    <path id="Path_624" data-name="Path 624" d="M833.523,689.715l-42.37,0v-.536a16.492,16.492,0,0,1,16.49-16.491h25.88Z" transform="translate(-223.5 -209.524)" fill="#2f2e41"/>
    <path id="Path_625" data-name="Path 625" d="M525.57,467.453H512.429l-6.251-50.685h19.394Z" fill="#9e616a"/>
    <path id="Path_626" data-name="Path 626" d="M752.421,689.715l-42.37,0v-.536a16.492,16.492,0,0,1,16.49-16.491h25.881Z" transform="translate(-223.5 -209.524)" fill="#2f2e41"/>
    <path id="Path_627" data-name="Path 627" d="M716.289,393.141l-18.2-2.812-5.88,9.464-63.272,16.128.171.872A11.9,11.9,0,1,0,631.7,429.1l76.625-15.981Z" transform="translate(-223.5 -209.524)" fill="#9e616a"/>
    <path id="Path_628" data-name="Path 628" d="M898.054,381.872a11.855,11.855,0,0,0-4.375.841l.363-.633L813.6,340.5l-10.967,17.73,83.635,37.125a11.9,11.9,0,1,0,11.788-13.483Z" transform="translate(-223.5 -209.524)" fill="#9e616a"/>
    <circle id="Ellipse_306" data-name="Ellipse 306" cx="35.538" cy="35.538" r="35.538" transform="translate(471.798 87.593) rotate(-80.783)" fill="#2f2e41"/>
    <circle id="Ellipse_307" data-name="Ellipse 307" cx="22.671" cy="22.671" r="22.671" transform="translate(489.593 48.099)" fill="#a0616a"/>
    <ellipse id="Ellipse_308" data-name="Ellipse 308" cx="24.509" cy="14.705" rx="24.509" ry="14.705" transform="translate(488.062 33.7)" fill="#2f2e41"/>
    <circle id="Ellipse_309" data-name="Ellipse 309" cx="14.705" cy="14.705" r="14.705" transform="translate(500.316 7.965)" fill="#2f2e41"/>
    <path id="Path_629" data-name="Path 629" d="M718.914,224.23A14.707,14.707,0,0,1,732.087,209.6a14.862,14.862,0,0,0-1.531-.08,14.705,14.705,0,0,0,0,29.411,14.86,14.86,0,0,0,1.528-.079,14.707,14.707,0,0,1-13.17-14.626Z" transform="translate(-223.5 -209.524)" fill="#2f2e41"/>
    <path id="Path_630" data-name="Path 630" d="M723.978,336.576,725.806,319s24.806-16.347,33.236-6.686l50.388,86.213s31.323,11.136,30.216,53.658l-1.5,205.54-35.517,3.894-21.568-160.25L761.576,667.394l-41.35-1.295,3.72-109.376L743.663,450.7l-.189-35.182-8.684-14.2s-15.907-6.39-16.352-24.45l-.348-25.386Z" transform="translate(-223.5 -209.524)" fill="#2f2e41"/>
    <path id="Path_631" data-name="Path 631" d="M749.988,317.139l.489-8.239s75.032,19.772,69.08,33.909-17.113,18.6-17.113,18.6L759.288,344.3Z" transform="translate(-223.5 -209.524)" fill="#2f2e41"/>
    <path id="Path_632" data-name="Path 632" d="M730.381,337.641l-5.646-6.021S679.7,394.81,693.321,401.87s25.052,3.354,25.052,3.354L740.6,364.466Z" transform="translate(-223.5 -209.524)" fill="#2f2e41"/>
    <path id="Path_633" data-name="Path 633" d="M640.245,543.4l282.561-56.4L899.192,368.7,616.631,425.1Z" transform="translate(-223.5 -209.524)" fill="#fff"/>
    <path id="Path_634" data-name="Path 634" d="M925.118,488.536,638.7,545.709,614.318,423.558l286.416-57.173ZM641.788,541.085,920.493,485.45,897.649,371.009,618.943,426.643Z" transform="translate(-223.5 -209.524)" fill="#e4e4e4"/>
    <path id="Path_638" data-name="Path 638" d="M766.229,690.476H224.222c-.4,0-.722-.448-.722-1s.323-1,.722-1H766.229c.4,0,.722.448.722,1S766.628,690.476,766.229,690.476Z" transform="translate(-13.951 -209.524)" fill="#cacaca"/>
  </g>
</svg>
