<svg id="undraw_modern_design_v3wv_1_" data-name="undraw_modern_design_v3wv (1)" xmlns="http://www.w3.org/2000/svg" width="127.29" height="134.091" viewBox="0 0 127.29 134.091">
  <ellipse id="Ellipse_233" data-name="Ellipse 233" cx="63.645" cy="3.255" rx="63.645" ry="3.255" transform="translate(0 127.582)" fill="#e6e6e6"/>
  <path id="Path_283" data-name="Path 283" d="M885.478,539.794v.788s1.418,5.041-.315,5.041-2.363-4.884-2.363-4.884v-.945Z" transform="translate(-768.022 -456.513)" fill="#ffb8b8"/>
  <path id="Path_284" data-name="Path 284" d="M723.346,420l.315-1.26s1.733-3.939,3.151-3.151-.63,3.781-.63,3.781l-.315.788Z" transform="translate(-637.399 -354.683)" fill="#ffb8b8"/>
  <path id="Path_285" data-name="Path 285" d="M531.111,671.78l.315,2.678,2.993.473v-3.466Z" transform="translate(-435.081 -550.058)" fill="#ffb8b8"/>
  <path id="Path_286" data-name="Path 286" d="M622.6,667.423l.315,3.939,3.466-.473-.63-3.781Z" transform="translate(-510.029 -546.489)" fill="#ffb8b8"/>
  <path id="Path_287" data-name="Path 287" d="M520.414,493.3l-.63.157,1.733,16.7v14.967l4.411-.788,2.206-26.31,6.774,12.919,3.308,13.076,5.2-.945L539.162,506.7l-2.836-15.6Z" transform="translate(-425.802 -402.304)" fill="#2f2e41"/>
  <path id="Path_288" data-name="Path 288" d="M758.558,759.575s-1.418-.945-1.891-.315-2.521,3.781-2.521,3.781-5.042,5.2,0,5.041c0,0,3.308,0,3.939-1.891a1.2,1.2,0,0,1,1.26-.945c1.1,0,2.363-1.1,2.363-1.733s-1.1-3.812-1.576-3.324S758.558,759.575,758.558,759.575Z" transform="translate(-660.795 -636.119)" fill="#2f2e41"/>
  <path id="Path_289" data-name="Path 289" d="M867.966,759.575s1.418-.945,1.891-.315,2.521,3.781,2.521,3.781,5.041,5.2,0,5.041c0,0-3.308,0-3.939-1.891a1.2,1.2,0,0,0-1.26-.945c-1.1,0-2.363-1.1-2.363-1.733s1.1-3.812,1.575-3.324S867.966,759.575,867.966,759.575Z" transform="translate(-753.289 -636.119)" fill="#2f2e41"/>
  <circle id="Ellipse_234" data-name="Ellipse 234" cx="4.159" cy="4.159" r="4.159" transform="translate(90.847 56.2)" fill="#ffb8b8"/>
  <path id="Path_290" data-name="Path 290" d="M523.705,339.274l2.206,2.678,3.939-3.308-2.836-2.206Z" transform="translate(-429.014 -275.607)" fill="#ffb8b8"/>
  <path id="Path_291" data-name="Path 291" d="M758.254,427.154l.129-1.166,4.423-2.541,6.008-.57a1.419,1.419,0,0,1,1.547,1.28l2.23,23.636.788,2.048s-13.864,7.877-17.015,2.048l2.363-12.288-4.884-9.3Z" transform="translate(-662.381 -360.73)" fill="#b46576"/>
  <path id="Path_292" data-name="Path 292" d="M837.49,424.034a1.3,1.3,0,0,0,.281-.08,1.424,1.424,0,0,1,1.63.5l7.07,9.667,2.678,11.186h-3.781l-2.521-7.562-4.1-5.357Z" transform="translate(-730.905 -361.548)" fill="#b46576"/>
  <path id="Path_293" data-name="Path 293" d="M470.343,362.354l-1.26.315-3.781,3.308,1.26-7.562-3.151-.63-2.442,12.683L462.7,372.2l9.847-4.017Z" transform="translate(-377.621 -293.094)" fill="#b46576"/>
  <path id="Path_294" data-name="Path 294" d="M750.549,389.05s-1.708-2.508-2.686-1.683-3.719,2.446-4.3,1.164,1.642-3.632,3.317-4.193,4.617-1.308,5.539,1.169a10.831,10.831,0,0,1,.541,4.9Z" transform="translate(-653.887 -328.705)" fill="#2f2e41"/>
  <ellipse id="Ellipse_235" data-name="Ellipse 235" cx="0.452" cy="0.814" rx="0.452" ry="0.814" transform="translate(95.854 59.452) rotate(-19.977)" fill="#ffb8b8"/>
  <path id="Path_295" data-name="Path 295" d="M378.724,110.462H378V90.655a11.464,11.464,0,0,0-11.464-11.464H324.574a11.464,11.464,0,0,0-11.464,11.464V199.317a11.464,11.464,0,0,0,11.464,11.464h41.963A11.464,11.464,0,0,0,378,199.317V124.561h.723Z" transform="translate(-301.338 -79.191)" fill="#3f3d56"/>
  <path id="Path_296" data-name="Path 296" d="M381.332,95.686h-5.478a4.067,4.067,0,0,1-3.766,5.6h-24.04a4.067,4.067,0,0,1-3.766-5.6h-5.116a8.561,8.561,0,0,0-8.561,8.561v108.5a8.561,8.561,0,0,0,8.561,8.561h42.165a8.561,8.561,0,0,0,8.561-8.561v-108.5a8.561,8.561,0,0,0-8.561-8.561Z" transform="translate(-315.669 -92.704)" fill="#fff"/>
  <rect id="Rectangle_59" data-name="Rectangle 59" width="14.946" height="1.388" transform="translate(35.496 32.131)" fill="#6d5a7a"/>
  <rect id="Rectangle_60" data-name="Rectangle 60" width="26.049" height="1.388" transform="translate(35.496 36.932)" fill="#e6e6e6"/>
  <rect id="Rectangle_61" data-name="Rectangle 61" width="26.024" height="1.388" transform="translate(35.496 41.733)" fill="#e6e6e6"/>
  <rect id="Rectangle_62" data-name="Rectangle 62" width="11.103" height="11.103" transform="translate(21.295 32.151)" fill="#b46576"/>
  <rect id="Rectangle_63" data-name="Rectangle 63" width="14.946" height="1.388" transform="translate(35.496 61.277)" fill="#6d5a7a"/>
  <rect id="Rectangle_64" data-name="Rectangle 64" width="26.049" height="1.388" transform="translate(35.496 66.078)" fill="#e6e6e6"/>
  <rect id="Rectangle_65" data-name="Rectangle 65" width="26.024" height="1.388" transform="translate(35.496 70.879)" fill="#e6e6e6"/>
  <rect id="Rectangle_66" data-name="Rectangle 66" width="11.103" height="11.103" transform="translate(21.295 61.298)" fill="#b46576"/>
  <rect id="Rectangle_67" data-name="Rectangle 67" width="14.946" height="1.388" transform="translate(35.496 90.423)" fill="#6d5a7a"/>
  <rect id="Rectangle_68" data-name="Rectangle 68" width="26.049" height="1.388" transform="translate(35.496 95.225)" fill="#e6e6e6"/>
  <rect id="Rectangle_69" data-name="Rectangle 69" width="26.024" height="1.388" transform="translate(35.496 100.026)" fill="#e6e6e6"/>
  <rect id="Rectangle_70" data-name="Rectangle 70" width="11.103" height="11.103" transform="translate(21.295 90.444)" fill="#b46576"/>
</svg>
