<svg xmlns="http://www.w3.org/2000/svg" width="883" height="507.397" viewBox="0 0 883 507.397">
  <g id="undraw_online_ad_re_ol62" transform="translate(-75 0)">
    <path id="Path_765" data-name="Path 765" d="M780.045,272.533H566.7v-5.362H469.964v5.362H255.742c-7.971,0-14.432,7.88-14.432,17.6h0v356.25c0,9.72,6.462,17.6,14.432,17.6h524.3c7.971,0,14.432-7.88,14.432-17.6V290.131c0-9.717-6.461-17.6-14.431-17.6Z" transform="translate(-15.081 -196.301)" fill="#3f3d56"/>
    <rect id="Rectangle_125" data-name="Rectangle 125" width="502.391" height="353.913" transform="translate(253.406 107.332)" fill="#e6e6e6"/>
    <rect id="Rectangle_130" data-name="Rectangle 130" width="456.391" height="305.913" transform="translate(280.013 126.048)" fill="#fff"/>
    <circle id="Ellipse_120" data-name="Ellipse 120" cx="6.435" cy="6.435" r="6.435" transform="translate(502.13 84.811)" fill="#b46576"/>
    <path id="Path_766" data-name="Path 766" d="M832.128,651.112h-52.6V646.7a.82.82,0,0,0-.752-.875H760.748a.82.82,0,0,0-.752.875h0v4.412h-11.27V646.7a.82.82,0,0,0-.752-.875H729.941a.82.82,0,0,0-.752.875h0v4.412H717.92V646.7a.82.82,0,0,0-.752-.875H699.135a.82.82,0,0,0-.752.875h0v4.412h-11.27V646.7a.82.82,0,0,0-.752-.875H668.329a.82.82,0,0,0-.752.875h0v4.412H656.307V646.7a.82.82,0,0,0-.752-.875H637.523a.82.82,0,0,0-.752.875h0v4.412H625.5V646.7a.82.82,0,0,0-.752-.875H606.72a.82.82,0,0,0-.752.875h0v4.412H594.694V646.7a.82.82,0,0,0-.752-.875H452.685a.82.82,0,0,0-.752.875h0v4.412h-11.27V646.7a.82.82,0,0,0-.752-.875H421.878a.82.82,0,0,0-.752.875h0v4.412h-11.27V646.7a.82.82,0,0,0-.752-.875H391.073a.82.82,0,0,0-.752.875h0v4.412H379.05V646.7a.82.82,0,0,0-.752-.875H360.267a.82.82,0,0,0-.752.875h0v4.412H348.247V646.7a.82.82,0,0,0-.752-.875H329.46a.82.82,0,0,0-.752.875h0v4.412h-11.27V646.7a.82.82,0,0,0-.752-.875H298.654a.82.82,0,0,0-.752.875h0v4.412h-11.27V646.7a.82.82,0,0,0-.752-.875H267.844a.82.82,0,0,0-.752.875h0v4.412H232.533c-9.959,0-18.033,9.4-18.033,20.993V681.6c0,11.594,8.074,20.993,18.033,20.993h599.6c9.959,0,18.033-9.4,18.033-20.992v-9.492c0-11.594-8.074-20.993-18.033-20.993Z" transform="translate(-23.002 -196.301)" fill="#3f3d56"/>
    <rect id="Rectangle_126" data-name="Rectangle 126" width="254" height="267" transform="translate(382.209 147.504)" fill="#e6e6e6"/>
    <rect id="Rectangle_128" data-name="Rectangle 128" width="883" height="2" transform="translate(75 505.397)" fill="#cacaca"/>
    <path id="Path_776" data-name="Path 776" d="M1027.457,631.834c14.376,15.426,15.119,38.1,15.119,38.1s-22.565-2.338-36.941-17.764-15.119-38.1-15.119-38.1S1013.081,616.408,1027.457,631.834Z" transform="translate(-145.5 -196.301)" fill="#3f3d56"/>
    <path id="Path_777" data-name="Path 777" d="M1072.714,655.913c-15.426,14.376-38.1,15.119-38.1,15.119s2.338-22.565,17.764-36.941,38.1-15.119,38.1-15.119S1088.141,641.537,1072.714,655.913Z" transform="translate(-145.5 -196.301)" fill="#b46576"/>
    <path id="Path_778" data-name="Path 778" d="M1068.88,701.7h-56.739a5.8,5.8,0,0,1-5.219-3.265L994.569,673.04a5.8,5.8,0,0,1,5.219-8.342h81.446a5.8,5.8,0,0,1,5.219,8.342L1074.1,698.434a5.8,5.8,0,0,1-5.219,3.265Z" transform="translate(-145.5 -196.301)" fill="#adadad"/>
    <path id="Path_779" data-name="Path 779" d="M130.457,631.834c14.376,15.426,15.119,38.1,15.119,38.1s-22.565-2.338-36.941-17.764-15.119-38.1-15.119-38.1S116.081,616.408,130.457,631.834Z" transform="translate(-3.5 -196.301)" fill="#b46576"/>
    <path id="Path_780" data-name="Path 780" d="M162.88,701.7H106.141a5.8,5.8,0,0,1-5.219-3.265L88.569,673.04a5.8,5.8,0,0,1,5.219-8.342h81.446a5.8,5.8,0,0,1,5.219,8.342L168.1,698.434a5.8,5.8,0,0,1-5.219,3.265Z" transform="translate(-3.5 -196.301)" fill="#adadad"/>
    <circle id="Ellipse_127" data-name="Ellipse 127" cx="33.757" cy="33.757" r="33.757" transform="translate(506.099 155.573)" fill="#a0616a"/>
    <path id="Path_803" data-name="Path 803" d="M531.686,611.356l21.8-137.237a52.032,52.032,0,0,1,65.979-41.781h0a51.875,51.875,0,0,1,36.561,59.46l-22.8,122.559Z" transform="translate(-69.5 -196.301)" fill="#b46576"/>
    <path id="Path_804" data-name="Path 804" d="M618.676,635.911a13.821,13.821,0,0,0,2.4-21.056l22.535-43.639-25.378,2.708L600.724,614.95a13.9,13.9,0,0,0,17.951,20.962Z" transform="translate(-69.5 -196.301)" fill="#a0616a"/>
    <path id="Path_805" data-name="Path 805" d="M623.5,607.158a6.193,6.193,0,0,1-3.335-1.582l-8.622-7.967a6.2,6.2,0,0,1-1.5-6.946l17.232-40.845-2.445-80.705a19.924,19.924,0,0,1,39.483,5.386h0l4.18,50.733a63.737,63.737,0,0,1-12.284,43.152l-26.873,36.329a6.191,6.191,0,0,1-4.391,2.479,6.121,6.121,0,0,1-1.445-.034Z" transform="translate(-69.5 -196.301)" fill="#b46576"/>
    <path id="Path_806" data-name="Path 806" d="M414.959,367.24a13.821,13.821,0,0,0,18.453,10.421l31.4,37.766,7.4-24.426L441.26,358.882a13.9,13.9,0,0,0-26.3,8.358Z" transform="translate(-69.5 -196.301)" fill="#a0616a"/>
    <path id="Path_807" data-name="Path 807" d="M439.556,382.894a6.2,6.2,0,0,1,2.757-2.454l10.7-4.833a6.2,6.2,0,0,1,6.982,1.327l30.894,31.793,75.272,29.215A19.924,19.924,0,1,1,545.807,472.2h0L497.46,456.268a63.737,63.737,0,0,1-34.948-28.137l-22.976-38.91a6.192,6.192,0,0,1-.571-5.01,6.127,6.127,0,0,1,.594-1.316Z" transform="translate(-69.5 -196.301)" fill="#b46576"/>
    <path id="Path_808" data-name="Path 808" d="M636.737,502.685l-1.374,43.981-25.319,44,21.141-49.03Z" transform="translate(-69.5 -196.301)" opacity="0.1" style="isolation: isolate"/>
    <path id="Path_696" data-name="Path 696" d="M586.495,368.712c3.482,4.121,9.374,5.283,14.81,5.76,11.039.968,27.091-.6,37.879-3.093.77,7.463-1.329,15.509,3.066,21.648a100.5,100.5,0,0,0,3.571-22.783c.133-3.3.081-6.724-1.262-9.758s-4.272-5.609-7.645-5.636a19.16,19.16,0,0,1,8.547-3.654l-10.68-5.367,2.743-2.816-19.336-1.183,5.6-3.558a121.439,121.439,0,0,0-25.441-.8c-3.94.29-8.06.845-11.252,3.128s-5.037,6.82-3.055,10.172a14.77,14.77,0,0,0-11.256,8.931c-1.423,3.608-1.293,7.616-.854,11.461a81.233,81.233,0,0,0,4.26,18.02" transform="translate(-69.5 -196.301)" fill="#2f2e41"/>
    <path id="Path_138" data-name="Path 138" d="M730.8,284.145l-307.6,71.015a5.853,5.853,0,0,1-7.011-4.381l-17.616-76.3a5.853,5.853,0,0,1,4.381-7.011l307.6-71.015a5.853,5.853,0,0,1,7.011,4.381l17.616,76.3a5.853,5.853,0,0,1-4.381,7.011Z" transform="translate(-69.5 -196.301)" fill="#fff"/>
    <path id="Path_138-2" data-name="Path 138" d="M730.8,284.145l-307.6,71.015a5.853,5.853,0,0,1-7.011-4.381l-17.616-76.3a5.853,5.853,0,0,1,4.381-7.011l307.6-71.015a5.853,5.853,0,0,1,7.011,4.381l17.616,76.3a5.853,5.853,0,0,1-4.381,7.011Zm-327.318-14.4a3.512,3.512,0,0,0-2.629,4.207l17.616,76.3a3.511,3.511,0,0,0,4.207,2.629l307.6-71.015a3.511,3.511,0,0,0,2.629-4.207l-17.616-76.3a3.511,3.511,0,0,0-4.207-2.629Z" transform="translate(-69.5 -196.301)" fill="#e6e6e6"/>
    <path id="Path_139" data-name="Path 139" d="M510.221,269.509a3.969,3.969,0,0,0,1.772,7.738l.013,0,182.312-42.09a3.969,3.969,0,1,0-1.786-7.735Z" transform="translate(-69.5 -196.301)" fill="#e6e6e6"/>
    <path id="Path_140" data-name="Path 140" d="M515.578,292.713a3.969,3.969,0,1,0,1.772,7.738l.013,0,78.449-18.111a3.969,3.969,0,0,0-1.772-7.738l-.013,0Z" transform="translate(-69.5 -196.301)" fill="#e6e6e6"/>
    <g id="Group_45" data-name="Group 45">
      <circle id="Ellipse_18" data-name="Ellipse 18" cx="23.814" cy="23.814" r="23.814" transform="translate(367.067 77.009)" fill="#b46576"/>
    </g>
    <line id="Line_14" data-name="Line 14" x1="20" y2="21" transform="matrix(0.966, -0.259, 0.259, 0.966, 378.123, 93.446)" fill="none" stroke="#fff" stroke-linecap="round" stroke-width="7"/>
    <line id="Line_15" data-name="Line 15" x2="20" y2="20" transform="matrix(0.966, -0.259, 0.259, 0.966, 378.382, 94.412)" fill="none" stroke="#fff" stroke-linecap="round" stroke-width="7"/>
  </g>
</svg>
