<svg id="Component_66_1" data-name="Component 66 – 1" xmlns="http://www.w3.org/2000/svg" width="45" height="49.008" viewBox="0 0 45 49.008">
  <rect id="Rectangle_328" data-name="Rectangle 328" width="45" height="49" rx="7" fill="#efdce0"/>
  <path id="Path_162" data-name="Path 162" d="M192,378.926s2.659-15.4,16.085-15.4,15.227,15.392,15.227,15.392Z" transform="translate(-185.22 -329.917)" fill="#fff"/>
  <path id="Path_163" data-name="Path 163" d="M230.322,363.582s-2.863,2.953-.477,5.091c2.259,2.014,3.668-1.034,3.668-1.034a1.827,1.827,0,0,0,2.227,1.747c2.227-.162,3.411-2.863,2.514-5.383C235.152,362.347,230.322,363.582,230.322,363.582Z" transform="translate(-210.69 -329.65)" fill="#6d5a7a"/>
  <ellipse id="Ellipse_160" data-name="Ellipse 160" cx="2.488" cy="2.488" rx="2.488" ry="2.488" transform="translate(10.631 18.635)" fill="#ce8282"/>
  <ellipse id="Ellipse_161" data-name="Ellipse 161" cx="2.488" cy="2.488" rx="2.488" ry="2.488" transform="translate(29.11 18.635)" fill="#ce8282"/>
  <path id="Path_164" data-name="Path 164" d="M240.384,337.686l-.42-5.526-4.318.585-.706,8.081A7.8,7.8,0,0,0,240.384,337.686Z" transform="translate(-214.812 -308.528)" fill="#d19582"/>
  <path id="Path_165" data-name="Path 165" d="M215.029,291.3a13.878,13.878,0,0,0,.124,3.038,7.6,7.6,0,0,0,3.907,6.147,10.076,10.076,0,0,0,8.145.678,7.553,7.553,0,0,0,4.247-4.184,18.5,18.5,0,0,0,.773-7.416c-.442-8.832-7.636-8.7-7.636-8.7S215,280.117,215.029,291.3Z" transform="translate(-201.213 -272.542)" fill="#e5b5a3"/>
  <path id="Path_166" data-name="Path 166" d="M234.258,352.677l-.318,3.557s.127,1.775,3,2.116,3.217-2.666,3.217-2.666l-.468-6.153A7.8,7.8,0,0,1,234.258,352.677Z" transform="translate(-214.13 -320.371)" fill="#e5b5a3"/>
  <path id="Path_167" data-name="Path 167" d="M229.214,317.384c0,.487-.2.881-.442.881s-.442-.395-.442-.881.2-.884.442-.884S229.214,316.895,229.214,317.384Z" transform="translate(-210.305 -296.85)" fill="#373c44"/>
  <ellipse id="Ellipse_162" data-name="Ellipse 162" cx="0.442" cy="0.884" rx="0.442" ry="0.884" transform="translate(26.202 19.799)" fill="#373c44"/>
  <path id="Path_168" data-name="Path 168" d="M240.1,321.14c-.178.108-.35.216-.515.318s-.318.251-.318.356a.165.165,0,0,0,.092.159.6.6,0,0,0,.213.134.719.719,0,0,0,.544-.1.617.617,0,0,1-.579.277.655.655,0,0,1-.318-.143.41.41,0,0,1-.185-.353.519.519,0,0,1,.2-.318,1.322,1.322,0,0,1,.283-.172A1.91,1.91,0,0,1,240.1,321.14Z" transform="translate(-217.6 -300.014)" fill="#373c44"/>
  <path id="Path_169" data-name="Path 169" d="M238.52,327.636a3.987,3.987,0,0,0,.6.318,1.859,1.859,0,0,0,.636.15,1.244,1.244,0,0,0,.62-.118,3.027,3.027,0,0,0,.579-.356,2.223,2.223,0,0,1-.21.29,1.551,1.551,0,0,1-.283.232,1.2,1.2,0,0,1-.719.191,1.623,1.623,0,0,1-1.228-.706Z" transform="translate(-217.252 -304.439)" fill="#373c44"/>
  <ellipse id="Ellipse_163" data-name="Ellipse 163" cx="0.929" cy="0.929" rx="0.929" ry="0.929" transform="translate(16.613 22.271)" fill="#ce8282"/>
  <ellipse id="Ellipse_164" data-name="Ellipse 164" cx="0.929" cy="0.929" rx="0.929" ry="0.929" transform="translate(26.157 22.567)" fill="#ce8282"/>
  <path id="Path_170" data-name="Path 170" d="M213.266,293.143c.118-.165-3-13.815,9.367-13.853,11.75-.035,8.511,12.192,8.511,12.192s-5.059-3.124-5.727-8.091c.035.261-.407.834-.544,1.047a8.246,8.246,0,0,1-.725.954,15.46,15.46,0,0,1-3.818,3.233,13.173,13.173,0,0,1-2.386,1.123,25.089,25.089,0,0,0-2.669.9A4.079,4.079,0,0,0,213.266,293.143Z" transform="translate(-199.851 -271.479)" fill="#373c44"/>
  <path id="Path_171" data-name="Path 171" d="M250.6,271.515s-1.836-4.365,2.227-5.542,6.494,2.946,1.654,6.93A5.661,5.661,0,0,0,250.6,271.515Z" transform="translate(-225.209 -262.26)" fill="#373c44"/>
  <ellipse id="Ellipse_165" data-name="Ellipse 165" cx="0.493" cy="0.493" rx="0.493" ry="0.493" transform="translate(22.276 40.138)" fill="#6d5a7a"/>
  <ellipse id="Ellipse_166" data-name="Ellipse 166" cx="0.493" cy="0.493" rx="0.493" ry="0.493" transform="translate(22.276 42.983)" fill="#6d5a7a"/>
</svg>
