<svg xmlns="http://www.w3.org/2000/svg" width="310.238" height="204.587" viewBox="0 0 310.238 204.587">
  <g id="Group_130" data-name="Group 130" transform="translate(-41 -163.112)">
    <g id="Group_11" data-name="Group 11" transform="translate(-246 4.563)">
      <path id="Path_116" data-name="Path 116" d="M305.3,99.668,293.893,106.9l6.926-12.6a11.28,11.28,0,0,0-6.9-2.463h-.184a13.352,13.352,0,0,1-2.368-.176L287.5,94.117l1.662-3.015a13.692,13.692,0,0,1-6.765-5.147l-6.926,4.412,4.375-7.949c-4.051-4.86-9.507-7.838-15.507-7.838-7.2,0-13.61,4.279-17.75,10.949a13.235,13.235,0,0,1-11.765,6.324h-.39c-7.949,0-14.39,9.007-14.39,20.125s6.441,20.125,14.39,20.125a10.83,10.83,0,0,0,5.015-1.257,20.728,20.728,0,0,1,17.412-.338,18.133,18.133,0,0,0,14.809,0,20.772,20.772,0,0,1,17.265.338,10.773,10.773,0,0,0,4.956,1.228c7.949,0,14.39-9.015,14.39-20.125A25.523,25.523,0,0,0,305.3,99.668Z" transform="translate(66.96 148.328)" fill="#f2f2f2"/>
      <path id="Path_117" data-name="Path 117" d="M283.809,138.556a21.243,21.243,0,0,0-12.309,1.338,18.169,18.169,0,0,1-14.809,0,20.75,20.75,0,0,0-17.412.346,10.846,10.846,0,0,1-5.015,1.25c-7.059,0-12.934-7.11-14.154-16.493a13.736,13.736,0,0,0,3.529-3.8c4.14-6.676,10.552-10.956,17.75-10.956s13.529,4.228,17.647,10.831a13.61,13.61,0,0,0,11.728,6.4h.184C276.573,127.475,281.441,131.983,283.809,138.556Z" transform="translate(66.941 138.888)" opacity="0.03"/>
    </g>
    <g id="Group_12" data-name="Group 12" transform="translate(-176.844 -46.437)">
      <path id="Path_116-2" data-name="Path 116" d="M271.333,89.672l-6.865,4.353,4.167-7.577a6.786,6.786,0,0,0-4.154-1.482h-.111a8.032,8.032,0,0,1-1.424-.106l-2.327,1.473,1-1.814a8.237,8.237,0,0,1-4.069-3.1l-4.167,2.654,2.632-4.782a12.19,12.19,0,0,0-9.329-4.715c-4.33,0-8.188,2.574-10.678,6.586a7.962,7.962,0,0,1-7.077,3.8H228.7c-4.782,0-8.656,5.419-8.656,12.107s3.875,12.107,8.656,12.107a6.515,6.515,0,0,0,3.017-.756,12.469,12.469,0,0,1,10.474-.2,10.908,10.908,0,0,0,8.909,0,12.5,12.5,0,0,1,10.386.2,6.481,6.481,0,0,0,2.981.739c4.782,0,8.657-5.423,8.657-12.107A15.354,15.354,0,0,0,271.333,89.672Z" transform="translate(66.96 148.328)" fill="#f2f2f2"/>
      <path id="Path_117-2" data-name="Path 117" d="M258.429,127.274a12.779,12.779,0,0,0-7.4.805,10.93,10.93,0,0,1-8.909,0,12.483,12.483,0,0,0-10.474.208,6.525,6.525,0,0,1-3.017.752c-4.246,0-7.781-4.277-8.515-9.922a8.263,8.263,0,0,0,2.123-2.287c2.49-4.016,6.348-6.591,10.678-6.591s8.139,2.543,10.616,6.516a8.188,8.188,0,0,0,7.055,3.853h.111C254.077,120.608,257.005,123.32,258.429,127.274Z" transform="translate(66.921 128.441)" opacity="0.03"/>
    </g>
    <g id="Group_13" data-name="Group 13" transform="translate(-9.335 -59.795)">
      <path id="Path_116-3" data-name="Path 116" d="M291.134,95.5l-9.515,6.033,5.775-10.5a9.4,9.4,0,0,0-5.757-2.054h-.153a11.133,11.133,0,0,1-1.974-.147l-3.225,2.042,1.386-2.514a11.416,11.416,0,0,1-5.64-4.292l-5.775,3.679,3.648-6.628c-3.378-4.053-7.927-6.536-12.93-6.536-6,0-11.348,3.568-14.8,9.129a11.036,11.036,0,0,1-9.809,5.273h-.325c-6.627,0-12,7.51-12,16.78s5.371,16.78,12,16.78a9.03,9.03,0,0,0,4.181-1.048,17.283,17.283,0,0,1,14.518-.282,15.119,15.119,0,0,0,12.348,0,17.32,17.32,0,0,1,14.4.282,8.982,8.982,0,0,0,4.132,1.024c6.628,0,12-7.516,12-16.78A21.281,21.281,0,0,0,291.134,95.5Z" transform="translate(66.96 148.328)" fill="#f2f2f2"/>
      <path id="Path_117-3" data-name="Path 117" d="M273.222,133.85a17.712,17.712,0,0,0-10.263,1.116,15.149,15.149,0,0,1-12.348,0,17.3,17.3,0,0,0-14.518.288,9.043,9.043,0,0,1-4.181,1.042c-5.886,0-10.784-5.929-11.8-13.752a11.453,11.453,0,0,0,2.943-3.17c3.452-5.567,8.8-9.135,14.8-9.135s11.281,3.525,14.714,9.031a11.348,11.348,0,0,0,9.779,5.34h.153C267.189,124.611,271.248,128.369,273.222,133.85Z" transform="translate(66.933 134.53)" opacity="0.03"/>
    </g>
    <g id="Group_3" data-name="Group 3" transform="translate(66.797 191.869)">
      <g id="undraw_online_popularity_elhc" transform="translate(0 0.282)">
        <path id="Path_56" data-name="Path 56" d="M861.329,108.559c-3.7-6.244-11.006-6.535-11.006-6.535s-7.124-.911-11.694,8.6c-4.26,8.864-10.139,17.422-.947,19.5l1.66-5.168,1.028,5.553a35.966,35.966,0,0,0,3.933.067c9.844-.318,19.219.093,18.918-3.44C862.82,122.436,864.885,114.567,861.329,108.559Z" transform="translate(-634.241 -102)" fill="#2f2e41"/>
        <ellipse id="Ellipse_131" data-name="Ellipse 131" cx="56.498" cy="3.279" rx="56.498" ry="3.279" transform="translate(151.727 160.667)" fill="#ededed"/>
        <ellipse id="Ellipse_132" data-name="Ellipse 132" cx="71.632" cy="3.279" rx="71.632" ry="3.279" transform="translate(1.654 161.424)" fill="#ededed"/>
        <ellipse id="Ellipse_133" data-name="Ellipse 133" cx="63.813" cy="3.279" rx="63.813" ry="3.279" transform="translate(95.986 168.99)" fill="#ededed"/>
        <path id="Path_57" data-name="Path 57" d="M721.668,646.428c.233,7.96-4.418,10.877-10.255,11.047q-.2.006-.4.007-.406,0-.8-.013c-5.279-.219-9.457-3.021-9.673-10.424-.224-7.661,9.285-17.614,10-18.351h0l.041-.042S721.435,638.469,721.668,646.428Z" transform="translate(-535.32 -495.818)" fill="#b46576"/>
        <path id="Path_58" data-name="Path 58" d="M728.248,656.273l3.708-5.514-3.7,6.107.008.62q-.406,0-.8-.013l.184-7.975-.005-.062.007-.012.018-.754-4.06-5.9,4.056,5.331.014.159.139-6.026-3.507-6.112,3.517,5.053-.037-12.483v0l.233,9.839,3.2-4-3.186,4.844.07,5.39,2.941-5.26-2.93,6.053.039,3,4.277-7.327-4.264,8.373Z" transform="translate(-552.575 -495.821)" fill="#3f3d56"/>
        <path id="Path_59" data-name="Path 59" d="M66.668,657.428c.232,7.96-4.418,10.877-10.255,11.047q-.2.006-.4.007-.406,0-.8-.013c-5.279-.219-9.457-3.021-9.673-10.424-.224-7.661,9.285-17.614,10-18.351h0l.041-.042S66.435,649.469,66.668,657.428Z" transform="translate(-45.527 -504.043)" fill="#b46576"/>
        <path id="Path_60" data-name="Path 60" d="M73.247,667.273l3.708-5.514-3.7,6.107.008.62q-.406,0-.8-.013l.184-7.975-.005-.062.007-.012.018-.754-4.06-5.9,4.056,5.331.014.159.139-6.026L69.3,647.128l3.517,5.053L72.784,639.7v0l.233,9.839,3.2-4-3.186,4.844.07,5.39,2.941-5.26-2.93,6.053.039,3,4.277-7.327-4.264,8.373Z" transform="translate(-62.782 -504.047)" fill="#3f3d56"/>
        <path id="Path_61" data-name="Path 61" d="M1001.619,316.368l18.682-27.782-18.644,30.77.039,3.126q-2.046.016-4.052-.068l.927-40.184-.025-.31.034-.06.089-3.8-20.459-29.7,20.435,26.862.072.8.7-30.361-17.671-30.8,17.721,25.462-.185-62.9v-.209l.006.206L1000.461,227l16.1-20.137-16.052,24.407.351,27.157,14.82-26.5-14.765,30.5.2,15.1,21.552-36.92-21.486,42.188Z" transform="translate(-742.964 -158.248)" fill="#3f3d56"/>
        <path id="Path_62" data-name="Path 62" d="M851.687,358.953s-4.329,11.6-1.558,21.99,10.043,35.15,10.043,35.15l9.7,19.22s5.541,3.809,8.831-3.982l-8.831-16.623,8.644-30.034a38.747,38.747,0,0,0,1.022-17.3,21.784,21.784,0,0,0-2.74-7.9S854.284,356.01,851.687,358.953Z" transform="translate(-646.496 -293.257)" fill="#2f2e41"/>
        <path id="Path_63" data-name="Path 63" d="M879.35,580.776l-5.195,27.012s5.368,3.809,8.484,2.6l5.195-19.912Z" transform="translate(-665.155 -460.017)" fill="#2f2e41"/>
        <path id="Path_64" data-name="Path 64" d="M835.055,685.811l-5.541,11.255-2.251,4.5s-12.294,11.774-2.6,10.562,10.389-2.944,10.389-2.944l1.9-2.771.52,1.039s2.77-2.251,2.77-2.944-1.039-7.792-1.039-7.792l1.385-8.311Z" transform="translate(-625.362 -538.559)" fill="#2f2e41"/>
        <path id="Path_65" data-name="Path 65" d="M934.219,655.289l2.944,7.965-1.732,6.926s-6.753,9.177.173,8.658,8.138-5.541,8.138-5.541l1.039-3.29.866.346,2.6-4.675-4.848-7.792-3.29-5.714Z" transform="translate(-708.769 -513.405)" fill="#2f2e41"/>
        <path id="Path_66" data-name="Path 66" d="M1002.389,400.913l1.039,5.368s4.329,9.7,0,10.043S999.1,406.8,999.1,406.8l.346-3.983Z" transform="translate(-758.585 -325.52)" fill="#ffb8b8"/>
        <path id="Path_67" data-name="Path 67" d="M663.38,277.331l-6.06-1.039s-11.948-6.233-11.774-1.732,11.255,6.58,11.255,6.58l3.29,1.212Z" transform="translate(-494.205 -229.816)" fill="#ffb8b8"/>
        <ellipse id="Ellipse_134" data-name="Ellipse 134" cx="7.965" cy="7.965" rx="7.965" ry="7.965" transform="translate(207.615 6.306)" fill="#ffb8b8"/>
        <path id="Path_68" data-name="Path 68" d="M872.139,177.6s1.732,6.58-1.385,7.965-3.463,2.424-3.463,2.424,20.778,6.58,22.337-1.212l-7.1-3.982s-.693-5.541-1.385-5.887S872.139,177.6,872.139,177.6Z" transform="translate(-660.022 -157.959)" fill="#ffb8b8"/>
        <path id="Path_69" data-name="Path 69" d="M768.147,218.529a2.077,2.077,0,0,0-.9-1.269c-1.808-1.165-6.514-4.122-7.156-3.778-.8.427-6.909,3.353-19-.361,0,0-9.151,2.52-11.748,4.251s-8.026,7.321-8.026,7.321-24.639,3.976-24.466,6.053-1.766,7.062-1.766,7.062,16.142,3.279,32.537-3.531c0,0,5.184,12.011,4.664,14.262s-.52,3.809,3.636,3.463,10.562-1.385,13.852-.866,15.584,1.385,15.584.519v-5.368s3.809,18.7,6.233,18.7,6.178-1.461,7.736-7l-7.567-24.214Z" transform="translate(-531.25 -185.093)" fill="#d0cde1"/>
        <rect id="Rectangle_29" data-name="Rectangle 29" width="37.324" height="0.757" transform="translate(213.529 121.656) rotate(-83.421)" opacity="0.2"/>
        <path id="Path_70" data-name="Path 70" d="M836.761,13.529l-7.223-3.784-9.975,1.548L817.5,20.408l5.137-.2,1.435-3.349v3.293l2.371-.091,1.376-5.331.86,5.675,8.427-.172Z" transform="translate(-611.307 -7.287)" fill="#2f2e41"/>
        <rect id="Rectangle_30" data-name="Rectangle 30" width="114.005" height="100.89" transform="translate(17.292 63.308)" fill="#3f3d56"/>
        <rect id="Rectangle_31" data-name="Rectangle 31" width="95.593" height="60.029" transform="translate(26.624 73.397)" fill="#fff"/>
        <path id="Path_74" data-name="Path 74" d="M289.265,506.164l.338-.106a21.8,21.8,0,0,0,15.106-21.583,21.507,21.507,0,0,0-1.327-6.676,21.768,21.768,0,1,0-27.4,28.146c.114.04.23.078.343.113h6.243Z" transform="translate(-206.793 -372.379)" fill="#2f2e41"/>
        <path id="Path_75" data-name="Path 75" d="M255.09,508.618l-.684,4.4-.018.114H247.7l.527-3.39.358-2.3Z" transform="translate(-185.222 -379.451)" fill="#2f2e41"/>
        <path id="Path_76" data-name="Path 76" d="M307.109,520.22l.018-.106.391-2.157-6.507-1.178-.6,3.334Z" transform="translate(-224.637 -386.436)" fill="#2f2e41"/>
        <circle id="Ellipse_135" data-name="Ellipse 135" cx="7.439" cy="7.439" r="7.439" transform="translate(70.248 100.186)" fill="#fff"/>
        <ellipse id="Ellipse_136" data-name="Ellipse 136" cx="2.48" cy="2.48" rx="2.48" ry="2.48" transform="translate(78.265 102.478)" fill="#3f3d56"/>
        <path id="Path_77" data-name="Path 77" d="M279.387,410.693c-.327-8.058,6.617-14.883,15.511-15.244s16.369,5.878,16.7,13.936-5.855,9.889-14.749,10.25S279.714,418.75,279.387,410.693Z" transform="translate(-220.393 -321.423)" fill="#b46576"/>
        <ellipse id="Ellipse_137" data-name="Ellipse 137" cx="10.883" cy="3.416" rx="10.883" ry="3.416" transform="matrix(0.975, -0.223, 0.223, 0.975, 84.889, 108.084)" fill="#2f2e41"/>
        <ellipse id="Ellipse_138" data-name="Ellipse 138" cx="10.883" cy="3.416" rx="10.883" ry="3.416" transform="matrix(0.975, -0.223, 0.223, 0.975, 42.165, 115.189)" fill="#2f2e41"/>
        <path id="Path_78" data-name="Path 78" d="M323.555,576.149a4.959,4.959,0,1,0,9.76,1.767c.488-2.7-1.6-3.649-4.291-4.137S324.043,573.454,323.555,576.149Z" transform="translate(-253.369 -454.623)" fill="#fff"/>
        <rect id="Rectangle_32" data-name="Rectangle 32" width="58.516" height="3.531" transform="translate(26.624 142.507)" fill="#e6e6e6"/>
        <rect id="Rectangle_33" data-name="Rectangle 33" width="95.593" height="3.531" transform="translate(26.624 150.073)" fill="#e6e6e6"/>
      </g>
      <circle id="Ellipse_139" data-name="Ellipse 139" cx="7.5" cy="7.5" r="7.5" transform="translate(135.203 0.131)" fill="#e56b6f"/>
      <circle id="Ellipse_140" data-name="Ellipse 140" cx="5" cy="5" r="5" transform="translate(155.203 15.131)" fill="#e56b6f"/>
      <circle id="Ellipse_141" data-name="Ellipse 141" cx="6" cy="6" r="6" transform="translate(142.203 28.131)" fill="#e56b6f"/>
    </g>
  </g>
</svg>
