<svg xmlns="http://www.w3.org/2000/svg" width="286.505" height="225.066" viewBox="0 0 286.505 225.066">
  <g id="Group_127" data-name="Group 127" transform="translate(-64 -143)">
    <g id="Group_5" data-name="Group 5">
      <path id="Path_110" data-name="Path 110" d="M310.915,101.319l-12.163,7.711,7.382-13.424a12.021,12.021,0,0,0-7.359-2.625h-.2a14.232,14.232,0,0,1-2.523-.188l-4.122,2.61,1.771-3.213A14.592,14.592,0,0,1,286.5,86.7l-7.382,4.7,4.663-8.471c-4.318-5.18-10.133-8.354-16.528-8.354-7.672,0-14.506,4.561-18.918,11.669a14.106,14.106,0,0,1-12.539,6.74h-.415c-8.471,0-15.336,9.6-15.336,21.449s6.865,21.449,15.336,21.449a11.543,11.543,0,0,0,5.345-1.34,22.092,22.092,0,0,1,18.557-.36,19.325,19.325,0,0,0,15.783,0,22.139,22.139,0,0,1,18.4.36,11.481,11.481,0,0,0,5.282,1.309c8.471,0,15.336-9.608,15.336-21.449a27.2,27.2,0,0,0-3.166-13.087Z" transform="translate(-35.04 68.42)" fill="#f2f2f2"/>
      <path id="Path_111" data-name="Path 111" d="M288,140.419a22.64,22.64,0,0,0-13.119,1.426,19.364,19.364,0,0,1-15.783,0,22.115,22.115,0,0,0-18.557.368,11.559,11.559,0,0,1-5.345,1.332c-7.523,0-13.785-7.578-15.086-17.578a14.639,14.639,0,0,0,3.762-4.052c4.412-7.116,11.246-11.677,18.918-11.677s14.42,4.506,18.808,11.543a14.506,14.506,0,0,0,12.5,6.826h.2C280.288,128.609,285.476,133.413,288,140.419Z" transform="translate(-35.055 60.706)" opacity="0.03"/>
    </g>
    <g id="Group_6" data-name="Group 6">
      <path id="Path_116" data-name="Path 116" d="M281.406,92.636l-8.213,5.207,4.985-9.065a8.118,8.118,0,0,0-4.969-1.773h-.132a9.61,9.61,0,0,1-1.7-.127l-2.784,1.762,1.2-2.17a9.854,9.854,0,0,1-4.869-3.7l-4.985,3.175,3.149-5.721a14.584,14.584,0,0,0-11.161-5.641c-5.181,0-9.8,3.08-12.775,7.88a9.526,9.526,0,0,1-8.467,4.551h-.28c-5.721,0-10.356,6.483-10.356,14.484s4.636,14.484,10.356,14.484a7.8,7.8,0,0,0,3.609-.9,14.918,14.918,0,0,1,12.531-.243,13.05,13.05,0,0,0,10.658,0,14.95,14.95,0,0,1,12.426.243,7.753,7.753,0,0,0,3.567.884c5.721,0,10.356-6.488,10.356-14.484a18.369,18.369,0,0,0-2.138-8.838Z" transform="translate(66.96 148.328)" fill="#f2f2f2"/>
      <path id="Path_117" data-name="Path 117" d="M265.954,130.619a15.289,15.289,0,0,0-8.859.963,13.076,13.076,0,0,1-10.658,0,14.934,14.934,0,0,0-12.531.249,7.806,7.806,0,0,1-3.609.9c-5.08,0-9.309-5.117-10.187-11.87a9.886,9.886,0,0,0,2.54-2.736c2.979-4.805,7.594-7.885,12.775-7.885s9.737,3.043,12.7,7.8a9.8,9.8,0,0,0,8.441,4.609h.132C260.747,122.644,264.25,125.888,265.954,130.619Z" transform="translate(66.927 131.539)" opacity="0.03"/>
    </g>
    <g id="Group_7" data-name="Group 7">
      <path id="Path_118" data-name="Path 118" d="M267.892,88.66l-6.4,4.061,3.887-7.069a6.33,6.33,0,0,0-3.875-1.382h-.1a7.494,7.494,0,0,1-1.329-.1L257.9,85.544l.933-1.692a7.684,7.684,0,0,1-3.8-2.889l-3.887,2.476,2.455-4.461a11.372,11.372,0,0,0-8.7-4.4c-4.04,0-7.638,2.4-9.962,6.145a7.428,7.428,0,0,1-6.6,3.549h-.219c-4.461,0-8.076,5.055-8.076,11.295s3.615,11.295,8.076,11.295a6.078,6.078,0,0,0,2.814-.706,11.633,11.633,0,0,1,9.772-.19,10.176,10.176,0,0,0,8.311,0,11.658,11.658,0,0,1,9.689.19,6.046,6.046,0,0,0,2.781.689c4.461,0,8.076-5.059,8.076-11.295a14.323,14.323,0,0,0-1.667-6.891Z" transform="translate(-156.04 173.444)" fill="#f2f2f2"/>
      <path id="Path_119" data-name="Path 119" d="M255.859,126.132a11.922,11.922,0,0,0-6.908.751,10.2,10.2,0,0,1-8.311,0,11.645,11.645,0,0,0-9.772.194,6.087,6.087,0,0,1-2.814.7c-3.962,0-7.259-3.99-7.944-9.256a7.708,7.708,0,0,0,1.981-2.133c2.323-3.747,5.922-6.149,9.962-6.149s7.593,2.373,9.9,6.079a7.638,7.638,0,0,0,6.582,3.594h.1C251.8,119.913,254.53,122.442,255.859,126.132Z" transform="translate(-156.081 152.5)" opacity="0.03"/>
    </g>
    <g id="undraw_happy_music_g6wc" transform="translate(81.703 150.499)">
      <path id="Path_12" data-name="Path 12" d="M249.926,738.01l-178.909,2.7L0,728.121H110.867Z" transform="translate(0 -523.141)" fill="#ededed"/>
      <ellipse id="Ellipse_76" data-name="Ellipse 76" cx="28.619" cy="28.619" rx="28.619" ry="28.619" transform="translate(177.403 0)" fill="#e56b6f"/>
      <path id="Path_13" data-name="Path 13" d="M335.954,777.024s.419-8.772,9-7.752" transform="translate(-285.326 -570.548)" fill="#3f3d56"/>
      <circle id="Ellipse_77" data-name="Ellipse 77" cx="4.295" cy="4.295" r="4.295" transform="translate(43.909 189.539)" fill="#b46576"/>
      <rect id="Rectangle_7" data-name="Rectangle 7" width="1.212" height="8.487" transform="translate(47.505 201.067)" fill="#3f3d56"/>
      <path id="Path_14" data-name="Path 14" d="M838.4,782.347s.419-8.772,9-7.752" transform="translate(-646.323 -574.372)" fill="#3f3d56"/>
      <circle id="Ellipse_78" data-name="Ellipse 78" cx="4.295" cy="4.295" r="4.295" transform="translate(185.357 191.037)" fill="#b46576"/>
      <rect id="Rectangle_8" data-name="Rectangle 8" width="1.212" height="8.487" transform="translate(188.954 202.565)" fill="#3f3d56"/>
      <path id="Path_15" data-name="Path 15" d="M911.851,787.669s.419-8.772,9-7.752" transform="translate(-699.096 -578.196)" fill="#3f3d56"/>
      <circle id="Ellipse_79" data-name="Ellipse 79" cx="4.295" cy="4.295" r="4.295" transform="translate(206.035 192.536)" fill="#b46576"/>
      <rect id="Rectangle_9" data-name="Rectangle 9" width="1.212" height="8.487" transform="translate(209.632 204.064)" fill="#3f3d56"/>
      <path id="Path_16" data-name="Path 16" d="M456.243,762.121s.419-8.772,9-7.752" transform="translate(-371.751 -559.84)" fill="#3f3d56"/>
      <circle id="Ellipse_80" data-name="Ellipse 80" cx="4.295" cy="4.295" r="4.295" transform="translate(77.772 185.343)" fill="#b46576"/>
      <rect id="Rectangle_10" data-name="Rectangle 10" width="1.212" height="8.487" transform="translate(81.369 196.871)" fill="#3f3d56"/>
      <path id="Path_17" data-name="Path 17" d="M229.5,767.444s.419-8.772,9-7.752" transform="translate(-208.843 -563.664)" fill="#3f3d56"/>
      <circle id="Ellipse_81" data-name="Ellipse 81" cx="4.295" cy="4.295" r="4.295" transform="translate(13.941 186.842)" fill="#b46576"/>
      <rect id="Rectangle_11" data-name="Rectangle 11" width="1.212" height="8.487" transform="translate(17.537 198.37)" fill="#3f3d56"/>
      <ellipse id="Ellipse_82" data-name="Ellipse 82" cx="46.797" cy="46.797" rx="46.797" ry="46.797" transform="translate(77.713 94.944)" fill="#3f3d56"/>
      <path id="Path_18" data-name="Path 18" d="M482.867,519.875a12.383,12.383,0,0,1,19.008,0,13.764,13.764,0,1,0-19.008,0Z" transform="translate(-387.819 -374.378)" fill="#fff"/>
      <path id="Path_19" data-name="Path 19" d="M614.872,519.875a12.383,12.383,0,0,1,19.008,0,13.764,13.764,0,1,0-19.008,0Z" transform="translate(-482.661 -374.378)" fill="#fff"/>
      <circle id="Ellipse_83" data-name="Ellipse 83" cx="4.735" cy="4.735" r="4.735" transform="translate(95.123 126.12)" fill="#3f3d56"/>
      <circle id="Ellipse_84" data-name="Ellipse 84" cx="4.735" cy="4.735" r="4.735" transform="translate(132.283 126.12)" fill="#3f3d56"/>
      <ellipse id="Ellipse_85" data-name="Ellipse 85" cx="5.505" cy="5.505" rx="5.505" ry="5.505" transform="translate(85.283 147.934)" fill="#e56b6f"/>
      <ellipse id="Ellipse_86" data-name="Ellipse 86" cx="5.505" cy="5.505" rx="5.505" ry="5.505" transform="translate(148.596 147.934)" fill="#e56b6f"/>
      <path id="Path_20" data-name="Path 20" d="M424.405,505.926l-4.129,17.893,6.882-6.882Z" transform="translate(-301.96 -363.498)" fill="#e56b6f"/>
      <path id="Path_21" data-name="Path 21" d="M471.693,680.072l-4.688-3.934.109,3.934h-1.456l-.116-4.16-6.329,4.16h-2.65l8.932-5.871-.346-12.328-.258-9.31,1.452-.04.262,9.35.346,12.317,7.006,5.882Z" transform="translate(-328.031 -468.825)" fill="#3f3d56"/>
      <path id="Path_22" data-name="Path 22" d="M393.471,680.072l-4.688-3.934.109,3.934h-1.452l-.117-4.16-6.329,4.16h-2.65l8.928-5.871-.346-12.328-.258-9.31,1.456-.04.262,9.35.342,12.317,7.007,5.882Z" transform="translate(-271.833 -468.825)" fill="#3f3d56"/>
      <path id="Path_23" data-name="Path 23" d="M562.2,374.565c-1.284,0-2.417,1-3.174,2.529-.667-2.3-2.07-3.906-3.708-3.906a2.49,2.49,0,0,0-.331.056c-.63-2.46-2.093-4.185-3.8-4.185-2.28,0-4.129,3.081-4.129,6.882s1.849,6.882,4.129,6.882a2.486,2.486,0,0,0,.331-.055c.63,2.46,2.093,4.185,3.8,4.185,1.284,0,2.417-1,3.174-2.529.668,2.3,2.07,3.906,3.708,3.906,2.28,0,4.129-3.081,4.129-6.882S564.476,374.565,562.2,374.565Z" transform="translate(-436.998 -283.062)" fill="#3f3d56"/>
      <path id="Path_24" data-name="Path 24" d="M0,0H0A13.764,13.764,0,0,1,13.764,13.764v6.882A13.764,13.764,0,0,1,0,34.409H0Z" transform="translate(80.585 159.474) rotate(180)" fill="#b46576"/>
      <path id="Path_25" data-name="Path 25" d="M598.3,444.248h0a13.764,13.764,0,0,1,13.764,13.764v6.882A13.764,13.764,0,0,1,598.3,478.658h0Z" transform="translate(-429.869 -319.184)" fill="#b46576"/>
      <path id="Path_26" data-name="Path 26" d="M512.517,426.805h-2.184a50.227,50.227,0,1,0-100.454,0h-2.184a52.411,52.411,0,1,1,104.822,0Z" transform="translate(-336.87 -286.895)" fill="#b46576"/>
      <path id="Path_27" data-name="Path 27" d="M131.69,368Z" transform="translate(-94.617 -264.398)" fill="#3f3d56"/>
      <path id="Path_28" data-name="Path 28" d="M304.413,403.621h0l-1.026-.427-4.329-1.83-1.552-.656-.119.3h0l-2.084,5.263,5.866,2.483.031.028-.4.932a1.651,1.651,0,0,0-.138.269,1.294,1.294,0,0,0,.741,1.59c.494.2,1.12-.212,1.4-.911a1.471,1.471,0,0,0-.476-1.777h0l-1.026-.427-3.51-1.364,2.005-5.063-.3-.118-2.006,5.065-.434-.169,2.014-5.085.053.022,4.125,1.746.031.028-.4.932a1.643,1.643,0,0,0-.138.269,1.294,1.294,0,0,0,.74,1.59c.494.2,1.12-.212,1.4-.911A1.471,1.471,0,0,0,304.413,403.621Z" transform="translate(-256.119 -305.801)" fill="#3f3d56"/>
      <path id="Path_29" data-name="Path 29" d="M373,438.044c-2.129-1.217-1.7-3.889-1.7-3.889-.054-1.736-1.488-1.49-1.488-1.49l-.522.119a1.586,1.586,0,0,0-.776-.143l-.794.134a1.885,1.885,0,0,1,1.659,1.937l.253,1.768-4.737-1.911.544-1.282a2.29,2.29,0,0,0,.192-.374A1.8,1.8,0,0,0,364.6,430.7c-.687-.272-1.555.295-1.94,1.266a2.043,2.043,0,0,0,.661,2.469h0l1.425.593.011-.034Zm-2.405-3.107.152,1.693a3.9,3.9,0,0,1-.711-2.592,1.638,1.638,0,0,0-.317-.908A1.923,1.923,0,0,1,370.6,434.937Z" transform="translate(-304.407 -327.303)" fill="#3f3d56"/>
      <path id="Path_30" data-name="Path 30" d="M246.531,353.08h0l-1.425-.593-5.955-2.315,1.5-1.337a1.9,1.9,0,0,1,2.595-.425l-.466-.693s-.877-1.161-2.1.067c0,0-1.519,2.239-3.9,1.668l8.147,3.448.043.039-.549,1.294a2.293,2.293,0,0,0-.192.374,1.8,1.8,0,0,0,1.028,2.209c.687.272,1.555-.295,1.94-1.266A2.043,2.043,0,0,0,246.531,353.08Z" transform="translate(-214.067 -267.37)" fill="#3f3d56"/>
      <path id="Path_31" data-name="Path 31" d="M327.978,312.506l-.549,1.294a2.285,2.285,0,0,0-.191.374,1.8,1.8,0,0,0,1.028,2.209c.687.272,1.555-.295,1.94-1.266a2.043,2.043,0,0,0-.661-2.469h0l-1.425-.593-4.875-1.895,2.785-7.032-.413-.163L322.832,310l-.6-.234,2.8-7.062.074.031,5.73,2.425.043.039-.549,1.294a2.3,2.3,0,0,0-.191.374,1.8,1.8,0,0,0,1.028,2.209c.687.272,1.555-.295,1.94-1.266a2.043,2.043,0,0,0-.66-2.469h0l-1.425-.593-5.823-2.462h0L325,302.2l-2.155-.911-3.06,7.727,8.147,3.448ZM322.683,301.71Z" transform="translate(-273.71 -234.373)" fill="#3f3d56"/>
      <path id="Path_32" data-name="Path 32" d="M214.3,174.8v0l-2.453-1.021L201.6,169.795l2.587-2.3a3.268,3.268,0,0,1,4.467-.732l-.8-1.193s-1.51-2-3.623.116c0,0-2.614,3.854-6.721,2.872l14.025,5.936.074.067-.945,2.228a3.946,3.946,0,0,0-.33.643,3.093,3.093,0,0,0,1.77,3.8c1.182.468,2.677-.507,3.339-2.179C216.091,177.4,215.453,175.31,214.3,174.8Z" transform="translate(-185.852 -136.243)" fill="#3f3d56"/>
      <path id="Path_33" data-name="Path 33" d="M219.886,274.263c-5.091-2.911-4.072-9.3-4.072-9.3-.128-4.15-3.557-3.562-3.557-3.562l-1.248.285a3.788,3.788,0,0,0-1.855-.343l-1.9.319c4.322,1.016,3.967,4.631,3.967,4.631l.606,4.228L200.5,265.953l1.3-3.066a5.473,5.473,0,0,0,.458-.893c.92-2.322-.817-4.631-2.459-5.281s-3.718.7-4.638,3.027c-.907,2.29-.021,5.2,1.579,5.9v0l3.407,1.419.025-.08Zm-5.751-7.428.364,4.061a9.3,9.3,0,0,1-1.7-6.211,3.92,3.92,0,0,0-.758-2.171,4.6,4.6,0,0,1,2.1,4.321Z" transform="translate(-183.909 -202.226)" fill="#3f3d56"/>
    </g>
  </g>
</svg>
