<svg xmlns="http://www.w3.org/2000/svg" width="292.537" height="229.759" viewBox="0 0 292.537 229.759">
  <g id="Group_129" data-name="Group 129" transform="translate(-61 -138.437)">
    <g id="undraw_reading_0re1" transform="translate(61 157.628)">
      <ellipse id="Ellipse_246" data-name="Ellipse 246" cx="74.282" cy="9.321" rx="74.282" ry="9.321" transform="translate(69.693 191.926)" fill="#3f3d56"/>
      <path id="Path_363" data-name="Path 363" d="M367.479,387.143l-28.716,13.591,25.415-19a143.417,143.417,0,0,0-13.877-18.26L225.763,394.424l112.493-42.912a143.394,143.394,0,0,0-16.336-12.451L132.154,369.627a142.219,142.219,0,0,0-31.147,88.754H386.657a142.142,142.142,0,0,0-19.178-71.238Z" transform="translate(-97.85 -265.594)" fill="#f2f2f2"/>
      <path id="Path_364" data-name="Path 364" d="M388.61,272.494a142.925,142.925,0,0,0-172.32,37.041C261.153,299.705,339.264,282.689,388.61,272.494Z" transform="translate(-180.07 -207.851)" fill="#f2f2f2"/>
      <circle id="Ellipse_247" data-name="Ellipse 247" cx="4.279" cy="4.279" r="4.279" transform="translate(232.355 69.819)" fill="#b46576" opacity="0.4"/>
      <circle id="Ellipse_248" data-name="Ellipse 248" cx="3.002" cy="3.002" r="3.002" transform="translate(225.713 73.14)" fill="#b46576" opacity="0.4"/>
      <circle id="Ellipse_249" data-name="Ellipse 249" cx="8.962" cy="8.962" r="8.962" transform="translate(25.096 76.476)" fill="#b46576" opacity="0.4"/>
      <circle id="Ellipse_250" data-name="Ellipse 250" cx="6.287" cy="6.287" r="6.287" transform="translate(11.185 83.431)" fill="#b46576" opacity="0.4"/>
      <rect id="Rectangle_82" data-name="Rectangle 82" width="292.537" height="0.574" transform="translate(0 192.5)" fill="#2f2e41"/>
      <path id="Path_365" data-name="Path 365" d="M937.784,669.941,915,636.1s34.5,12.046,30.588,33.843Z" transform="translate(-678.389 -477.441)" fill="#3f3d56"/>
      <path id="Path_366" data-name="Path 366" d="M977.381,669.941l22.784-33.843s-34.5,12.046-30.589,33.843Z" transform="translate(-717.091 -477.441)" fill="#b46576"/>
      <path id="Path_370" data-name="Path 370" d="M546.335,346.627c-5.932-10.024-17.669-10.491-17.669-10.491s-11.437-1.463-18.773,13.8c-6.838,14.23-16.276,27.969-1.519,31.3l2.665-8.3,1.651,8.914a57.739,57.739,0,0,0,6.314.108c15.8-.51,30.853.149,30.369-5.522C548.728,368.9,552.044,356.272,546.335,346.627Z" transform="translate(-382.81 -263.481)" fill="#2f2e41"/>
      <path id="Path_371" data-name="Path 371" d="M518.906,665.791a23.408,23.408,0,0,1-.757,3.258c-.371,1.044-.944,2.009-1.284,3.064-1.082,3.362.418,7.11,2.813,9.7A15.836,15.836,0,0,0,527.4,686.4a31.5,31.5,0,0,0,6.635.7c6.167.209,12.493.4,18.336-1.586a31.868,31.868,0,0,0,5.327-2.42,3.989,3.989,0,0,0,1.382-1.088,3.8,3.8,0,0,0,.5-2.233c-.013-2.614-.543-5.215-.417-7.827a31.033,31.033,0,0,0,.207-4.334,8,8,0,0,0-6.11-6.887,16.6,16.6,0,0,0-5.065,0,129.138,129.138,0,0,1-13.181.589c-4.5-.029-8.966-.715-13.44-.787-1.323-.021-1.3.387-1.718,1.667A31.2,31.2,0,0,0,518.906,665.791Z" transform="translate(-394.185 -494.862)" fill="#2f2e41"/>
      <path id="Path_372" data-name="Path 372" d="M556,440.4a7.85,7.85,0,0,1-1.13,3.234c-.782,1.07-2.058,1.681-2.9,2.7-1.267,1.541-1.339,3.71-1.345,5.7,0,1.838.033,3.8,1.057,5.323a9.3,9.3,0,0,0,2.666,2.351c3.843,2.59,8,5.226,12.63,5.312a6.716,6.716,0,0,0,5.242-1.907,7.87,7.87,0,0,0,1.269-2.264,30.066,30.066,0,0,0,2.128-9.153,10.745,10.745,0,0,0-.405-4.4c-.563-1.569-1.7-2.861-2.453-4.349a9.682,9.682,0,0,1-.932-5.729.618.618,0,0,0-.033-.415.6.6,0,0,0-.5-.2l-9.188-.661a19.993,19.993,0,0,1-2.551-.292c-.5-.1-1.8-.8-2.276-.617C556.409,435.391,556.179,439.464,556,440.4Z" transform="translate(-418.518 -334.027)" fill="#ffb8b8"/>
      <path id="Path_373" data-name="Path 373" d="M556,440.4a7.85,7.85,0,0,1-1.13,3.234c-.782,1.07-2.058,1.681-2.9,2.7-1.267,1.541-1.339,3.71-1.345,5.7,0,1.838.033,3.8,1.057,5.323a9.3,9.3,0,0,0,2.666,2.351c3.843,2.59,8,5.226,12.63,5.312a6.716,6.716,0,0,0,5.242-1.907,7.87,7.87,0,0,0,1.269-2.264,30.066,30.066,0,0,0,2.128-9.153,10.745,10.745,0,0,0-.405-4.4c-.563-1.569-1.7-2.861-2.453-4.349a9.682,9.682,0,0,1-.932-5.729.618.618,0,0,0-.033-.415.6.6,0,0,0-.5-.2l-9.188-.661a19.993,19.993,0,0,1-2.551-.292c-.5-.1-1.8-.8-2.276-.617C556.409,435.391,556.179,439.464,556,440.4Z" transform="translate(-418.518 -334.027)" opacity="0.1"/>
      <circle id="Ellipse_251" data-name="Ellipse 251" cx="13.48" cy="13.48" r="13.48" transform="translate(132.789 80.647)" fill="#ffb8b8"/>
      <path id="Path_374" data-name="Path 374" d="M563.844,493.99a8.267,8.267,0,0,0,2.368,1.892,7.44,7.44,0,0,0,2.958.563c2.43.068,5.064-.377,6.754-2.124,2.179-2.252,2.107-5.884,3.815-8.511a1.9,1.9,0,0,1,.55-.6,1.784,1.784,0,0,1,.936-.215c2.157-.02,4.036,1.379,5.732,2.712a7.55,7.55,0,0,1,2.017,2.055,6.966,6.966,0,0,1,.68,2.083,91.531,91.531,0,0,1,1.385,12.493c.149,2.311.3,4.625.288,6.941-.037,7.63-1.81,15.133-3.574,22.557a3.524,3.524,0,0,1-1.408,2.484,3.47,3.47,0,0,1-1.229.3,150.382,150.382,0,0,1-15.2,1.266q-2.977.046-5.951-.144a3.2,3.2,0,0,1-1-.175,2.828,2.828,0,0,1-1.093-.928c-2.751-3.466-2.913-8.259-2.9-12.684q.064-16.229,1.16-32.433a3.568,3.568,0,0,0-.569-2.676A33.495,33.495,0,0,0,563.844,493.99Z" transform="translate(-424.471 -369.671)" fill="#d0cde1"/>
      <path id="Path_375" data-name="Path 375" d="M514.263,459.1c-.455.824-3.812,2.871-4.46,3.554-3.621,3.816-10.229,3.673-13.54,7.761a12.736,12.736,0,0,0-2.215,5.042c-.63,2.541-.966,5.312.089,7.707,1.015,2.305,3.151,3.9,4.6,5.958a22.947,22.947,0,0,1,2.995,7.685,17.687,17.687,0,0,1,.82,6.038c-.224,2.311-1.343,4.427-2,6.652s-.774,4.877.752,6.626a7.56,7.56,0,0,0,4.562,2.081,52.441,52.441,0,0,0,6.5.566c1.922.085,4.041.1,5.518-1.131a5.548,5.548,0,0,0,1.738-4.067,26.239,26.239,0,0,0-.448-4.525c-.2-1.56-.284-3.134-.349-4.707q-.443-10.582-.121-21.178a18.022,18.022,0,0,0-.214-4.395,24.088,24.088,0,0,0-2.286-5.315,20.112,20.112,0,0,1-2.23-10.624C514.234,459.05,515.883,456.17,514.263,459.1Z" transform="translate(-377.745 -350.348)" fill="#b46576"/>
      <path id="Path_376" data-name="Path 376" d="M620.415,456.119c.693.713,3.05.948,3.932,1.407a13.776,13.776,0,0,0,2.585.895,33.557,33.557,0,0,1,9.08,4.167,5.51,5.51,0,0,1,1.518,1.312,6.012,6.012,0,0,1,.84,2.372,20.187,20.187,0,0,1-.723,13.253l-2.584,8.263c-1.929,6.167-3.87,12.4-4.413,18.835a44.3,44.3,0,0,0,.4,10.7,1.269,1.269,0,0,1-.13,1.036,1.02,1.02,0,0,1-.633.291,6.208,6.208,0,0,1-3.585-1,39.7,39.7,0,0,0-10.943-3.581,25.437,25.437,0,0,0,3.4-7.007,42.407,42.407,0,0,0,1.027-4.819l1.2-6.954a68.331,68.331,0,0,0,1.031-7.689,9.627,9.627,0,0,0-.167-2.9,14.049,14.049,0,0,0-1.1-2.612,22.321,22.321,0,0,1-2.131-13.331c.341-1.972,1-3.947.728-5.929-.266-1.906.01-3.387-.479-5.273C617.26,449.809,619.11,454.778,620.415,456.119Z" transform="translate(-464.968 -347.078)" fill="#b46576"/>
      <path id="Path_377" data-name="Path 377" d="M495.192,510.589c-.9,1.875-2.414,3.471-2.927,5.488a11.988,11.988,0,0,0-.255,2.868,13.626,13.626,0,0,0,.425,4.313c.287.889.754,1.709,1.09,2.581a9.358,9.358,0,0,1,.613,3.823c-.091,1.806-.7,3.558-.752,5.365-.075,2.842,1.239,5.514,2.522,8.051a5.918,5.918,0,0,1,8.6-2.816,1.764,1.764,0,0,0,.388-1.286q.142-4.946.274-9.892c.139-5.1.271-10.267-.9-15.232a14.37,14.37,0,0,0-2.865-6.213c-.8-.915-3.5-3.327-4.8-2.3-.587.461-.45,1.717-.543,2.352A9.98,9.98,0,0,1,495.192,510.589Z" transform="translate(-376.708 -384.005)" fill="#b46576"/>
      <path id="Path_378" data-name="Path 378" d="M659.176,493.506a13.793,13.793,0,0,1,.461,4.149q.026,4.275-.113,8.55a15.938,15.938,0,0,1-.555,4.329c-.292.917-.742,1.777-1.043,2.692-.9,2.74-.41,5.711-.332,8.6a9.764,9.764,0,0,1-.236,2.78c-.476,1.788-1.757,3.232-2.651,4.852a47.706,47.706,0,0,1-2.375,4.7c-1.014,1.435-2.769,2.572-4.469,2.132a4.934,4.934,0,0,1-2.838-2.646,12.976,12.976,0,0,1-1.342-8.417c.636-3.5,2.692-6.6,3.433-10.084,1.018-4.778-.529-9.708-.483-14.593a7.05,7.05,0,0,1,.307-2.262,9.467,9.467,0,0,1,2-2.9,36.638,36.638,0,0,0,2.682-3.52c.552-.824,1.3-2.943,2.282-3.119C656.087,488.347,658.634,491.817,659.176,493.506Z" transform="translate(-484.742 -372.324)" fill="#b46576"/>
      <path id="Path_379" data-name="Path 379" d="M432.654,670.481a13.3,13.3,0,0,0-3.7-.393,9.237,9.237,0,0,0-8.576,10.889,15.516,15.516,0,0,0,1.467,4.007,13.39,13.39,0,0,0,3.976,5.256,15.488,15.488,0,0,0,3.509,1.67l9.57,3.605c1.408.53,2.816,1.061,4.238,1.553a82.89,82.89,0,0,0,22.135,4.4,23.966,23.966,0,0,0,6.872-.348,2.237,2.237,0,0,0,1.408-.76,2.41,2.41,0,0,0,.314-1.039l.589-4.123a3.453,3.453,0,0,0-.05-1.738,3.329,3.329,0,0,0-1.591-1.5c-6.292-3.614-13.638-5.607-18.934-10.567-1.247-1.167-2.29-3.018-3.8-3.811-1.718-.9-3.741-1.413-5.516-2.241C440.677,673.53,436.86,671.448,432.654,670.481Z" transform="translate(-325.516 -501.676)" fill="#2f2e41"/>
      <path id="Path_380" data-name="Path 380" d="M486.218,688.5c3.383,1.06,17.664,8.4,20.112,10.967-.328.118-11.461-6.121-11.795-6.221a67.267,67.267,0,0,1-8.974-3.162c-.58-.268-3.769-1.529-3.624-2.261C482.1,687,485.617,688.314,486.218,688.5Z" transform="translate(-369.525 -514.14)" opacity="0.1"/>
      <path id="Path_381" data-name="Path 381" d="M609.525,765.22a.794.794,0,0,0,.536-.158.828.828,0,0,0,.168-.617l-.016-5.617a17.267,17.267,0,0,0-5.195-1.253l-8.274-1.106c.19.025-1.294,3.564-1.066,4.036.4.833,3.465,1.57,4.33,1.964C603.014,763.835,606.138,765.338,609.525,765.22Z" transform="translate(-450.632 -563.289)" fill="#ffb8b8"/>
      <path id="Path_382" data-name="Path 382" d="M540.825,754.6c-1.562.249-3.306.469-4.318,1.685-1.283,1.542-.737,3.841-.125,5.751a1.865,1.865,0,0,0,2.175,1.556,7.519,7.519,0,0,0,4.186-.538,18.334,18.334,0,0,0,1.626-1.209,10.428,10.428,0,0,1,2.989-1.367,30.227,30.227,0,0,1,6-1.237,9.334,9.334,0,0,0,2.364-.417,2.62,2.62,0,0,0,1.665-1.616,3.851,3.851,0,0,0-.874-2.956,11.792,11.792,0,0,0-2.516-3.11c-1.542-1.2-2.3-.278-3.857.488A32.723,32.723,0,0,1,540.825,754.6Z" transform="translate(-407.891 -559.076)" fill="#ffb8b8"/>
      <path id="Path_383" data-name="Path 383" d="M492.285,760.464l-9.919-2.932a13.132,13.132,0,0,0-3.691-.715,4.432,4.432,0,0,0-3.39,1.371,6.6,6.6,0,0,0-1.181,3.307l-.41,2.5a12.574,12.574,0,0,0-.23,3.845,4.251,4.251,0,0,0,1.971,3.167c1.373.749,3.055.383,4.587.07a49.94,49.94,0,0,1,9.4-1.008,7.546,7.546,0,0,0,3.482-.555,4.347,4.347,0,0,0,2.121-3.464C495.219,763.914,494.507,761.121,492.285,760.464Z" transform="translate(-363.434 -563.537)" fill="#2f2e41"/>
      <path id="Path_384" data-name="Path 384" d="M647.158,755.679a24.1,24.1,0,0,0,3.653-1.388,16.247,16.247,0,0,1,5.451-.6,2.639,2.639,0,0,1,3.109,2.971l.83,5.808a9.114,9.114,0,0,1,.068,3.29,3.1,3.1,0,0,1-2.045,2.391c-1.3.337-2.569-.491-3.793-1.036-3.061-1.36-6.619-1.013-9.811-2.029a2.2,2.2,0,0,1-1.468-1.05,2.389,2.389,0,0,1-.114-1c.055-1.867-.339-4.416.223-6.2C643.765,755.228,645.722,755.679,647.158,755.679Z" transform="translate(-484.366 -561.307)" fill="#2f2e41"/>
      <path id="Path_385" data-name="Path 385" d="M627.989,662.042a17.224,17.224,0,0,1,6.068-.414,6.4,6.4,0,0,1,6.421,7.219,17.077,17.077,0,0,1-3.712,10.906,9.892,9.892,0,0,1-2.122,2.043,13.97,13.97,0,0,1-2.761,1.331l-21.432,8.453a138.461,138.461,0,0,1-17.177,5.92,1.339,1.339,0,0,1-1.8-.653,44.406,44.406,0,0,1-4.7-8.593.579.579,0,0,1,.256-.913l15.159-8.71a15.329,15.329,0,0,0,3.085-2.126,7.659,7.659,0,0,0,1.584-2.205c.314-.656.344-2.205.745-2.69s1.737-.513,2.358-.7a21.392,21.392,0,0,0,2.567-.97c3.391-1.517,6.411-3.721,9.661-5.5A24.789,24.789,0,0,1,627.989,662.042Z" transform="translate(-444.206 -495.575)" fill="#2f2e41"/>
      <path id="Path_386" data-name="Path 386" d="M640.332,681.88c-2.6,1.956-5.977,3.754-8.558,5.762-.881.685-15.566,8.941-15.774,10.038,2.408.406,17.748-10.326,19.943-11.4a35.447,35.447,0,0,0,6.068-4.08c.491-.382,2.573-1.53,1.163-1.957C642.38,680.006,640.918,681.489,640.332,681.88Z" transform="translate(-465.142 -508.909)" opacity="0.1"/>
      <path id="Path_387" data-name="Path 387" d="M484.133,271.435l-11.6-6.074-16.012,2.485-3.313,14.632,8.247-.317,2.3-5.376v5.287l3.805-.147,2.209-8.558,1.38,9.111,13.528-.276Z" transform="translate(-323.23 -189.255)" fill="#2f2e41"/>
      <rect id="Rectangle_83" data-name="Rectangle 83" width="24.952" height="30.114" transform="translate(133.363 112.196)" fill="#3f3d56"/>
      <path id="Path_388" data-name="Path 388" d="M507.977,563.932a6.026,6.026,0,0,0,2.164,2.153,4.233,4.233,0,0,0,3.721-.1,6.548,6.548,0,0,0,2.685-2.692,13.4,13.4,0,0,0,1.364-7.441c-.157-2.552-.7-5.066-.943-7.612-.175-1.851-.19-3.712-.2-5.571a1.853,1.853,0,0,1,.234-1.127,2.212,2.212,0,0,1,1.243-.621c2.543-.756,4.232-3.14,5.442-5.5a9.534,9.534,0,0,0,1.355-5.065,3.976,3.976,0,0,0-3.187-3.723,5.11,5.11,0,0,0-3.843,1.792,16.478,16.478,0,0,0-4.825,9.642,37.349,37.349,0,0,1-.652,5.38c-1.042,3.719-4.3,6-5.927,9.347C504.814,556.482,505.8,560.669,507.977,563.932Z" transform="translate(-386.46 -399.36)" fill="#ffb8b8"/>
      <path id="Path_389" data-name="Path 389" d="M643.265,522.14a7.029,7.029,0,0,1-3.942,3.788,5.444,5.444,0,0,1-3.427.21,3.8,3.8,0,0,1-2.51-2.245,6.049,6.049,0,0,1-.283-1.687,17.379,17.379,0,0,1,.811-7.435c.351-.9.825-1.76,1.1-2.689a13.489,13.489,0,0,0,.415-3.282l.3-6.844a4.455,4.455,0,0,0-.1-1.484,4.69,4.69,0,0,0-2.073-2.224c-2.051-1.426-4.078-3.09-5.071-5.382a3.775,3.775,0,0,1-.35-2.229,3.706,3.706,0,0,1,3.007-2.535,6.726,6.726,0,0,1,8.064,5.421c.134.772.132,1.561.211,2.341.167,1.654.692,3.249,1.02,4.879.809,4.015.39,8.166,1.19,12.18C642.3,516.277,644.82,518.467,643.265,522.14Z" transform="translate(-473.768 -371.777)" fill="#ffb8b8"/>
      <path id="Path_390" data-name="Path 390" d="M141.2,640.548l-.574-.011a133.026,133.026,0,0,1,2.036-19.011c2.48-13.445,6.6-22.276,12.259-26.246l.329.469C142.047,605.023,141.211,640.194,141.2,640.548Z" transform="translate(-126.11 -448.329)" fill="#2f2e41"/>
      <path id="Path_391" data-name="Path 391" d="M166.2,703.513l-.574-.011c.012-.635.371-15.606,6.265-19.744l.329.469C166.569,688.2,166.207,703.361,166.2,703.513Z" transform="translate(-143.94 -511.432)" fill="#2f2e41"/>
      <circle id="Ellipse_252" data-name="Ellipse 252" cx="2.868" cy="2.868" r="2.868" transform="translate(29.541 141.736)" fill="#b46576"/>
      <circle id="Ellipse_253" data-name="Ellipse 253" cx="2.868" cy="2.868" r="2.868" transform="translate(28.12 166.401)" fill="#b46576"/>
      <path id="Path_392" data-name="Path 392" d="M153.5,588.308a12.739,12.739,0,0,1-.866,6.522,11.61,11.61,0,0,1-1.952-12.467A12.739,12.739,0,0,1,153.5,588.308Z" transform="translate(-132.576 -439.117)" fill="#2f2e41"/>
      <path id="Path_393" data-name="Path 393" d="M179.311,622.013a12.74,12.74,0,0,1-6.573.284,11.61,11.61,0,0,1,11.937-4.094A12.739,12.739,0,0,1,179.311,622.013Z" transform="translate(-149.009 -464.461)" fill="#2f2e41"/>
      <path id="Path_394" data-name="Path 394" d="M184.569,701.165a8.929,8.929,0,0,1-4.607.2,8.138,8.138,0,0,1,8.367-2.87A8.929,8.929,0,0,1,184.569,701.165Z" transform="translate(-154.161 -521.769)" fill="#2f2e41"/>
    </g>
    <g id="Group_10" data-name="Group 10" transform="translate(-12.15 -84.471)">
      <path id="Path_116" data-name="Path 116" d="M284.353,93.5l-8.608,5.457,5.224-9.5a8.508,8.508,0,0,0-5.208-1.858h-.139a10.071,10.071,0,0,1-1.786-.133l-2.917,1.847,1.253-2.274a10.328,10.328,0,0,1-5.1-3.882l-5.224,3.328,3.3-6a15.284,15.284,0,0,0-11.7-5.912c-5.43,0-10.266,3.228-13.388,8.258a9.983,9.983,0,0,1-8.874,4.77h-.294c-6,0-10.854,6.794-10.854,15.18s4.858,15.18,10.854,15.18a8.169,8.169,0,0,0,3.782-.948,15.634,15.634,0,0,1,13.133-.255,13.677,13.677,0,0,0,11.17,0,15.668,15.668,0,0,1,13.022.255,8.126,8.126,0,0,0,3.738.926c6,0,10.854-6.8,10.854-15.18A19.252,19.252,0,0,0,284.353,93.5Z" transform="translate(66.96 148.328)" fill="#f2f2f2"/>
      <path id="Path_117" data-name="Path 117" d="M268.156,131.6a16.023,16.023,0,0,0-9.284,1.009,13.7,13.7,0,0,1-11.17,0,15.651,15.651,0,0,0-13.133.261,8.181,8.181,0,0,1-3.782.943c-5.324,0-9.756-5.363-10.676-12.44a10.36,10.36,0,0,0,2.662-2.867c3.122-5.036,7.959-8.264,13.388-8.264s10.2,3.189,13.311,8.169a10.266,10.266,0,0,0,8.846,4.831h.139C262.7,123.24,266.37,126.64,268.156,131.6Z" transform="translate(66.929 132.445)" opacity="0.03"/>
    </g>
    <g id="Group_30" data-name="Group 30" transform="translate(-62.15 -48.374)">
      <path id="Path_116-2" data-name="Path 116" d="M256.045,85.174l-4.819,3.055,2.925-5.319a4.763,4.763,0,0,0-2.916-1.04h-.078a5.638,5.638,0,0,1-1-.075l-1.633,1.034.7-1.273a5.782,5.782,0,0,1-2.857-2.173l-2.925,1.863,1.847-3.356a8.557,8.557,0,0,0-6.548-3.31,8.976,8.976,0,0,0-7.5,4.623,5.589,5.589,0,0,1-4.968,2.67h-.165c-3.356,0-6.076,3.8-6.076,8.5s2.72,8.5,6.076,8.5a4.574,4.574,0,0,0,2.118-.531,8.753,8.753,0,0,1,7.353-.143,7.657,7.657,0,0,0,6.253,0,8.772,8.772,0,0,1,7.29.143,4.549,4.549,0,0,0,2.093.519c3.356,0,6.076-3.807,6.076-8.5A10.778,10.778,0,0,0,256.045,85.174Z" transform="translate(66.96 148.328)" fill="#f2f2f2"/>
      <path id="Path_117-2" data-name="Path 117" d="M247.008,122.2a8.97,8.97,0,0,0-5.2.565,7.672,7.672,0,0,1-6.253,0,8.762,8.762,0,0,0-7.353.146,4.58,4.58,0,0,1-2.118.528c-2.981,0-5.462-3-5.977-6.964a5.8,5.8,0,0,0,1.49-1.605,8.371,8.371,0,0,1,14.947-.053,5.747,5.747,0,0,0,4.952,2.7h.078C243.953,117.518,246.008,119.421,247.008,122.2Z" transform="translate(66.912 123.74)" opacity="0.03"/>
    </g>
    <g id="Group_31" data-name="Group 31" transform="translate(-206.15 -44.374)">
      <path id="Path_116-3" data-name="Path 116" d="M260.114,86.371l-5.363,3.4,3.255-5.92a5.3,5.3,0,0,0-3.245-1.158h-.086a6.275,6.275,0,0,1-1.113-.083l-1.818,1.151.781-1.417a6.435,6.435,0,0,1-3.179-2.419L246.09,82l2.056-3.736a9.524,9.524,0,0,0-7.288-3.684c-3.383,0-6.4,2.011-8.342,5.146a6.221,6.221,0,0,1-5.529,2.972H226.8c-3.736,0-6.763,4.233-6.763,9.459s3.027,9.459,6.763,9.459a5.09,5.09,0,0,0,2.357-.591,9.742,9.742,0,0,1,8.183-.159,8.522,8.522,0,0,0,6.96,0,9.763,9.763,0,0,1,8.114.159,5.063,5.063,0,0,0,2.329.577c3.736,0,6.763-4.237,6.763-9.459A12,12,0,0,0,260.114,86.371Z" transform="translate(66.96 148.328)" fill="#f2f2f2"/>
      <path id="Path_117-3" data-name="Path 117" d="M250.048,123.548a9.984,9.984,0,0,0-5.785.629,8.539,8.539,0,0,1-6.96,0,9.752,9.752,0,0,0-8.183.162,5.1,5.1,0,0,1-2.357.587c-3.318,0-6.079-3.342-6.652-7.751a6.455,6.455,0,0,0,1.659-1.787c1.946-3.138,4.959-5.149,8.342-5.149s6.359,1.987,8.294,5.09a6.4,6.4,0,0,0,5.512,3.01H244C246.647,118.34,248.935,120.459,250.048,123.548Z" transform="translate(66.914 124.991)" opacity="0.03"/>
    </g>
  </g>
</svg>
