<svg xmlns="http://www.w3.org/2000/svg" width="267.036" height="246.113" viewBox="0 0 267.036 246.113">
  <g id="Group_128" data-name="Group 128" transform="translate(-67.949 -121.47)">
    <g id="Group_8" data-name="Group 8" transform="translate(-219.051 -47)">
      <path id="Path_116" data-name="Path 116" d="M283.25,93.179l-8.46,5.364,5.135-9.338a8.362,8.362,0,0,0-5.118-1.826h-.136a9.9,9.9,0,0,1-1.755-.131l-2.867,1.815,1.232-2.235a10.15,10.15,0,0,1-5.015-3.816l-5.135,3.271,3.243-5.893a15.022,15.022,0,0,0-11.5-5.811c-5.336,0-10.09,3.172-13.159,8.117A9.812,9.812,0,0,1,231,87.384h-.289c-5.893,0-10.668,6.677-10.668,14.919s4.775,14.919,10.668,14.919a8.029,8.029,0,0,0,3.718-.932,15.366,15.366,0,0,1,12.908-.251,13.442,13.442,0,0,0,10.978,0,15.4,15.4,0,0,1,12.8.251,7.986,7.986,0,0,0,3.674.91c5.892,0,10.668-6.683,10.668-14.919A18.921,18.921,0,0,0,283.25,93.179Z" transform="translate(66.96 148.328)" fill="#f2f2f2"/>
      <path id="Path_117" data-name="Path 117" d="M267.332,131.232a15.748,15.748,0,0,0-9.125.992,13.469,13.469,0,0,1-10.978,0,15.383,15.383,0,0,0-12.908.256,8.041,8.041,0,0,1-3.718.927c-5.233,0-9.588-5.271-10.493-12.227a10.183,10.183,0,0,0,2.616-2.818c3.069-4.95,7.822-8.122,13.159-8.122s10.03,3.134,13.082,8.029a10.09,10.09,0,0,0,8.694,4.748h.136C261.968,123.017,265.577,126.359,267.332,131.232Z" transform="translate(66.928 132.106)" opacity="0.03"/>
    </g>
    <g id="Group_9" data-name="Group 9" transform="translate(-31 22.462)">
      <path id="Path_116-2" data-name="Path 116" d="M272.843,90.117,265.776,94.6l4.289-7.8a6.985,6.985,0,0,0-4.276-1.525h-.114a8.269,8.269,0,0,1-1.466-.109l-2.4,1.516,1.029-1.867a8.479,8.479,0,0,1-4.189-3.188l-4.289,2.732,2.709-4.922a12.549,12.549,0,0,0-9.6-4.854c-4.458,0-8.429,2.65-10.992,6.78a8.2,8.2,0,0,1-7.286,3.916h-.241c-4.922,0-8.911,5.578-8.911,12.463s3.989,12.463,8.911,12.463a6.707,6.707,0,0,0,3.106-.779,12.836,12.836,0,0,1,10.783-.209,11.229,11.229,0,0,0,9.171,0,12.864,12.864,0,0,1,10.692.209,6.671,6.671,0,0,0,3.069.76c4.922,0,8.911-5.583,8.911-12.463A15.806,15.806,0,0,0,272.843,90.117Z" transform="translate(66.96 148.328)" fill="#f2f2f2"/>
      <path id="Path_117-2" data-name="Path 117" d="M259.558,127.776a13.156,13.156,0,0,0-7.623.829,11.252,11.252,0,0,1-9.171,0,12.85,12.85,0,0,0-10.783.214,6.717,6.717,0,0,1-3.106.774c-4.371,0-8.01-4.4-8.766-10.214a8.506,8.506,0,0,0,2.186-2.354c2.564-4.135,6.534-6.785,10.992-6.785s8.379,2.618,10.929,6.707a8.429,8.429,0,0,0,7.263,3.966h.114C255.077,120.914,258.092,123.7,259.558,127.776Z" transform="translate(66.922 128.906)" opacity="0.03"/>
    </g>
    <g id="Group_10" data-name="Group 10" transform="translate(-58 -101.437)">
      <path id="Path_116-3" data-name="Path 116" d="M305.3,99.668,293.893,106.9l6.926-12.6a11.28,11.28,0,0,0-6.9-2.463h-.184a13.352,13.352,0,0,1-2.368-.176L287.5,94.117l1.662-3.015a13.692,13.692,0,0,1-6.765-5.147l-6.926,4.412,4.375-7.949c-4.051-4.86-9.507-7.838-15.507-7.838-7.2,0-13.61,4.279-17.75,10.949a13.235,13.235,0,0,1-11.765,6.324h-.39c-7.949,0-14.39,9.007-14.39,20.125s6.441,20.125,14.39,20.125a10.83,10.83,0,0,0,5.015-1.257,20.728,20.728,0,0,1,17.412-.338,18.133,18.133,0,0,0,14.809,0,20.772,20.772,0,0,1,17.265.338,10.773,10.773,0,0,0,4.956,1.228c7.949,0,14.39-9.015,14.39-20.125A25.523,25.523,0,0,0,305.3,99.668Z" transform="translate(66.96 148.328)" fill="#f2f2f2"/>
      <path id="Path_117-3" data-name="Path 117" d="M283.809,138.556a21.243,21.243,0,0,0-12.309,1.338,18.169,18.169,0,0,1-14.809,0,20.75,20.75,0,0,0-17.412.346,10.846,10.846,0,0,1-5.015,1.25c-7.059,0-12.934-7.11-14.154-16.493a13.736,13.736,0,0,0,3.529-3.8c4.14-6.676,10.552-10.956,17.75-10.956s13.529,4.228,17.647,10.831a13.61,13.61,0,0,0,11.728,6.4h.184C276.573,127.475,281.441,131.983,283.809,138.556Z" transform="translate(66.941 138.888)" opacity="0.03"/>
    </g>
    <g id="Group_2" data-name="Group 2" transform="translate(78.043 132.29)">
      <g id="undraw_video_upload_3d4u" transform="translate(0)">
        <path id="Path_34" data-name="Path 34" d="M470.756,125.7h-1.244V91.614a19.727,19.727,0,0,0-19.727-19.727H377.573a19.727,19.727,0,0,0-19.727,19.727V278.6a19.727,19.727,0,0,0,19.727,19.727h72.212A19.727,19.727,0,0,0,469.512,278.6V149.96h1.244Z" transform="translate(-304.302 -71.887)" fill="#e6e6e6"/>
        <path id="Path_35" data-name="Path 35" d="M462.632,88.382h-9.426a7,7,0,0,1-6.48,9.642H405.357a7,7,0,0,1-6.48-9.642h-8.8a14.732,14.732,0,0,0-14.732,14.732V289.828a14.732,14.732,0,0,0,14.732,14.732h72.56a14.732,14.732,0,0,0,14.732-14.732h0V103.114a14.732,14.732,0,0,0-14.732-14.732Z" transform="translate(-316.354 -83.25)" fill="#fff"/>
        <path id="Path_36" data-name="Path 36" d="M304.06,475.632h-.933l1.867-124.768h.933Z" transform="translate(-207.978 -241.696)" fill="#3f3d56"/>
        <path id="Path_37" data-name="Path 37" d="M381.927,475.632h-.933l-1.867-124.768h.933Z" transform="translate(-260.332 -241.696)" fill="#3f3d56"/>
        <rect id="Rectangle_12" data-name="Rectangle 12" width="21.78" height="0.933" transform="translate(97.327 111.658)" fill="#3f3d56"/>
        <rect id="Rectangle_13" data-name="Rectangle 13" width="21.78" height="0.933" transform="translate(97.327 127.837)" fill="#3f3d56"/>
        <rect id="Rectangle_14" data-name="Rectangle 14" width="22.713" height="0.933" transform="translate(97.016 144.016)" fill="#3f3d56"/>
        <rect id="Rectangle_15" data-name="Rectangle 15" width="23.024" height="0.933" transform="translate(97.016 160.196)" fill="#3f3d56"/>
        <rect id="Rectangle_16" data-name="Rectangle 16" width="23.647" height="0.933" transform="translate(96.704 176.375)" fill="#3f3d56"/>
        <rect id="Rectangle_17" data-name="Rectangle 17" width="23.958" height="0.933" transform="translate(96.393 192.554)" fill="#3f3d56"/>
        <rect id="Rectangle_18" data-name="Rectangle 18" width="24.58" height="0.933" transform="translate(96.082 208.734)" fill="#3f3d56"/>
        <rect id="Rectangle_19" data-name="Rectangle 19" width="25.514" height="0.933" transform="translate(95.46 224.913)" fill="#3f3d56"/>
        <circle id="Ellipse_92" data-name="Ellipse 92" cx="13.072" cy="13.072" r="13.072" transform="translate(94.108 143.811)" fill="#2f2e41"/>
        <rect id="Rectangle_20" data-name="Rectangle 20" width="3.971" height="7.115" transform="translate(110.961 166.625) rotate(-10.261)" fill="#2f2e41"/>
        <rect id="Rectangle_21" data-name="Rectangle 21" width="3.971" height="7.115" transform="translate(103.146 168.04) rotate(-10.261)" fill="#2f2e41"/>
        <ellipse id="Ellipse_93" data-name="Ellipse 93" cx="3.309" cy="1.241" rx="3.309" ry="1.241" transform="matrix(0.763, -0.646, 0.646, 0.763, 102.358, 176.759)" fill="#2f2e41"/>
        <ellipse id="Ellipse_94" data-name="Ellipse 94" cx="3.309" cy="1.241" rx="3.309" ry="1.241" transform="matrix(0.763, -0.646, 0.646, 0.763, 110.011, 175.373)" fill="#2f2e41"/>
        <ellipse id="Ellipse_95" data-name="Ellipse 95" cx="4.468" cy="4.468" rx="4.468" ry="4.468" transform="translate(101.797 149.218)" fill="#fff"/>
        <ellipse id="Ellipse_96" data-name="Ellipse 96" cx="1.489" cy="1.489" rx="1.489" ry="1.489" transform="translate(102.939 150.595)" fill="#3f3d56"/>
        <path id="Path_38" data-name="Path 38" d="M520.53,510.11c.2-4.839-3.974-8.938-9.316-9.155s-9.831,3.53-10.028,8.37,3.516,5.939,8.858,6.156S520.334,514.95,520.53,510.11Z" transform="translate(-403.039 -367.448)" fill="#b46576"/>
        <ellipse id="Ellipse_97" data-name="Ellipse 97" cx="2.052" cy="6.536" rx="2.052" ry="6.536" transform="matrix(0.223, -0.975, 0.975, 0.223, 88.28, 155.041)" fill="#2f2e41"/>
        <ellipse id="Ellipse_98" data-name="Ellipse 98" cx="2.052" cy="6.536" rx="2.052" ry="6.536" transform="matrix(0.223, -0.975, 0.975, 0.223, 113.939, 159.308)" fill="#2f2e41"/>
        <path id="Path_39" data-name="Path 39" d="M528.7,589.223a2.978,2.978,0,0,1-5.86,1.067v-.006c-.293-1.619.958-2.191,2.577-2.484S528.4,587.6,528.7,589.223Z" transform="translate(-417.928 -427.189)" fill="#fff"/>
        <path id="Path_40" data-name="Path 40" d="M481.971,274.3,398.3,281.8a1.558,1.558,0,0,1-1.688-1.411l-1.86-20.756a1.557,1.557,0,0,1,1.411-1.688l83.673-7.5a1.558,1.558,0,0,1,1.688,1.411l1.86,20.756A1.558,1.558,0,0,1,481.971,274.3Zm-85.755-15.736a.934.934,0,0,0-.846,1.013l1.86,20.756a.934.934,0,0,0,1.013.846l83.673-7.5a.934.934,0,0,0,.846-1.013l-1.86-20.756a.934.934,0,0,0-1.013-.846Z" transform="translate(-329.72 -194.885)" fill="#e6e6e6"/>
        <ellipse id="Ellipse_99" data-name="Ellipse 99" cx="6.534" cy="6.534" rx="6.534" ry="6.534" transform="translate(71.822 67.481)" fill="#e56b6f"/>
        <path id="Path_41" data-name="Path 41" d="M482.454,281.341a1.089,1.089,0,0,0,.194,2.169l51.133-4.583a1.089,1.089,0,1,0-.194-2.169Z" transform="translate(-389.456 -213.012)" fill="#e6e6e6"/>
        <path id="Path_42" data-name="Path 42" d="M484.328,302.258a1.089,1.089,0,1,0,.194,2.169l51.133-4.583a1.089,1.089,0,1,0-.194-2.169Z" transform="translate(-390.748 -227.42)" fill="#e6e6e6"/>
        <ellipse id="Ellipse_100" data-name="Ellipse 100" cx="6.7" cy="2.103" rx="6.7" ry="2.103" transform="matrix(0.357, -0.934, 0.934, 0.357, 115.39, 89.048)" fill="#2f2e41"/>
        <circle id="Ellipse_101" data-name="Ellipse 101" cx="13.4" cy="13.4" r="13.4" transform="translate(91.988 104.738) rotate(-80.783)" fill="#2f2e41"/>
        <rect id="Rectangle_22" data-name="Rectangle 22" width="4.071" height="7.294" transform="translate(101.255 104.175)" fill="#2f2e41"/>
        <rect id="Rectangle_23" data-name="Rectangle 23" width="4.071" height="7.294" transform="translate(109.397 104.175)" fill="#2f2e41"/>
        <ellipse id="Ellipse_102" data-name="Ellipse 102" cx="3.392" cy="1.272" rx="3.392" ry="1.272" transform="translate(101.255 110.281)" fill="#2f2e41"/>
        <ellipse id="Ellipse_103" data-name="Ellipse 103" cx="3.392" cy="1.272" rx="3.392" ry="1.272" transform="translate(109.397 110.112)" fill="#2f2e41"/>
        <path id="Path_43" data-name="Path 43" d="M488.6,308.053c-1.082-4.846,2.377-9.742,7.725-10.936s10.561,1.766,11.643,6.611-2.463,6.633-7.811,7.827S489.682,312.9,488.6,308.053Z" transform="translate(-394.237 -226.856)" fill="#b46576"/>
        <ellipse id="Ellipse_104" data-name="Ellipse 104" cx="2.103" cy="6.7" rx="2.103" ry="6.7" transform="translate(85.314 86.47) rotate(-64.626)" fill="#2f2e41"/>
        <circle id="Ellipse_105" data-name="Ellipse 105" cx="13.4" cy="13.4" r="13.4" transform="translate(13.227 202.726)" fill="#2f2e41"/>
        <rect id="Rectangle_24" data-name="Rectangle 24" width="4.071" height="7.294" transform="translate(20.521 226.642)" fill="#2f2e41"/>
        <rect id="Rectangle_25" data-name="Rectangle 25" width="4.071" height="7.294" transform="translate(28.663 226.642)" fill="#2f2e41"/>
        <ellipse id="Ellipse_106" data-name="Ellipse 106" cx="3.392" cy="1.272" rx="3.392" ry="1.272" transform="translate(20.521 232.749)" fill="#2f2e41"/>
        <ellipse id="Ellipse_107" data-name="Ellipse 107" cx="3.392" cy="1.272" rx="3.392" ry="1.272" transform="translate(28.663 232.579)" fill="#2f2e41"/>
        <ellipse id="Ellipse_108" data-name="Ellipse 108" cx="4.58" cy="4.58" rx="4.58" ry="4.58" transform="translate(22.387 208.154)" fill="#fff"/>
        <ellipse id="Ellipse_109" data-name="Ellipse 109" cx="1.527" cy="1.527" rx="1.527" ry="1.527" transform="translate(25.44 211.207)" fill="#3f3d56"/>
        <path id="Path_44" data-name="Path 44" d="M229.122,701.66c-1.082-4.846,2.377-9.742,7.725-10.936s10.561,1.766,11.643,6.611-2.463,6.633-7.811,7.827S230.2,706.506,229.122,701.66Z" transform="translate(-215.493 -497.996)" fill="#e6e6e6"/>
        <ellipse id="Ellipse_110" data-name="Ellipse 110" cx="6.7" cy="2.103" rx="6.7" ry="2.103" transform="matrix(0.357, -0.934, 0.934, 0.357, 30.076, 173.011)" fill="#2f2e41"/>
        <circle id="Ellipse_111" data-name="Ellipse 111" cx="13.4" cy="13.4" r="13.4" transform="translate(6.674 188.702) rotate(-80.783)" fill="#2f2e41"/>
        <rect id="Rectangle_26" data-name="Rectangle 26" width="4.071" height="7.294" transform="translate(15.941 188.139)" fill="#2f2e41"/>
        <rect id="Rectangle_27" data-name="Rectangle 27" width="4.071" height="7.294" transform="translate(24.083 188.139)" fill="#2f2e41"/>
        <ellipse id="Ellipse_112" data-name="Ellipse 112" cx="3.392" cy="1.272" rx="3.392" ry="1.272" transform="translate(15.941 194.245)" fill="#2f2e41"/>
        <ellipse id="Ellipse_113" data-name="Ellipse 113" cx="3.392" cy="1.272" rx="3.392" ry="1.272" transform="translate(24.083 194.075)" fill="#2f2e41"/>
        <ellipse id="Ellipse_114" data-name="Ellipse 114" cx="4.58" cy="4.58" rx="4.58" ry="4.58" transform="translate(17.807 169.65)" fill="#fff"/>
        <ellipse id="Ellipse_115" data-name="Ellipse 115" cx="1.527" cy="1.527" rx="1.527" ry="1.527" transform="translate(20.86 172.703)" fill="#3f3d56"/>
        <path id="Path_45" data-name="Path 45" d="M214.4,577.91c-1.082-4.846,2.377-9.742,7.725-10.936s10.561,1.766,11.643,6.611-2.463,6.633-7.811,7.827S215.485,582.755,214.4,577.91Z" transform="translate(-205.354 -412.749)" fill="#b46576"/>
        <ellipse id="Ellipse_116" data-name="Ellipse 116" cx="2.103" cy="6.7" rx="2.103" ry="6.7" transform="translate(0 170.434) rotate(-64.626)" fill="#2f2e41"/>
        <path id="Path_46" data-name="Path 46" d="M235.463,654.7c0,1.311,3.377,3.9,7.124,3.9s7.261-3.692,7.261-5-3.513.254-7.261.254S235.463,653.385,235.463,654.7Z" transform="translate(-219.998 -472.24)" fill="#fff"/>
        <ellipse id="Ellipse_117" data-name="Ellipse 117" cx="6.7" cy="2.103" rx="6.7" ry="2.103" transform="matrix(0.357, -0.934, 0.934, 0.357, 73.339, 182.694)" fill="#2f2e41"/>
        <circle id="Ellipse_118" data-name="Ellipse 118" cx="13.4" cy="13.4" r="13.4" transform="translate(52.738 201.185) rotate(-80.783)" fill="#2f2e41"/>
        <path id="Path_47" data-name="Path 47" d="M196.6,644.792h4.071l-.8,8.734-3.274-1.441Z" transform="translate(-134.599 -444.171)" fill="#2f2e41"/>
        <ellipse id="Ellipse_119" data-name="Ellipse 119" cx="1.272" cy="3.392" rx="1.272" ry="3.392" transform="translate(61.117 206.547) rotate(-28.232)" fill="#2f2e41"/>
        <path id="Path_48" data-name="Path 48" d="M225.127,644.864H229.2l-.8,8.735-3.274-1.441Z" transform="translate(-154.247 -444.22)" fill="#2f2e41"/>
        <ellipse id="Ellipse_120" data-name="Ellipse 120" cx="1.272" cy="3.392" rx="1.272" ry="3.392" transform="translate(69.992 206.569) rotate(-28.232)" fill="#2f2e41"/>
        <ellipse id="Ellipse_121" data-name="Ellipse 121" cx="4.58" cy="4.58" rx="4.58" ry="4.58" transform="translate(63.871 182.133)" fill="#fff"/>
        <ellipse id="Ellipse_122" data-name="Ellipse 122" cx="1.527" cy="1.527" rx="1.527" ry="1.527" transform="translate(66.924 185.186)" fill="#3f3d56"/>
        <path id="Path_49" data-name="Path 49" d="M362.45,618.029c-1.082-4.846,2.377-9.742,7.725-10.936s10.561,1.766,11.643,6.611-2.463,6.633-7.811,7.827S363.532,622.875,362.45,618.029Z" transform="translate(-307.338 -440.386)" fill="#f2f2f2"/>
        <ellipse id="Ellipse_123" data-name="Ellipse 123" cx="2.103" cy="6.7" rx="2.103" ry="6.7" transform="translate(48.278 176.635) rotate(-36.45)" fill="#2f2e41"/>
        <path id="Path_50" data-name="Path 50" d="M399.431,697.967c0-1.081-2.783-3.215-5.871-3.215s-5.984,3.043-5.984,4.124,2.9-.21,5.984-.21S399.431,699.048,399.431,697.967Z" transform="translate(-324.782 -500.953)" fill="#fff"/>
        <path id="Path_51" data-name="Path 51" d="M315.122,515.94a29.546,29.546,0,0,1-29.558-29.558c0-.062,0-.127,0-.189a29.558,29.558,0,1,1,42.68,26.681A29.281,29.281,0,0,1,315.122,515.94Zm0-58.495a29,29,0,0,0-28.933,28.767c0,.066,0,.119,0,.169a28.94,28.94,0,1,0,28.936-28.936Z" transform="translate(-254.51 -337.053)" fill="#3f3d56"/>
        <path id="Path_52" data-name="Path 52" d="M376.728,530.377,356.5,518.7a.622.622,0,0,0-.933.539V542.6a.622.622,0,0,0,.933.539l20.231-11.68a.622.622,0,0,0,0-1.078L356.5,518.7a.622.622,0,0,0-.933.539V542.6a.622.622,0,0,0,.933.539l20.231-11.68a.622.622,0,0,0,0-1.078Z" transform="translate(-302.73 -379.618)" fill="#b46576"/>
        <ellipse id="Ellipse_124" data-name="Ellipse 124" cx="16.49" cy="0.622" rx="16.49" ry="0.622" transform="translate(55.012 232.069)" fill="#e6e6e6"/>
        <ellipse id="Ellipse_125" data-name="Ellipse 125" cx="16.49" cy="0.622" rx="16.49" ry="0.622" transform="translate(223.961 226.158)" fill="#e6e6e6"/>
        <path id="Path_53" data-name="Path 53" d="M792.783,663.722l-73.947-39.865a1.557,1.557,0,0,1-.631-2.108l9.889-18.343a1.558,1.558,0,0,1,2.108-.631l73.948,39.864a1.557,1.557,0,0,1,.631,2.108l-9.889,18.343a1.558,1.558,0,0,1-2.108.631Zm-62.878-60.4a.935.935,0,0,0-1.265.379l-9.889,18.343a.934.934,0,0,0,.379,1.265l73.947,39.864a.935.935,0,0,0,1.265-.379l9.889-18.343a.934.934,0,0,0-.379-1.265Z" transform="translate(-552.41 -437.466)" fill="#e6e6e6"/>
        <ellipse id="Ellipse_126" data-name="Ellipse 126" cx="6.534" cy="6.534" rx="6.534" ry="6.534" transform="translate(175.16 174.484)" fill="#e56b6f"/>
        <path id="Path_54" data-name="Path 54" d="M815.5,664.076a1.089,1.089,0,0,0-1.034,1.917l45.19,24.362a1.089,1.089,0,1,0,1.034-1.917Z" transform="translate(-618.452 -479.732)" fill="#e6e6e6"/>
        <path id="Path_55" data-name="Path 55" d="M805.531,682.561a1.089,1.089,0,1,0-1.033,1.917l45.19,24.361a1.089,1.089,0,0,0,1.034-1.917Z" transform="translate(-611.588 -492.465)" fill="#e6e6e6"/>
      </g>
      <ellipse id="Ellipse_127" data-name="Ellipse 127" cx="2" cy="1.5" rx="2" ry="1.5" transform="translate(28.957 175.71)" fill="#e56b6f"/>
      <circle id="Ellipse_129" data-name="Ellipse 129" cx="2" cy="2" r="2" transform="translate(113.957 154.71)" fill="#e56b6f"/>
      <circle id="Ellipse_128" data-name="Ellipse 128" cx="2" cy="2" r="2" transform="translate(10.957 176.71)" fill="#e56b6f"/>
      <circle id="Ellipse_130" data-name="Ellipse 130" cx="2" cy="2" r="2" transform="translate(95.957 156.71)" fill="#e56b6f"/>
    </g>
  </g>
</svg>
