<svg xmlns="http://www.w3.org/2000/svg" width="24" height="27" viewBox="0 0 24 27">
  <g id="Group_133" data-name="Group 133" transform="translate(-108 -586.5)">
    <path id="Rewind" d="M12.667,5.022V8L6,4l6.667-4V3.018A12,12,0,1,1,3.29,6.745,1,1,0,1,1,4.742,8.121a10,10,0,1,0,7.925-3.1Z" transform="translate(108 586.5)" fill="#fff"/>
    <path id="_30" data-name="30" d="M7.579,5.918c-1.347,0-2.152-1.109-2.152-2.966S6.231,0,7.579,0,9.727,1.107,9.727,2.961,8.924,5.918,7.579,5.918Zm0-5.079c-.72,0-1.133.77-1.133,2.113,0,1.373.4,2.129,1.133,2.129s1.129-.756,1.129-2.129C8.708,1.61,8.3.84,7.579.84ZM2.093,5.918A1.859,1.859,0,0,1,0,4.215H.965c.043.52.489.856,1.137.856s1.1-.371,1.1-.9c0-.55-.43-.891-1.121-.891H1.371V2.5h.688a.876.876,0,0,0,.969-.851c0-.5-.38-.824-.969-.824a.914.914,0,0,0-1.007.859H.11A1.765,1.765,0,0,1,2.09,0C3.179,0,4,.647,4,1.5A1.256,1.256,0,0,1,2.981,2.8v.067A1.312,1.312,0,0,1,4.226,4.231C4.226,5.193,3.309,5.918,2.093,5.918Z" transform="translate(115.179 598.056)" fill="#fff"/>
  </g>
</svg>
