<svg xmlns="http://www.w3.org/2000/svg" width="2562.764" height="3375.23" viewBox="0 0 2562.764 3375.23">
  <g id="المكفوفين_" data-name="المكفوفين " transform="translate(-1065.022 -921.43)">
    <line id="Line_21" data-name="Line 21" x2="2096.68" transform="translate(1217.48 4291.66)" fill="none" stroke="#0d0e0e" stroke-linecap="round" stroke-miterlimit="10" stroke-width="10"/>
    <path id="Path_845" data-name="Path 845" d="M2157.79,3778.3c-368.66-42.62-713.48-249.62-885.14-605.07-116.82-241.91-140.27-526.81-62.18-784.08,39.31-129.51,104.4-255.98,194.56-357.64,103.56-116.77,245.05-192.75,347.24-311.24,127.07-147.33,131.36-335.57,228.14-497.4,79.7-133.27,220.45-221.79,369.28-266.08,271.69-80.87,581.32-20.63,802.89,156.19,187.31,149.48,306.58,369.87,380.67,597.77,114.22,351.35,130.07,738.11,19.31,1090.57s-352.37,666.95-677.45,842.48c-220.94,119.3-474.3,162.62-717.3,134.52Z" fill="#131313" opacity="0.1"/>
    <path id="Path_846" data-name="Path 846" d="M2210.34,4285.64a22.751,22.751,0,0,1-18.84-35.47l840.94-1247.11a22.749,22.749,0,1,1,37.72,25.44L2229.22,4275.61a22.781,22.781,0,0,1-18.88,10.03Z" fill="#d76985"/>
    <path id="Path_847" data-name="Path 847" d="M3051.31,4285.64a22.768,22.768,0,0,1-19.03-10.26l-734.3-1118.53a22.746,22.746,0,1,1,38.02-24.98L3070.3,4250.4a22.752,22.752,0,0,1-18.99,35.24Z" fill="#d76985"/>
    <path id="Path_848" data-name="Path 848" d="M2469.62,3399.62a22.732,22.732,0,0,1-.46-45.46l343.13-7.38a22.735,22.735,0,0,1,.96,45.46l-343.13,7.38Z" fill="#d76985"/>
    <path id="Path_849" data-name="Path 849" d="M3050.21,2090.75s307.18,183.72,238.86,586.75c-78.6,463.69-540.89,614.02-941.9,504.48s-334.18-425.49-334.18-425.49Z" fill="#ba6374"/>
    <path id="Path_850" data-name="Path 850" d="M3111.16,2933.8a5.889,5.889,0,0,1-3.99-10.21c99.18-91.73,118.29-271.92,118.49-273.72a5.879,5.879,0,0,1,11.7,1.16c-.76,7.57-19.77,186.46-122.2,281.2a5.869,5.869,0,0,1-3.99,1.57Z" fill="#fef0f4"/>
    <path id="Path_851" data-name="Path 851" d="M2254.47,3659.27l35.08,310.61L2434.7,4020l135.65-76.37,42.35-306.32Z" fill="#f58462"/>
    <path id="Path_852" data-name="Path 852" d="M1741.25,3659.27l35.09,310.61L1921.48,4020l135.65-76.37,42.35-306.32Z" fill="#f58462"/>
    <g id="Group_99" data-name="Group 99">
      <g id="Group_98" data-name="Group 98">
        <path id="Path_853" data-name="Path 853" d="M1781.66,3931.18s-79.55,100.38-149.92,135.74c-93.17,46.82-203.25,98.27-251.03,103.95s-61.08,40.75-51.09,59.38,49.9,17.79,49.9,17.79,648.64,22.11,691.71-14.52-27.75-146.69-18.61-220.88,9.97-87.62,9.97-87.62l-280.93,6.15Z" fill="#f58462"/>
        <path id="Path_854" data-name="Path 854" d="M1347.37,4285.58c.07,0,674.17,1.46,701.23,1.51-.34,1.45,27.54-2.47,28.79-25.47.61-29.85-27.89-31.23-29.13-30.56-21.63-.05-307.7-.66-507.74-1.09-198.01,1.96-212.39-11.45-220.85,23.84-2.37,16.82,11.02,31.75,27.7,31.78Z" fill="#010101"/>
        <path id="Path_855" data-name="Path 855" d="M1920.48,4120.03c6.51-13.23,13.93-29.09,9.74-44.16-3.88-13.97-16.71-23.31-27.8-31.47-6.23-4.58-12.22,5.83-6.06,10.36,8.41,6.18,19.33,13.64,22.29,24.3,3.24,11.66-3.55,24.79-8.53,34.92-3.4,6.9,6.95,12.99,10.36,6.06h0Z" fill="#c7644f"/>
        <path id="Path_856" data-name="Path 856" d="M2057.38,3944.28q-2.775,40.665-5.56,81.34c-.53,7.71,11.48,7.68,12,0q2.775-40.665,5.56-81.34c.53-7.71-11.48-7.68-12,0Z" fill="#c7644f"/>
        <path id="Path_857" data-name="Path 857" d="M1503.95,4229.65c8.14-28,40.02-37,66.1-36.9,7.72.03,7.73-11.97,0-12-31.68-.12-67.96,12.32-77.67,45.71-2.16,7.43,9.42,10.6,11.57,3.19h0Z" fill="#c7644f"/>
        <path id="Path_858" data-name="Path 858" d="M1523.12,4175.57s-47.34-4.35-47.4-4.35c-6.39-.08-13.45,1.38-21.49.7-.38-1.33-15.93,19.75-15.66,18.76-.13.13-.35.36-.78.8-6.33,7.75-28.77,25.69-24.86,28.8,2.52,8.45,2.08,7.78,4.92,7.94,7.86-.15,56.26-1.05,56.32-1.05,1.58-.5,1.29-.61,1.86-1.11,3.99-3.91,25.42-24.93,38.36-37.61,6.09-6.61,13.57-10.85,8.75-12.89Z" fill="#f58462"/>
        <path id="Path_859" data-name="Path 859" d="M1444.41,4185.36s-4.64-25.1-31.53-21.95c0,0,49.59-16.55,77.74-29.7,19.77,7.1,27.64,33.64,27.64,33.64s-54.92,3.52-73.84,18.01Z" fill="#010101"/>
        <path id="Path_860" data-name="Path 860" d="M1740.19,4230.4s-12.5-124.37-95.82-169.35c41.47-31.08,48.96-36.9,94.82-81.61,68.65-17.56,193.96,251.38,193.96,251.38" fill="#010101"/>
        <path id="Path_861" data-name="Path 861" d="M1750.82,3962.59a601.447,601.447,0,0,1-58.87,57.57c-5.89,5.02,2.64,13.47,8.49,8.49a603.714,603.714,0,0,0,58.87-57.57c5.12-5.75-3.33-14.26-8.49-8.49Z" fill="#c7644f"/>
        <path id="Path_862" data-name="Path 862" d="M1416.86,4224.26c-.09-13.02,10.15-23.35,20.12-30.38s22.44-13.09,34.98-15.71c7.55-1.58,4.36-13.15-3.19-11.57-14.68,3.06-29.04,10.14-40.93,19.18-12.25,9.32-23.1,22.3-22.99,38.48.05,7.72,12.05,7.74,12,0h0Z" fill="#c7644f"/>
      </g>
      <path id="Path_863" data-name="Path 863" d="M1673.62,4088.51a830.286,830.286,0,0,1-141.41,72.03c-7.11,2.79-4.01,14.4,3.19,11.57a846.685,846.685,0,0,0,144.28-73.24c6.5-4.13.49-14.52-6.06-10.36h0Z" fill="#c7644f"/>
    </g>
    <path id="Path_864" data-name="Path 864" d="M2254.47,2391.27s-510.59,266.52-574.77,373.37,6.51,1171.95,6.51,1171.95l463.5,6.18,64.19-681.04,352.29-819.54-311.73-50.92Z" fill="#fff1ea"/>
    <path id="Path_865" data-name="Path 865" d="M2913.86,2409.77s21.12,233.62,13.58,310.28-249.43,257.29-249.43,257.29l-11.96,965.08H2124.04s-5.57-1047.88,3.38-1128.37,365.51-373.19,365.51-373.19l420.93-31.09Z" fill="#fff1ea"/>
    <path id="Path_866" data-name="Path 866" d="M2496.29,1540.8s-209.21,18.53-287.77,119.54,25.25,734.3,30.86,743.12,151.32,73.36,405.34,67.75,315.74-54.13,324.16-67.75,61.73-728.57,0-789.16S2649.38,1522.27,2496.29,1540.8Z" fill="#fff1ea"/>
    <path id="Path_867" data-name="Path 867" d="M2620.92,1431.55l-3.02,136.09s-25.41,38.58-105.17,43.28c-59.42,3.5-79.95-10.37-79.95-10.37l9.8-68.74,9.65-67.03,144.46-28.43,24.24-4.8Z" fill="#f58462"/>
    <path id="Path_868" data-name="Path 868" d="M2596.68,1436.35c-.43,3.71-1.94,8.06-4.25,13.05-31.96,67.3-115.54,80.11-149.86,82.42l9.65-67.03,144.46-28.43Z" fill="#010101"/>
    <path id="Path_869" data-name="Path 869" d="M2428.76,1153.9s-75.21,169.04-49.16,264.47,112.93,81.02,164.98,62.95,76.36-49.75,76.36-49.75,48.39,16.77,81.14-28.11,13.12-96.81-14.5-108.87-60.68,7.72-60.68,7.72l26.14-49.1s-106.92-251.12-224.27-99.32Z" fill="#f58462"/>
    <path id="Path_870" data-name="Path 870" d="M2435.13,1369.93a5.979,5.979,0,0,1-5.71-4.2c-11.29-36.51,14.42-73.61,15.53-75.18a5.968,5.968,0,0,1,9.76,6.87c-.23.35-23.41,33.92-13.86,64.78a5.976,5.976,0,0,1-3.95,7.47,6.288,6.288,0,0,1-1.76.25Z" fill="#010101"/>
    <path id="Path_871" data-name="Path 871" d="M2682.86,1369.33c-.89-.06-32.76-4.9-32.76-4.9a5.972,5.972,0,1,1,1.79-11.81l31.87,4.84a5.968,5.968,0,0,1-.89,11.87Z" fill="#010101"/>
    <path id="Path_872" data-name="Path 872" d="M2533.58,1248.89a5.918,5.918,0,0,1-5.23-3.1c-7.94-14.44-28.58-9.56-28.75-9.52a5.842,5.842,0,0,1-7.22-4.36,5.947,5.947,0,0,1,4.36-7.22c1.22-.29,29.76-7.07,42.07,15.37a5.969,5.969,0,0,1-5.22,8.83Z" fill="#010101"/>
    <path id="Path_873" data-name="Path 873" d="M2411.36,1236.07a5.963,5.963,0,0,1-4.74-9.58c.37-.48,9.2-11.89,21.86-13.17,6.91-.62,13.26,1.57,19.17,6.68a5.982,5.982,0,1,1-7.86,9.02,13.86,13.86,0,0,0-10.05-3.83c-6.22.62-11.95,6.39-13.65,8.56a5.907,5.907,0,0,1-4.72,2.32Z" fill="#010101"/>
    <path id="Path_874" data-name="Path 874" d="M2610.6,1313.74s-45.96-31.09-43.21-78.25,13.12-59.19,13.12-59.19-53.67-2.78-98.02-17.23c-28.89-9.41-41.31-19.78-41.31-19.78l-12.43,14.61c-13.55-.62-44.5-82.73-24.11-97.32s129.57,23.46,129.57,23.46,114.99-27.05,182.15,54.71-8.09,178.07-8.09,178.07-19.88-42.15-97.68.91Z" fill="#010101"/>
    <path id="Path_875" data-name="Path 875" d="M2496.37,1617.34c-38.62,0-65.44-11.05-65.94-11.27a6.014,6.014,0,0,1-3.17-7.86,6.1,6.1,0,0,1,7.86-3.18c.89.37,92.41,37.81,179.03-32.06a5.989,5.989,0,0,1,7.51,9.33c-44.24,35.68-89.76,45.03-125.28,45.03Z" fill="#010101" stroke="#010101" stroke-miterlimit="10" stroke-width="1"/>
    <path id="Path_876" data-name="Path 876" d="M2478.27,1426.41c-15.91,0-27.36-10.49-27.94-11.04a5.987,5.987,0,0,1,1.99-9.95l43.97-16.46a5.894,5.894,0,0,1,4.67.21,6,6,0,0,1,3.08,3.49c.41,1.18,3.72,11.75-1.18,21.14-2.79,5.34-7.75,9.18-14.33,11.11a36.635,36.635,0,0,1-10.26,1.49Zm-10.4-14.06a25.8,25.8,0,0,0,17.29,1.1c3.49-1.03,5.79-2.69,7.09-5.13a13.047,13.047,0,0,0,1.3-5.58l-25.67,9.6Z" fill="#010101"/>
    <path id="Path_877" data-name="Path 877" d="M1639.14,1865.28l-63.96,139.71-9.94-4.53s-45.5-18.63-100.79-36.34-98.24-8.52-98.24-8.52l-.92-.37c-7.43-2.96-58.52-22.89-102.09-27.66-30.18-3.3-101.72,24.84-109.05-.27-4.88-16.73,5.03-30.88,18.19-41.66-14.42,4.08-27.47,1.9-29.71-17.67-5.34-46.62,170.61-113.11,229.53-114.9s266.98,112.21,266.98,112.21Z" fill="#f58462"/>
    <g id="Group_100" data-name="Group 100">
      <rect id="Rectangle_352" data-name="Rectangle 352" width="63.28" height="2331.29" rx="27.55" transform="translate(1350.349 1682.67) rotate(6.92)" fill="#fff1ea" stroke="#0d0d0d" stroke-miterlimit="10" stroke-width="8"/>
      <rect id="Rectangle_353" data-name="Rectangle 353" width="63.28" height="470.14" rx="27.65" transform="translate(1350.345 1682.671) rotate(6.92)" fill="#0d0d0d"/>
      <path id="Path_878" data-name="Path 878" d="M1382.43,1680.72s112.73-75.3,111.47-108.66S1437.51,1533.34,1382.43,1680.72Z" fill="none" stroke="#0d0d0d" stroke-miterlimit="10" stroke-width="9"/>
    </g>
    <path id="Path_879" data-name="Path 879" d="M1574.18,2004.99l-14,30.58-23.15,20.26s-146.32-6.39-220.15-29.78c-31.07-9.83-56.98-44.78-4.03-52.65,28.58-4.25,52.36-17.8,52.36-17.8s42.96-9.18,98.24,8.52,100.79,36.34,100.79,36.34l9.94,4.53Z" fill="#f58462"/>
    <path id="Path_880" data-name="Path 880" d="M1355.49,1899.13c-45.77-31.11-113.3-27.32-116.14-27.14a5.986,5.986,0,0,0,.73,11.95c.66-.03,66.32-3.68,108.21,24.75a5.988,5.988,0,0,0,7.19-9.56Z" fill="#010101"/>
    <path id="Path_881" data-name="Path 881" d="M1333.31,1831.43a6.035,6.035,0,0,0-3.52-1.4l-60.76-3.1a6,6,0,0,0-.61,11.99l56.71,2.88,37.48,109.11a5.986,5.986,0,1,0,11.33-3.87l-38.8-112.95a5.869,5.869,0,0,0-1.84-2.66Z" fill="#010101"/>
    <path id="Path_882" data-name="Path 882" d="M1482.97,1958.56a5.687,5.687,0,0,0-1.56-.94c-56.77-23.26-111.75-14.92-114.07-14.56a6,6,0,0,0,1.88,11.85c.53-.09,54.09-8.14,107.65,13.8a5.986,5.986,0,0,0,6.1-10.14Z" fill="#010101"/>
    <path id="Path_883" data-name="Path 883" d="M2234.62,1633.37s-104.49,77.75-222.13,146.85c0,0-135.14,53.81-226.39,38.65s-182.21-38.65-182.21-38.65L1467.46,2137.2s399.18,334.35,793.3,45.48c113.25-83.01-26.14-549.31-26.14-549.31Z" fill="#fff1ea"/>
    <path id="Path_884" data-name="Path 884" d="M2215.29,1955.88a5.971,5.971,0,0,1-5.98-5.98c0-36.24,61.08-221.57,63.68-229.45a5.993,5.993,0,0,1,11.38,3.76c-21.82,66.04-63.1,198.21-63.1,225.69a5.971,5.971,0,0,1-5.98,5.98Z" fill="#010101"/>
    <path id="Path_885" data-name="Path 885" d="M2442.57,2300.25s-21.72,107.69,34.41,123.98,57.87-51.01,101.84-313.67,87.44-308.57,94.84-394.21c12.48-144.45-33.6-209.12-27.22-314.45" fill="none" stroke="#010101" stroke-miterlimit="10" stroke-width="7"/>
    <rect id="Rectangle_354" data-name="Rectangle 354" width="202.4" height="371.59" rx="27.59" transform="translate(2305.826 1955.011) rotate(2.13)" fill="#010101"/>
    <path id="Path_886" data-name="Path 886" d="M2638.23,2141.39s-55.28-36.08-82.89-45.95a395.5,395.5,0,0,0-51.97-14.28l-7.08,45.32s-94.62,12.1-162.94,39.07-59.03,57.76-59.03,57.76-44,23.11-27.72,42.53,86.26,7.58,86.26,7.58-89.14,25.14-55.14,47.61,113.15,23.44,113.15,23.44,168.61,44.8,230.36-9.72,17-193.35,17-193.35Z" fill="#f58462"/>
    <path id="Path_887" data-name="Path 887" d="M2496.28,2131.5a5.036,5.036,0,0,1-1.01-9.97l53.53-10.84a4.9,4.9,0,0,1,5.94,3.93,5.034,5.034,0,0,1-3.93,5.95l-53.53,10.84a4.431,4.431,0,0,1-1.01.1Z" fill="#010101"/>
    <path id="Path_888" data-name="Path 888" d="M2278.68,2223.95a5.032,5.032,0,0,1-.97-9.97l136.26-26.72a4.834,4.834,0,0,1,5.9,3.97,5.026,5.026,0,0,1-3.97,5.91l-136.26,26.72a4.1,4.1,0,0,1-.97.1Z" fill="#010101"/>
    <path id="Path_889" data-name="Path 889" d="M2323.75,2279.73a5.039,5.039,0,0,1-.99-9.98l85.44-17.06a4.964,4.964,0,0,1,5.93,3.95,5.028,5.028,0,0,1-3.95,5.92l-85.44,17.06a4.157,4.157,0,0,1-.99.1Z" fill="#010101"/>
    <path id="Path_890" data-name="Path 890" d="M2968.89,1614.3s414.44,379.56,355.52,636.29-746.31,152.87-746.31,152.87l-7.02-376.17,306.62-31.16,91.19-381.83Z" fill="#fff1ea"/>
    <path id="Path_891" data-name="Path 891" d="M3000.66,1996.99c-39.34,0-91.01-8.25-112.37-11.97a5.983,5.983,0,0,1-1.78-11.19c4.57-2.42,111.94-58.61,156.73-10.55,7.45,7.98,9.53,15.18,6.16,21.39-4.97,9.2-24.53,12.31-48.73,12.31Zm-91.27-20.66c61.45,9.37,124.05,12.6,129.47,2.65.25-.46-.02-2.84-4.38-7.53C3005.53,1940.41,2940.54,1962.89,2909.39,1976.33Z" fill="#010101"/>
    <path id="Path_892" data-name="Path 892" d="M2916.81,2415.51c-176.74,0-321.41-36.34-322.86-36.71a6,6,0,0,1-4.34-7.28,6.124,6.124,0,0,1,7.28-4.34c1.47.37,144.74,36.36,319.9,36.36,3.35,0,6.7-.02,10.09-.04a5.98,5.98,0,0,1,.08,11.96c-3.39.04-6.78.04-10.15.04Z" fill="#010101"/>
    <path id="Path_893" data-name="Path 893" d="M2889.32,1985.1a5.912,5.912,0,0,1-3.41-1.06c-39.98-27.65-9.33-109.5-8.02-112.97a5.985,5.985,0,0,1,11.19,4.25c-.29.78-28.65,76.53,3.64,98.88a5.981,5.981,0,0,1-3.41,10.9Z" fill="#010101"/>
    <path id="Path_894" data-name="Path 894" d="M2674.09,3023.36a6.077,6.077,0,0,1-2.94-.76c-17.19-9.68-102.78-59.57-99.15-92.64,1.03-9.47,8.32-16.3,21.68-20.35,15.49-4.67,29.55-2.87,41.86,5.4,36.65,24.57,44.2,98.64,44.51,101.78a5.992,5.992,0,0,1-2.69,5.59,5.868,5.868,0,0,1-3.27.97Zm-64.26-104.3a43.965,43.965,0,0,0-12.66,2.01c-8.34,2.52-12.8,5.96-13.26,10.2-1.86,16.92,44.14,51.73,82.53,74.71-3.58-21.28-13.67-65.01-37.58-81.02a33.359,33.359,0,0,0-19.03-5.91Z" fill="#010101"/>
    <g id="Group_122" data-name="Group 122">
      <path id="Path_895" data-name="Path 895" d="M2528.56,1089.04c18.71-33.71,38.55-68.68,70.48-90.31,7.29-4.94,15.7-9.22,24.47-8.46,8.42.73,15.68,5.95,22.41,11.06a1016.12,1016.12,0,0,1,121.06,108.39c8.35,8.78,17.13,19.37,15.79,31.41-1.18,10.55-9.78,18.52-17.82,25.45l-55.03,47.47-181.34-125.01Z" fill="#6260ab"/>
      <g id="Group_101" data-name="Group 101">
        <path id="Path_896" data-name="Path 896" d="M2762.87,1163.19c2.09-4.67,6.23-13.27.79-17.24-4.76-3.48-12.71.88-16.61,3.86-1.26.96-.02,3.14,1.26,2.16,2.83-2.16,7.52-5.16,11.29-4.68,7.39.95,2.96,10.49,1.1,14.64-.65,1.46,1.5,2.73,2.16,1.26h0Z" fill="#fff"/>
        <path id="Path_897" data-name="Path 897" d="M2761.56,1161.44a14.023,14.023,0,0,1-7.5-2.64c-2.09-1.62-5.22-4.89-5.06-7.67.09-1.61-2.41-1.6-2.5,0-.2,3.47,3.15,7.25,5.63,9.32a16.513,16.513,0,0,0,9.43,3.48c1.61.11,1.6-2.39,0-2.5h0Z" fill="#fff"/>
      </g>
      <g id="Group_102" data-name="Group 102">
        <path id="Path_898" data-name="Path 898" d="M2744.84,1147.76c2.09-4.67,6.23-13.27.79-17.24-4.76-3.48-12.71.88-16.61,3.86-1.26.96-.02,3.14,1.26,2.16,2.83-2.16,7.52-5.16,11.29-4.68,7.39.95,2.96,10.49,1.1,14.64-.65,1.46,1.5,2.73,2.16,1.26h0Z" fill="#fff"/>
        <path id="Path_899" data-name="Path 899" d="M2743.53,1146.02a14.023,14.023,0,0,1-7.5-2.64c-2.09-1.62-5.22-4.89-5.06-7.67.09-1.61-2.41-1.6-2.5,0-.2,3.47,3.15,7.25,5.63,9.32a16.513,16.513,0,0,0,9.43,3.48c1.61.11,1.6-2.39,0-2.5h0Z" fill="#fff"/>
      </g>
      <g id="Group_103" data-name="Group 103">
        <path id="Path_900" data-name="Path 900" d="M2726.81,1132.33c2.09-4.67,6.23-13.27.79-17.24-4.76-3.48-12.71.88-16.61,3.86-1.26.96-.02,3.14,1.26,2.16,2.83-2.16,7.52-5.16,11.29-4.68,7.39.95,2.96,10.49,1.1,14.64-.65,1.46,1.5,2.73,2.16,1.26h0Z" fill="#fff"/>
        <path id="Path_901" data-name="Path 901" d="M2725.5,1130.59a14.023,14.023,0,0,1-7.5-2.64c-2.09-1.62-5.22-4.89-5.06-7.67.09-1.61-2.41-1.6-2.5,0-.2,3.47,3.15,7.25,5.63,9.32a16.513,16.513,0,0,0,9.43,3.48c1.61.11,1.6-2.39,0-2.5h0Z" fill="#fff"/>
      </g>
      <g id="Group_104" data-name="Group 104">
        <path id="Path_902" data-name="Path 902" d="M2708.78,1116.91c2.09-4.67,6.23-13.27.79-17.24-4.76-3.48-12.71.88-16.61,3.86-1.26.96-.02,3.14,1.26,2.16,2.83-2.16,7.52-5.16,11.29-4.68,7.39.95,2.96,10.49,1.1,14.64-.65,1.46,1.5,2.73,2.16,1.26h0Z" fill="#fff"/>
        <path id="Path_903" data-name="Path 903" d="M2707.47,1115.16a14.023,14.023,0,0,1-7.5-2.64c-2.09-1.62-5.22-4.89-5.06-7.67.09-1.61-2.41-1.6-2.5,0-.2,3.47,3.15,7.25,5.63,9.32a16.513,16.513,0,0,0,9.43,3.48c1.61.11,1.6-2.39,0-2.5h0Z" fill="#fff"/>
      </g>
      <g id="Group_105" data-name="Group 105">
        <path id="Path_904" data-name="Path 904" d="M2690.75,1101.48c2.09-4.67,6.23-13.27.79-17.24-4.76-3.48-12.71.88-16.61,3.86-1.26.96-.02,3.14,1.26,2.16,2.83-2.16,7.52-5.16,11.29-4.68,7.39.95,2.96,10.49,1.1,14.64-.65,1.46,1.5,2.73,2.16,1.26h0Z" fill="#fff"/>
        <path id="Path_905" data-name="Path 905" d="M2689.44,1099.74a14.023,14.023,0,0,1-7.5-2.64c-2.05-1.59-5.22-4.89-5.06-7.67.09-1.61-2.41-1.6-2.5,0-.2,3.47,3.15,7.25,5.63,9.32a16.513,16.513,0,0,0,9.43,3.48c1.61.11,1.6-2.39,0-2.5h0Z" fill="#fff"/>
      </g>
      <g id="Group_106" data-name="Group 106">
        <path id="Path_906" data-name="Path 906" d="M2672.72,1086.05c2.09-4.67,6.23-13.27.79-17.24-4.76-3.48-12.71.88-16.61,3.86-1.26.96-.02,3.14,1.26,2.16,2.83-2.16,7.52-5.16,11.29-4.68,7.39.95,2.96,10.49,1.1,14.64-.65,1.46,1.5,2.73,2.16,1.26h0Z" fill="#fff"/>
        <path id="Path_907" data-name="Path 907" d="M2671.41,1084.31a14.023,14.023,0,0,1-7.5-2.64c-2.05-1.59-5.22-4.89-5.06-7.67.09-1.61-2.41-1.6-2.5,0-.2,3.47,3.15,7.25,5.63,9.32a16.513,16.513,0,0,0,9.43,3.48c1.61.11,1.6-2.39,0-2.5h0Z" fill="#fff"/>
      </g>
      <g id="Group_107" data-name="Group 107">
        <path id="Path_908" data-name="Path 908" d="M2655.35,1071.55c2.09-4.67,6.23-13.27.79-17.24-4.76-3.48-12.71.88-16.61,3.86-1.26.96-.02,3.14,1.26,2.16,2.83-2.16,7.52-5.16,11.29-4.68,7.39.95,2.96,10.49,1.1,14.64-.65,1.46,1.5,2.73,2.16,1.26h0Z" fill="#fff"/>
        <path id="Path_909" data-name="Path 909" d="M2654.03,1069.81a14.023,14.023,0,0,1-7.5-2.64c-2.05-1.59-5.22-4.89-5.06-7.67.09-1.61-2.41-1.6-2.5,0-.2,3.47,3.15,7.25,5.63,9.32a16.513,16.513,0,0,0,9.43,3.48c1.61.11,1.6-2.39,0-2.5h0Z" fill="#fff"/>
      </g>
      <g id="Group_108" data-name="Group 108">
        <path id="Path_910" data-name="Path 910" d="M2637.97,1057.58c2.09-4.67,6.23-13.27.79-17.24-4.76-3.48-12.71.88-16.61,3.86-1.26.96-.02,3.14,1.26,2.16,2.83-2.16,7.52-5.16,11.29-4.68,7.39.95,2.96,10.49,1.1,14.64-.65,1.46,1.5,2.73,2.16,1.26h0Z" fill="#fff"/>
        <path id="Path_911" data-name="Path 911" d="M2636.66,1055.84a14.023,14.023,0,0,1-7.5-2.64c-2.05-1.59-5.22-4.89-5.06-7.67.09-1.61-2.41-1.6-2.5,0-.2,3.47,3.15,7.25,5.63,9.32a16.513,16.513,0,0,0,9.43,3.48c1.61.11,1.6-2.39,0-2.5h0Z" fill="#fff"/>
      </g>
      <g id="Group_109" data-name="Group 109">
        <path id="Path_912" data-name="Path 912" d="M2620.6,1043.61c2.09-4.67,6.23-13.27.79-17.24-4.76-3.48-12.71.88-16.61,3.86-1.26.96-.02,3.14,1.26,2.16,2.83-2.16,7.52-5.16,11.29-4.68,7.39.95,2.96,10.49,1.1,14.64-.65,1.46,1.5,2.73,2.16,1.26h0Z" fill="#fff"/>
        <path id="Path_913" data-name="Path 913" d="M2619.28,1041.87a14.023,14.023,0,0,1-7.5-2.64c-2.05-1.59-5.22-4.89-5.06-7.67.09-1.61-2.41-1.6-2.5,0-.2,3.47,3.15,7.25,5.63,9.32a16.513,16.513,0,0,0,9.43,3.48c1.61.11,1.6-2.39,0-2.5h0Z" fill="#fff"/>
      </g>
      <g id="Group_110" data-name="Group 110">
        <path id="Path_914" data-name="Path 914" d="M2603.22,1029.64c2.09-4.67,6.23-13.27.79-17.24-4.76-3.48-12.71.88-16.61,3.86-1.26.96-.02,3.14,1.26,2.16,2.83-2.16,7.52-5.16,11.29-4.68,7.39.95,2.96,10.49,1.1,14.64-.65,1.46,1.5,2.73,2.16,1.26h0Z" fill="#fff"/>
        <path id="Path_915" data-name="Path 915" d="M2601.91,1027.9a14.023,14.023,0,0,1-7.5-2.64c-2.09-1.62-5.22-4.89-5.06-7.67.09-1.61-2.41-1.6-2.5,0-.2,3.47,3.15,7.25,5.63,9.32a16.513,16.513,0,0,0,9.43,3.48c1.61.11,1.6-2.39,0-2.5h0Z" fill="#fff"/>
      </g>
      <g id="Group_111" data-name="Group 111">
        <path id="Path_916" data-name="Path 916" d="M2721.08,1184.3c2.09-4.67,6.23-13.27.79-17.24-4.76-3.48-12.71.88-16.61,3.86-1.26.96-.02,3.14,1.26,2.16,2.83-2.16,7.52-5.16,11.29-4.68,7.39.95,2.96,10.49,1.1,14.64-.65,1.46,1.5,2.73,2.16,1.26h0Z" fill="#fff"/>
        <path id="Path_917" data-name="Path 917" d="M2719.77,1182.55a14.023,14.023,0,0,1-7.5-2.64c-2.09-1.62-5.22-4.89-5.06-7.67.09-1.61-2.41-1.6-2.5,0-.2,3.47,3.15,7.25,5.63,9.32a16.513,16.513,0,0,0,9.43,3.48c1.61.11,1.6-2.39,0-2.5h0Z" fill="#fff"/>
      </g>
      <g id="Group_112" data-name="Group 112">
        <path id="Path_918" data-name="Path 918" d="M2703.05,1168.87c2.09-4.67,6.23-13.27.79-17.24-4.76-3.48-12.71.88-16.61,3.86-1.26.96-.02,3.14,1.26,2.16,2.83-2.16,7.52-5.16,11.29-4.68,7.39.95,2.96,10.49,1.1,14.64-.65,1.46,1.5,2.73,2.16,1.26h0Z" fill="#fff"/>
        <path id="Path_919" data-name="Path 919" d="M2701.74,1167.13a14.023,14.023,0,0,1-7.5-2.64c-2.05-1.59-5.22-4.89-5.06-7.67.09-1.61-2.41-1.6-2.5,0-.2,3.47,3.15,7.25,5.63,9.32a16.513,16.513,0,0,0,9.43,3.48c1.61.11,1.6-2.39,0-2.5h0Z" fill="#fff"/>
      </g>
      <g id="Group_113" data-name="Group 113">
        <path id="Path_920" data-name="Path 920" d="M2685.02,1153.44c2.09-4.67,6.23-13.27.79-17.24-4.76-3.48-12.71.88-16.61,3.86-1.26.96-.02,3.14,1.26,2.16,2.83-2.16,7.52-5.16,11.29-4.68,7.39.95,2.96,10.49,1.1,14.64-.65,1.46,1.5,2.73,2.16,1.26h0Z" fill="#fff"/>
        <path id="Path_921" data-name="Path 921" d="M2683.71,1151.7a14.023,14.023,0,0,1-7.5-2.64c-2.05-1.59-5.22-4.89-5.06-7.67.09-1.61-2.41-1.6-2.5,0-.2,3.47,3.15,7.25,5.63,9.32a16.513,16.513,0,0,0,9.43,3.48c1.61.11,1.6-2.39,0-2.5h0Z" fill="#fff"/>
      </g>
      <g id="Group_114" data-name="Group 114">
        <path id="Path_922" data-name="Path 922" d="M2666.99,1138.02c2.09-4.67,6.23-13.27.79-17.24-4.76-3.48-12.71.88-16.61,3.86-1.26.96-.02,3.14,1.26,2.16,2.83-2.16,7.52-5.16,11.29-4.68,7.39.95,2.96,10.49,1.1,14.64-.65,1.46,1.5,2.73,2.16,1.26h0Z" fill="#fff"/>
        <path id="Path_923" data-name="Path 923" d="M2665.68,1136.27a14.023,14.023,0,0,1-7.5-2.64c-2.09-1.62-5.22-4.89-5.06-7.67.09-1.61-2.41-1.6-2.5,0-.2,3.47,3.15,7.25,5.63,9.32a16.513,16.513,0,0,0,9.43,3.48c1.61.11,1.6-2.39,0-2.5h0Z" fill="#fff"/>
      </g>
      <g id="Group_115" data-name="Group 115">
        <path id="Path_924" data-name="Path 924" d="M2648.97,1122.59c2.09-4.67,6.23-13.27.79-17.24-4.76-3.48-12.71.88-16.61,3.86-1.26.96-.02,3.14,1.26,2.16,2.83-2.16,7.52-5.16,11.29-4.68,7.39.95,2.96,10.49,1.1,14.64-.65,1.46,1.5,2.73,2.16,1.26h0Z" fill="#fff"/>
        <path id="Path_925" data-name="Path 925" d="M2647.65,1120.85a14.023,14.023,0,0,1-7.5-2.64c-2.09-1.62-5.22-4.89-5.06-7.67.09-1.61-2.41-1.6-2.5,0-.2,3.47,3.15,7.25,5.63,9.32a16.513,16.513,0,0,0,9.43,3.48c1.61.11,1.6-2.39,0-2.5h0Z" fill="#fff"/>
      </g>
      <g id="Group_116" data-name="Group 116">
        <path id="Path_926" data-name="Path 926" d="M2631.59,1108.09c2.09-4.67,6.23-13.27.79-17.24-4.76-3.48-12.71.88-16.61,3.86-1.26.96-.02,3.14,1.26,2.16,2.83-2.16,7.52-5.16,11.29-4.68,7.39.95,2.96,10.49,1.1,14.64-.65,1.46,1.5,2.73,2.16,1.26h0Z" fill="#fff"/>
        <path id="Path_927" data-name="Path 927" d="M2630.28,1106.35a14.023,14.023,0,0,1-7.5-2.64c-2.09-1.62-5.22-4.89-5.06-7.67.09-1.61-2.41-1.6-2.5,0-.2,3.47,3.15,7.25,5.63,9.32a16.513,16.513,0,0,0,9.43,3.48c1.61.11,1.6-2.39,0-2.5h0Z" fill="#fff"/>
      </g>
      <g id="Group_117" data-name="Group 117">
        <path id="Path_928" data-name="Path 928" d="M2614.21,1094.12c2.09-4.67,6.23-13.27.79-17.24-4.76-3.48-12.71.88-16.61,3.86-1.26.96-.02,3.14,1.26,2.16,2.83-2.16,7.52-5.16,11.29-4.68,7.39.95,2.96,10.49,1.1,14.64-.65,1.46,1.5,2.73,2.16,1.26h0Z" fill="#fff"/>
        <path id="Path_929" data-name="Path 929" d="M2612.9,1092.38a14.023,14.023,0,0,1-7.5-2.64c-2.09-1.62-5.22-4.89-5.06-7.67.09-1.61-2.41-1.6-2.5,0-.2,3.47,3.15,7.25,5.63,9.32a16.513,16.513,0,0,0,9.43,3.48c1.61.11,1.6-2.39,0-2.5h0Z" fill="#fff"/>
      </g>
      <g id="Group_118" data-name="Group 118">
        <path id="Path_930" data-name="Path 930" d="M2596.84,1080.15c2.09-4.67,6.23-13.27.79-17.24-4.76-3.48-12.71.88-16.61,3.86-1.26.96-.02,3.14,1.26,2.16,2.83-2.16,7.52-5.16,11.29-4.68,7.39.95,2.96,10.49,1.1,14.64-.65,1.46,1.5,2.73,2.16,1.26h0Z" fill="#fff"/>
        <path id="Path_931" data-name="Path 931" d="M2595.53,1078.41a14.023,14.023,0,0,1-7.5-2.64c-2.09-1.62-5.22-4.89-5.06-7.67.09-1.61-2.41-1.6-2.5,0-.2,3.47,3.15,7.25,5.63,9.32a16.513,16.513,0,0,0,9.43,3.48c1.61.11,1.6-2.39,0-2.5h0Z" fill="#fff"/>
      </g>
      <g id="Group_119" data-name="Group 119">
        <path id="Path_932" data-name="Path 932" d="M2579.46,1066.18c2.09-4.67,6.23-13.27.79-17.24-4.76-3.48-12.71.88-16.61,3.86-1.26.96-.02,3.14,1.26,2.16,2.83-2.16,7.52-5.16,11.29-4.68,7.39.95,2.96,10.49,1.1,14.64-.65,1.46,1.5,2.73,2.16,1.26h0Z" fill="#fff"/>
        <path id="Path_933" data-name="Path 933" d="M2578.15,1064.44a14.023,14.023,0,0,1-7.5-2.64c-2.05-1.59-5.22-4.89-5.06-7.67.09-1.61-2.41-1.6-2.5,0-.2,3.47,3.15,7.25,5.63,9.32a16.513,16.513,0,0,0,9.43,3.48c1.61.11,1.6-2.39,0-2.5h0Z" fill="#fff"/>
      </g>
      <g id="Group_121" data-name="Group 121">
        <g id="Group_120" data-name="Group 120">
          <path id="Path_934" data-name="Path 934" d="M2756.04,1176.29c-61.89-50.87-123.37-102.24-184.92-153.53-4.91-4.09-12.02,2.95-7.07,7.07,61.55,51.29,123.02,102.66,184.92,153.53,4.93,4.05,12.05-2.98,7.07-7.07Z" fill="#fff"/>
          <path id="Path_935" data-name="Path 935" d="M2789.6,1142.13c-61.89-50.87-123.37-102.24-184.92-153.53-4.91-4.09-12.02,2.95-7.07,7.07,61.55,51.29,123.02,102.66,184.92,153.53,4.93,4.05,12.05-2.98,7.07-7.07Z" fill="#fff"/>
        </g>
      </g>
    </g>
    <path id="Path_936" data-name="Path 936" d="M2505.99,1083.02s87.35-4.67,117.72,41.28" fill="none" stroke="#fff" stroke-miterlimit="10" stroke-width="0.25"/>
    <path id="Path_937" data-name="Path 937" d="M2505.99,1083.02s89.01-5.73,117.72,41.28c0,0,91.81-26.06,115.57,75.13-18.06,29.57-34.86,28.8-34.86,28.8l-198.43-145.21Z" fill="#010101"/>
    <circle id="Ellipse_327" data-name="Ellipse 327" cx="24.44" cy="24.44" r="24.44" transform="translate(2397.89 1241.71)" fill="#010101"/>
    <circle id="Ellipse_328" data-name="Ellipse 328" cx="24.44" cy="24.44" r="24.44" transform="translate(2475.36 1250.95)" fill="#010101"/>
    <path id="Path_938" data-name="Path 938" d="M2434.08,1275.39a24.44,24.44,0,0,1,48.88,0" fill="none" stroke="#010101" stroke-miterlimit="10" stroke-width="5"/>
    <path id="Path_939" data-name="Path 939" d="M2630.46,1629.45a111.067,111.067,0,0,0-25.09-48.81c-5.11-5.81-13.57,2.7-8.49,8.49a98.509,98.509,0,0,1,22,43.51c1.71,7.53,13.28,4.34,11.57-3.19h0Z" fill="#010101"/>
    <g id="Group_123" data-name="Group 123">
      <path id="Path_940" data-name="Path 940" d="M2620.66,1632.66c-.06.14-.11.28-.17.43-4.46,11.61-4.28,24.44-4.03,36.88.07,3.81.44,8.19,3.54,10.4,2.09,1.49,4.86,1.51,7.42,1.48l7.11-.09a5.249,5.249,0,0,0,2.78-.55,4.383,4.383,0,0,0,1.47-1.85c1.57-3.16,1.88-6.79,1.92-10.32a75.853,75.853,0,0,0-8.43-35.41c-1.25-2.42-2.84-4.95-5.41-5.85s-6.11.98-5.73,3.68l-.49,1.2Z" fill="#010101"/>
      <path id="Path_941" data-name="Path 941" d="M2614.87,1631.07c-2.83,7.25-3.92,15.08-4.33,22.82-.39,7.28-1.11,15.71.62,22.86,1.6,6.58,6.45,10.47,13.15,11.03s15.89,1.35,19.66-5.38c3.73-6.65,3.06-15.68,2.21-22.96a82.552,82.552,0,0,0-5.87-22.65c-2.52-6.01-5.78-13.7-12.99-15.01a10.826,10.826,0,0,0-9.13,2.58c-2.13,1.94-2.31,4.25-3.32,6.71-2.92,7.14,8.68,10.25,11.57,3.19l.49-1.2c.65-2.42.03-2.26-1.88.49,0,.7,2.45,3.89,2.84,4.68a70.393,70.393,0,0,1,6.77,27.31,39.383,39.383,0,0,1-.12,7.04,16.1,16.1,0,0,1-.94,3.75q2.235-1.05-.85-.55c-3.45-.6-8.71,1.93-10.03-2.24-1.16-3.64-.39-8.74-.37-12.52.04-9.13.74-18.2,4.09-26.78,2.8-7.2-8.79-10.32-11.57-3.19Z" fill="#010101"/>
    </g>
    <path id="Path_942" data-name="Path 942" d="M2481.51,1611.89l-24.44,65.13-12.57,33.49c-3.72,9.93-7.67,19.86-10.18,30.18-1.85,7.59-1,19.04,9.52,18.79,8.9-.21,16.76-9.28,21.69-15.73,12.54-16.41,19.99-35.92,27.15-55.09q13.935-37.29,27.82-74.59c2.7-7.24-8.89-10.37-11.57-3.19l-21.27,57.03c-6.53,17.5-12.46,35.46-21.21,52.01-4.15,7.84-8.89,15.88-15.24,22.16a27.573,27.573,0,0,1-4.5,3.71,20.619,20.619,0,0,0-2.91,1.59l.77.6c.76.89.99.83.69-.19.56-1.02.6-3.71.88-4.8.69-2.7,1.48-5.38,2.32-8.03,5.87-18.5,13.38-36.57,20.2-54.74l24.44-65.13c2.72-7.24-8.88-10.37-11.57-3.19h0Z" fill="#010101"/>
    <rect id="Rectangle_355" data-name="Rectangle 355" width="13.45" height="52.06" rx="4.94" transform="matrix(0.718, 0.696, -0.696, 0.718, 2676.448, 1358.663)" fill="#f9f9fa"/>
    <rect id="Rectangle_356" data-name="Rectangle 356" width="19.17" height="28.47" rx="4.94" transform="matrix(0.718, 0.696, -0.696, 0.718, 2662.049, 1341.708)" fill="#f9f9fa"/>
    <rect id="Rectangle_357" data-name="Rectangle 357" width="19.17" height="9.89" rx="4.94" transform="matrix(0.718, 0.696, -0.696, 0.718, 2663.707, 1354.507)" fill="#f9f9fa"/>
    <path id="Path_943" data-name="Path 943" d="M2634.11,1382.4a5.965,5.965,0,0,1-4.34-10.07l46.06-48.81a5.97,5.97,0,1,1,8.67,8.21l-46.06,48.81a5.921,5.921,0,0,1-4.34,1.86Z" fill="#010101"/>
    <rect id="Rectangle_358" data-name="Rectangle 358" width="67.04" height="67.04" rx="12.7" transform="translate(2321.007 1971.268) rotate(2.13)" fill="#f9f9fa"/>
    <circle id="Ellipse_329" data-name="Ellipse 329" cx="11.83" cy="11.83" r="11.83" transform="translate(2354.99 1981.11)" fill="#151515"/>
    <circle id="Ellipse_330" data-name="Ellipse 330" cx="11.83" cy="11.83" r="11.83" transform="translate(2327.88 1992.85)" fill="#151515"/>
    <circle id="Ellipse_331" data-name="Ellipse 331" cx="11.83" cy="11.83" r="11.83" transform="translate(2353.24 2009.43)" fill="#151515"/>
    <g id="Group_125" data-name="Group 125">
      <g id="Group_124" data-name="Group 124">
        <path id="Path_944" data-name="Path 944" d="M2294.01,3930.57s-79.05,100.77-149.25,136.49c-92.93,47.28-202.75,99.28-250.51,105.2s-60.87,41.05-50.79,59.63,49.99,17.55,49.99,17.55,648.75,18.87,691.63-17.96-28.48-146.55-19.71-220.79,9.53-87.66,9.53-87.66l-280.89,7.55Z" fill="#f58462"/>
        <path id="Path_945" data-name="Path 945" d="M1861.49,4287.14c.07,0,674.17-1.9,701.22-1.98-.33,1.45,27.53-2.61,28.66-25.62.46-29.86-28.05-31.09-29.28-30.41-21.63.06-307.7.87-507.73,1.44-198,2.95-212.45-10.39-220.73,24.94a28.088,28.088,0,0,0,27.86,31.64Z" fill="#010101"/>
        <path id="Path_946" data-name="Path 946" d="M2433.76,4118.76c6.44-13.25,13.81-29.16,9.55-44.21-3.95-13.96-16.8-23.24-27.94-31.34-6.25-4.55-12.25,5.86-6.06,10.36,8.43,6.13,19.42,13.54,22.43,24.17,3.3,11.65-3.4,24.8-8.34,34.96-3.36,6.92,6.98,13.01,10.36,6.06Z" fill="#c7644f"/>
        <path id="Path_947" data-name="Path 947" d="M2569.8,3942.27l-5.16,81.36c-.49,7.71,11.51,7.68,12,0l5.16-81.36c.49-7.71-11.51-7.68-12,0Z" fill="#c7644f"/>
        <path id="Path_948" data-name="Path 948" d="M2017.79,4230.46c8-28.04,39.8-37.23,65.89-37.26,7.72-.01,7.73-12.01,0-12-31.66.04-67.92,12.63-77.46,46.07-2.12,7.44,9.45,10.62,11.57,3.19h0Z" fill="#c7644f"/>
        <path id="Path_949" data-name="Path 949" d="M2036.69,4176.25s-47.36-4.11-47.42-4.11c-6.39-.04-13.45,1.45-21.48.81-.39-1.32-15.83,19.83-15.57,18.84-.13.13-.35.36-.78.8-6.3,7.79-28.65,25.83-24.72,28.93,2.56,8.44,2.11,7.77,4.96,7.92,7.86-.19,56.25-1.33,56.31-1.33,1.57-.51,1.29-.62,1.85-1.12,3.97-3.93,25.3-25.05,38.17-37.8,6.06-6.64,13.51-10.92,8.68-12.93Z" fill="#f58462"/>
        <path id="Path_950" data-name="Path 950" d="M1958.03,4186.44s-4.77-25.07-31.64-21.8c0,0,49.51-16.8,77.59-30.08,19.81,7,27.8,33.5,27.8,33.5S1976.88,4171.85,1958.03,4186.44Z" fill="#010101"/>
        <path id="Path_951" data-name="Path 951" d="M2254.03,4230s-13.12-124.31-96.66-168.87c41.31-31.29,48.78-37.15,94.42-82.08,68.56-17.9,195.21,250.41,195.21,250.41" fill="#010101"/>
        <path id="Path_952" data-name="Path 952" d="M2263.35,3962.12a601.4,601.4,0,0,1-58.58,57.86c-5.86,5.05,2.66,13.5,8.49,8.49a602.542,602.542,0,0,0,58.58-57.86c5.09-5.77-3.36-14.29-8.49-8.49Z" fill="#c7644f"/>
        <path id="Path_953" data-name="Path 953" d="M1930.67,4225.5c-.15-13.02,10-23.41,19.95-30.5,10.4-7.41,22.37-13.21,34.9-15.89,7.55-1.61,4.35-13.19-3.19-11.57-14.71,3.15-29.06,10.32-40.94,19.46-12.16,9.35-22.9,22.38-22.72,38.5.09,7.72,12.09,7.74,12,0h0Z" fill="#c7644f"/>
      </g>
      <path id="Path_954" data-name="Path 954" d="M2186.79,4088.43a830.3,830.3,0,0,1-141.05,72.74c-7.09,2.83-3.99,14.44,3.19,11.57a846.215,846.215,0,0,0,143.91-73.95c6.48-4.16.47-14.55-6.06-10.36h0Z" fill="#c7644f"/>
    </g>
    <circle id="Ellipse_332" data-name="Ellipse 332" cx="18.53" cy="18.53" r="18.53" transform="translate(2957.43 1213.43)" fill="#0c0c0c"/>
    <circle id="Ellipse_333" data-name="Ellipse 333" cx="18.53" cy="18.53" r="18.53" transform="translate(1283.21 2700)" fill="#0c0c0c"/>
    <circle id="Ellipse_334" data-name="Ellipse 334" cx="13.1" cy="13.1" r="13.1" transform="translate(2096.38 2352.17)" fill="#0c0c0c"/>
    <circle id="Ellipse_335" data-name="Ellipse 335" cx="32.64" cy="32.64" r="32.64" transform="translate(1652.77 2611.93)" fill="none" stroke="#0d0e0e" stroke-miterlimit="10" stroke-width="5"/>
    <circle id="Ellipse_336" data-name="Ellipse 336" cx="32.78" cy="32.78" r="32.78" transform="translate(1992.93 1600.59)" fill="none" stroke="#0d0e0e" stroke-miterlimit="10" stroke-width="5"/>
    <circle id="Ellipse_337" data-name="Ellipse 337" cx="32.78" cy="32.78" r="32.78" transform="translate(1853.5 2409.78)" fill="none" stroke="#0d0e0e" stroke-miterlimit="10" stroke-width="5"/>
    <circle id="Ellipse_338" data-name="Ellipse 338" cx="18.53" cy="18.53" r="18.53" transform="translate(1587.48 2396.98)" fill="#0c0c0c"/>
    <circle id="Ellipse_339" data-name="Ellipse 339" cx="30.23" cy="30.23" r="30.23" transform="translate(3299.91 1805.89)" fill="#0c0c0c"/>
    <circle id="Ellipse_340" data-name="Ellipse 340" cx="25.8" cy="25.8" r="25.8" transform="translate(3433.52 2523.26)" fill="none" stroke="#0d0e0e" stroke-miterlimit="10" stroke-width="5"/>
    <circle id="Ellipse_341" data-name="Ellipse 341" cx="22.76" cy="22.76" r="22.76" transform="translate(2971.73 1458.62)" fill="none" stroke="#0d0e0e" stroke-miterlimit="10" stroke-width="5"/>
    <g id="Group_126" data-name="Group 126">
      <circle id="Ellipse_342" data-name="Ellipse 342" cx="206.29" cy="206.29" r="206.29" transform="translate(2792 963.56)" fill="#fff" stroke="#0d0e0e" stroke-miterlimit="10" stroke-width="8"/>
      <path id="Path_955" data-name="Path 955" d="M2845.25,1302.78l-6.82,78.16,80.25-23.72" fill="#fff" stroke="#0d0e0e" stroke-linecap="round" stroke-miterlimit="10" stroke-width="8"/>
    </g>
    <g id="Group_127" data-name="Group 127">
      <path id="Path_956" data-name="Path 956" d="M1417.98,2902.56c54.22,30.47-7.91,105.03-7.91,148.52s62.13,37.28,93.2,49.71c12.43,0,37.28,0,36.61,31.6" fill="none" stroke="#0d0e0e" stroke-miterlimit="10" stroke-width="5"/>
      <path id="Path_957" data-name="Path 957" d="M1357.53,2941.94c9.43,51.41,68.43,33.17,104.52,44.91,62.03,20.18,27.64,84.32,9.09,123.07-11.09,23.17-22.14,55.55-2.31,77.52" fill="none" stroke="#0d0e0e" stroke-miterlimit="10" stroke-width="5"/>
      <line id="Line_22" data-name="Line 22" y1="53.73" x2="64.68" transform="translate(1365.47 2908.15)" fill="none" stroke="#0d0e0e" stroke-miterlimit="10" stroke-width="5"/>
      <line id="Line_23" data-name="Line 23" y1="40.41" x2="48.71" transform="translate(1390.84 2937.51)" fill="none" stroke="#0d0e0e" stroke-miterlimit="10" stroke-width="5"/>
      <line id="Line_24" data-name="Line 24" y1="32.32" x2="41.14" transform="translate(1419.47 2986.46)" fill="none" stroke="#0d0e0e" stroke-miterlimit="10" stroke-width="5"/>
      <line id="Line_25" data-name="Line 25" y1="57.82" x2="80.4" transform="translate(1410.97 3009.33)" fill="none" stroke="#0d0e0e" stroke-miterlimit="10" stroke-width="5"/>
      <line id="Line_26" data-name="Line 26" y1="41.14" x2="56.04" transform="translate(1441.76 3048.56)" fill="none" stroke="#0d0e0e" stroke-miterlimit="10" stroke-width="5"/>
      <line id="Line_27" data-name="Line 27" y1="57.03" x2="70.05" transform="translate(1465.61 3120.09)" fill="none" stroke="#0d0e0e" stroke-miterlimit="10" stroke-width="5"/>
      <line id="Line_28" data-name="Line 28" y1="32.12" x2="45.71" transform="translate(1467.34 3100.13)" fill="none" stroke="#0d0e0e" stroke-miterlimit="10" stroke-width="5"/>
    </g>
    <g id="Group_128" data-name="Group 128">
      <path id="Path_958" data-name="Path 958" d="M3323.46,2839.65a56.056,56.056,0,0,1,53.76-40.18c25.44,0,48.37,18.12,54.4,42.57" fill="none" stroke="#0d0e0e" stroke-miterlimit="10" stroke-width="5"/>
      <path id="Path_959" data-name="Path 959" d="M3370.87,2911.18a56.041,56.041,0,0,1-49.68-55.67" fill="none" stroke="#0d0e0e" stroke-miterlimit="10" stroke-width="5"/>
      <path id="Path_960" data-name="Path 960" d="M3433.25,2855.5a56.029,56.029,0,0,1-56.03,56.03" fill="none" stroke="#0d0e0e" stroke-miterlimit="10" stroke-width="5"/>
      <path id="Path_961" data-name="Path 961" d="M3436.43,2819.98c17.53-2.25,29.27-1.03,31.09,4.19,3.62,10.44-33.86,32.93-83.73,50.24s-93.23,22.87-96.85,12.43c-1.94-5.58,7.87-14.61,25.04-24.44" fill="none" stroke="#0d0e0e" stroke-miterlimit="10" stroke-width="5"/>
    </g>
    <g id="Group_129" data-name="Group 129">
      <path id="Path_962" data-name="Path 962" d="M3526.22,2146.71a58.984,58.984,0,0,1-58.88,58.93q-2.865,0-5.61-.25a58.911,58.911,0,1,1,64.5-58.67Z" fill="none" stroke="#0d0e0e" stroke-miterlimit="10" stroke-width="5"/>
      <path id="Path_963" data-name="Path 963" d="M3516.77,2157.36a9.11,9.11,0,1,1-9.11-9.11A9.112,9.112,0,0,1,3516.77,2157.36Z" fill="none" stroke="#0d0e0e" stroke-miterlimit="10" stroke-width="5"/>
      <path id="Path_964" data-name="Path 964" d="M3434.78,2180.51a14.726,14.726,0,0,1-5.32,11.34,58.353,58.353,0,0,1-17.15-24.04,14.336,14.336,0,0,1,7.6-2.12,14.843,14.843,0,0,1,14.87,14.82Z" fill="none" stroke="#0d0e0e" stroke-miterlimit="10" stroke-width="5"/>
      <path id="Path_965" data-name="Path 965" d="M3507.66,2189.6a58.509,58.509,0,0,1-40.32,16.03q-2.865,0-5.61-.25a23.705,23.705,0,0,1-.5-4.86,24.487,24.487,0,0,1,46.43-10.92Z" fill="none" stroke="#0d0e0e" stroke-miterlimit="10" stroke-width="5"/>
      <circle id="Ellipse_343" data-name="Ellipse 343" cx="13.55" cy="13.55" r="13.55" transform="translate(3439.51 2096.26)" fill="none" stroke="#0d0e0e" stroke-miterlimit="10" stroke-width="5"/>
      <path id="Path_966" data-name="Path 966" d="M3465.59,2148.25a6.27,6.27,0,1,1-6.27-6.27A6.274,6.274,0,0,1,3465.59,2148.25Z" fill="none" stroke="#0d0e0e" stroke-miterlimit="10" stroke-width="5"/>
      <path id="Path_967" data-name="Path 967" d="M3515.13,2112.32a15.854,15.854,0,0,1-5.11.79,17.22,17.22,0,0,1-17.23-17.27,18.994,18.994,0,0,1,.12-2.16,58.624,58.624,0,0,1,22.22,18.65Z" fill="none" stroke="#0d0e0e" stroke-miterlimit="10" stroke-width="5"/>
    </g>
    <g id="Group_130" data-name="Group 130">
      <circle id="Ellipse_344" data-name="Ellipse 344" cx="46.05" cy="46.05" r="46.05" transform="translate(3095.431 3216.602) rotate(-80.68)" fill="none" stroke="#0d0e0e" stroke-miterlimit="10" stroke-width="5"/>
      <path id="Path_968" data-name="Path 968" d="M3240.52,3237.89a51.1,51.1,0,1,1,11.7-71.31A51.1,51.1,0,0,1,3240.52,3237.89Z" fill="none" stroke="#0d0e0e" stroke-miterlimit="10" stroke-width="5"/>
      <line id="Line_29" data-name="Line 29" x1="21.23" y2="7.58" transform="translate(3168.91 3159.42)" fill="none" stroke="#0d0e0e" stroke-miterlimit="10" stroke-width="5"/>
      <line id="Line_30" data-name="Line 30" x1="30.48" y2="11.02" transform="translate(3162.61 3168.17)" fill="none" stroke="#0d0e0e" stroke-miterlimit="10" stroke-width="5"/>
      <line id="Line_31" data-name="Line 31" x1="34.02" y2="13.08" transform="translate(3160.2 3178.71)" fill="none" stroke="#0d0e0e" stroke-miterlimit="10" stroke-width="5"/>
      <line id="Line_32" data-name="Line 32" x1="31.01" y2="14.17" transform="translate(3160.79 3193.11)" fill="none" stroke="#0d0e0e" stroke-miterlimit="10" stroke-width="5"/>
      <line id="Line_33" data-name="Line 33" x1="23.59" y2="9.79" transform="translate(3162.74 3204.19)" fill="none" stroke="#0d0e0e" stroke-miterlimit="10" stroke-width="5"/>
      <path id="Path_969" data-name="Path 969" d="M3170.42,3108.26c-1.34-4-16.26-6.84-16.99,4.21s15.75,1.87,20.38-4.01c0,0-8.47,11.38-4.88,13.63" fill="none" stroke="#0d0e0e" stroke-miterlimit="10" stroke-width="5"/>
      <path id="Path_970" data-name="Path 970" d="M3253.08,3122.03l-13.26,27.56s6.63-13.78,13.72-12.52c8.74,1.55,2.93,15.85-7.63,10.59" fill="none" stroke="#0d0e0e" stroke-miterlimit="10" stroke-width="5"/>
    </g>
    <g id="Group_131" data-name="Group 131">
      <path id="Path_971" data-name="Path 971" d="M2066.97,1339.04c5.94,23.52,3.01-19.78,14.66-72.77s31.59-31.5,31.59-31.5" fill="none" stroke="#0d0e0e" stroke-miterlimit="10" stroke-width="5"/>
      <line id="Line_34" data-name="Line 34" y1="14.97" x2="36.51" transform="translate(2063.31 1269.94)" fill="none" stroke="#0d0e0e" stroke-miterlimit="10" stroke-width="5"/>
      <path id="Path_972" data-name="Path 972" d="M2130.01,1251.99s-21.82,45.12,11.07,64.31" fill="none" stroke="#0d0e0e" stroke-miterlimit="10" stroke-width="5"/>
      <path id="Path_973" data-name="Path 973" d="M2160.97,1239.3s36.02,20.01,13.45,63.33" fill="none" stroke="#0d0e0e" stroke-miterlimit="10" stroke-width="5"/>
      <line id="Line_35" data-name="Line 35" x2="25.81" y2="18.84" transform="translate(2136.28 1267.28)" fill="none" stroke="#0d0e0e" stroke-miterlimit="10" stroke-width="5"/>
      <line id="Line_36" data-name="Line 36" x1="20.19" y2="32.15" transform="translate(2136.33 1258.98)" fill="none" stroke="#0d0e0e" stroke-miterlimit="10" stroke-width="5"/>
    </g>
    <g id="Group_132" data-name="Group 132">
      <line id="Line_37" data-name="Line 37" x2="28.26" y2="26.73" transform="translate(1301.74 2367.36)" fill="none" stroke="#0d0e0e" stroke-miterlimit="10" stroke-width="5"/>
      <line id="Line_38" data-name="Line 38" x1="23.66" y2="35.34" transform="translate(1306.34 2360.38)" fill="none" stroke="#0d0e0e" stroke-miterlimit="10" stroke-width="5"/>
      <line id="Line_39" data-name="Line 39" y1="10.5" x2="28.26" transform="translate(1357.78 2360.02)" fill="none" stroke="#0d0e0e" stroke-miterlimit="10" stroke-width="5"/>
      <line id="Line_40" data-name="Line 40" x2="17.18" y2="15.21" transform="translate(1399.6 2330.55)" fill="none" stroke="#0d0e0e" stroke-miterlimit="10" stroke-width="5"/>
      <line id="Line_41" data-name="Line 41" x1="21.76" y2="74.7" transform="translate(1408.19 2312.26)" fill="none" stroke="#0d0e0e" stroke-miterlimit="10" stroke-width="5"/>
    </g>
    <path id="Path_974" data-name="Path 974" d="M3334.95,1597.16l7.37-16.57-11.94-6.59a37.192,37.192,0,0,0,.24-8.81l12.25-5.96-6.51-16.93-13.09,3.78a37.723,37.723,0,0,0-6.07-6.38l4.45-12.89-16.57-7.37-6.59,11.94a37.185,37.185,0,0,0-8.81-.24l-5.96-12.25-16.93,6.51,3.78,13.09a37.717,37.717,0,0,0-6.38,6.07l-12.89-4.45-7.37,16.57,11.94,6.59a37.192,37.192,0,0,0-.24,8.81l-12.25,5.96,6.51,16.93,13.09-3.78a37.723,37.723,0,0,0,6.07,6.38l-4.45,12.89,16.57,7.37,6.59-11.94a37.185,37.185,0,0,0,8.81.24l5.96,12.25,16.93-6.51-3.78-13.09a37.717,37.717,0,0,0,6.38-6.07Zm-50.4-9.27a21.081,21.081,0,1,1,27.83-10.69A21.079,21.079,0,0,1,3284.55,1587.89Z" fill="none" stroke="#0d0e0e" stroke-miterlimit="10" stroke-width="5"/>
    <path id="Path_975" data-name="Path 975" d="M3246.88,1682.22l10.01-22.51-16.22-8.95a50.494,50.494,0,0,0,.32-11.96l16.64-8.1-8.84-23-17.78,5.13a50.393,50.393,0,0,0-8.25-8.66l6.05-17.51-22.51-10.01-8.95,16.22a50.494,50.494,0,0,0-11.96-.32l-8.1-16.64-23,8.84,5.13,17.78a50.388,50.388,0,0,0-8.66,8.25l-17.51-6.05-10.01,22.51,16.22,8.95a51.034,51.034,0,0,0-.33,11.96l-16.64,8.1,8.84,23,17.78-5.13a50.393,50.393,0,0,0,8.25,8.66l-6.05,17.51,22.51,10.01,8.95-16.22a51.034,51.034,0,0,0,11.96.33l8.1,16.64,23-8.84-5.13-17.78a50.388,50.388,0,0,0,8.66-8.25l17.51,6.05Zm-68.44-12.59a28.626,28.626,0,1,1,37.79-14.52A28.622,28.622,0,0,1,3178.44,1669.63Z" fill="none" stroke="#0d0e0e" stroke-miterlimit="10" stroke-width="5"/>
    <g id="Group_139" data-name="Group 139">
      <g id="Group_137" data-name="Group 137">
        <g id="Group_134" data-name="Group 134">
          <g id="Group_133" data-name="Group 133">
            <path id="Path_976" data-name="Path 976" d="M3304.84,2892.38s0-33.2-46.48-79.68-76.37-73.04-76.37-73.04-23.24,76.36,19.92,122.85,102.93,89.65,102.93,89.65V2892.4Z" fill="#34325c"/>
            <path id="Path_977" data-name="Path 977" d="M3237.38,3099.74s0-33.2-46.48-79.69-76.36-73.04-76.36-73.04-23.24,76.37,19.92,122.85,102.93,89.65,102.93,89.65v-59.76Z" fill="#34325c"/>
            <path id="Path_978" data-name="Path 978" d="M3301.92,2948.93s3.51-33.02,54.64-74.33,83.66-64.57,83.66-64.57,15.04,78.39-32.79,120.05-111.82,78.27-111.82,78.27l6.31-59.43Z" fill="#34325c"/>
            <path id="Path_979" data-name="Path 979" d="M3220.42,3193.82s6.96-32.47,62.15-68.18,89.97-55.42,89.97-55.42,6.73,79.54-45.22,115.95-119.43,66.09-119.43,66.09l12.52-58.44Z" fill="#34325c"/>
            <path id="Path_980" data-name="Path 980" d="M3235.74,3460.82s0-33.2,46.48-79.69,76.37-73.04,76.37-73.04,23.24,76.37-19.92,122.85-102.93,89.65-102.93,89.65v-59.76Z" fill="#34325c"/>
            <path id="Path_981" data-name="Path 981" d="M3234.97,3525.98s4.72-32.87-34.69-85.48-65.21-83.15-65.21-83.15-33.86,72.29,2.26,124.43,89.14,103.36,89.14,103.36l8.49-59.16Z" fill="#34325c"/>
            <path id="Path_982" data-name="Path 982" d="M3189.13,3719.12s0-33.2,46.48-79.68,76.36-73.05,76.36-73.05,23.24,76.37-19.92,122.85-102.93,89.65-102.93,89.65v-59.77Z" fill="#34325c"/>
            <path id="Path_983" data-name="Path 983" d="M3220.17,3894.23s-8.41-32.12,24.79-88.86,55.38-90,55.38-90,41.82,67.99,11.84,123.89-76.87,112.79-76.87,112.79l-15.14-57.82Z" fill="#34325c"/>
          </g>
          <path id="Path_984" data-name="Path 984" d="M3309.05,2883.88c-2.72,35.49-6.75,72.21-12.73,103.09-18.38,94.94-64.31,156.18-82.69,241.93s34.38,196.22,20.25,306.36-57,171.39-44.75,244.89,76.56,272.56,76.56,272.56" fill="none" stroke="#fff" stroke-linecap="round" stroke-linejoin="round" stroke-width="4"/>
          <line id="Line_42" data-name="Line 42" y1="38.44" x2="50.09" transform="translate(3301.46 2932.56)" fill="none" stroke="#fff" stroke-linecap="round" stroke-linejoin="round" stroke-width="4"/>
          <line id="Line_43" data-name="Line 43" x1="20.97" y1="37.27" transform="translate(3282.82 2889.46)" fill="none" stroke="#fff" stroke-linecap="round" stroke-linejoin="round" stroke-width="4"/>
          <path id="Path_985" data-name="Path 985" d="M3216.42,3224.96s41.94-31.45,85.04-62.91" fill="none" stroke="#fff" stroke-linecap="round" stroke-linejoin="round" stroke-width="4"/>
          <path id="Path_986" data-name="Path 986" d="M3237.38,3159.5s-34.94-68.51-74.55-113.94" fill="none" stroke="#fff" stroke-linecap="round" stroke-linejoin="round" stroke-width="4"/>
          <path id="Path_987" data-name="Path 987" d="M3237.39,3508.05s32.62-64.07,89.7-119.99" fill="none" stroke="#fff" stroke-linecap="round" stroke-linejoin="round" stroke-width="4"/>
          <path id="Path_988" data-name="Path 988" d="M3229.23,3554.65s-20.97-50.09-45.43-86.21-27.96-40.77-27.96-40.77" fill="none" stroke="#fff" stroke-linecap="round" stroke-linejoin="round" stroke-width="4"/>
          <path id="Path_989" data-name="Path 989" d="M3189.14,3780.14s16.8-42.6,37.77-76.38,48.93-64.07,48.93-64.07" fill="none" stroke="#fff" stroke-linecap="round" stroke-linejoin="round" stroke-width="4"/>
          <path id="Path_990" data-name="Path 990" d="M3235.31,3952.05s-4.91-39.76,12.56-73.54,37.28-78.05,45.43-95.53" fill="none" stroke="#fff" stroke-linecap="round" stroke-linejoin="round" stroke-width="4"/>
        </g>
        <g id="Group_136" data-name="Group 136">
          <g id="Group_135" data-name="Group 135">
            <path id="Path_991" data-name="Path 991" d="M3000.45,3335.95s-3.6-20.82,20.5-55.02,39.96-54.1,39.96-54.1,22.86,45.36.84,79.2-54.81,67.39-54.81,67.39l-6.49-37.48Z" fill="#34325c"/>
            <path id="Path_992" data-name="Path 992" d="M3065.27,3458.65s-3.6-20.82,20.5-55.02,39.96-54.1,39.96-54.1,22.86,45.36.84,79.2-54.81,67.39-54.81,67.39l-6.49-37.48Z" fill="#34325c"/>
            <path id="Path_993" data-name="Path 993" d="M3008.42,3371.09s-5.78-20.32-42.33-40.68-59.47-31.41-59.47-31.41-.92,50.79,33.59,71.73,78.62,36.94,78.62,36.94l-10.41-36.58Z" fill="#34325c"/>
            <path id="Path_994" data-name="Path 994" d="M3086.11,3515.81s-7.89-19.6-46.37-36.01-62.44-24.99-62.44-24.99,4.42,50.61,40.94,67.8,82.06,28.48,82.06,28.48l-14.2-35.28Z" fill="#34325c"/>
            <path id="Path_995" data-name="Path 995" d="M3105.49,3684.9s-3.6-20.82-37.8-44.92-55.82-37.51-55.82-37.51-6.28,50.41,25.83,74.87,74.28,45.04,74.28,45.04l-6.49-37.48Z" fill="#34325c"/>
            <path id="Path_996" data-name="Path 996" d="M3113.05,3725.68s-6.53-20.1,12.47-57.37,31.86-59.22,31.86-59.22,29.08,41.65,12.09,78.27-44.68,74.49-44.68,74.49l-11.75-36.17Z" fill="#34325c"/>
            <path id="Path_997" data-name="Path 997" d="M3171.4,3893.62s2.41-20.99,35.17-47.01,53.58-40.64,53.58-40.64,9.15,49.97-21.51,76.23-71.58,49.21-71.58,49.21Z" fill="#34325c"/>
            <path id="Path_998" data-name="Path 998" d="M3162.76,3841.82s-3.6-20.82-37.8-44.92-55.82-37.52-55.82-37.52-6.28,50.41,25.83,74.87,74.27,45.04,74.27,45.04l-6.49-37.48Z" fill="#34325c"/>
            <path id="Path_999" data-name="Path 999" d="M3162.31,3954.99s1.79-21.06-25.19-53.03-44.5-50.43-44.5-50.43-18.85,47.17,6.02,78.97,60.45,62.38,60.45,62.38l3.22-37.9Z" fill="#34325c"/>
          </g>
          <path id="Path_1000" data-name="Path 1000" d="M2996.89,3331.07c5.56,21.96,12.07,44.55,19.18,63.26,21.83,57.54,57.28,90.96,78.11,142.73s-.25,126.78,20.56,194.31,54.35,101.28,54.65,148.7-18.42,179.23-18.42,179.23" fill="none" stroke="#fff" stroke-linecap="round" stroke-linejoin="round" stroke-width="4"/>
          <line id="Line_44" data-name="Line 44" x1="35.59" y1="18.67" transform="translate(2975.52 3366.21)" fill="none" stroke="#fff" stroke-linecap="round" stroke-linejoin="round" stroke-width="4"/>
          <line id="Line_45" data-name="Line 45" y1="25.65" x2="9.1" transform="translate(3004.84 3331.72)" fill="none" stroke="#fff" stroke-linecap="round" stroke-linejoin="round" stroke-width="4"/>
          <path id="Path_1001" data-name="Path 1001" d="M3092.01,3534.9s-29.71-15.17-60.16-30.22" fill="none" stroke="#fff" stroke-linecap="round" stroke-linejoin="round" stroke-width="4"/>
          <path id="Path_1002" data-name="Path 1002" d="M3071.75,3496.13s14.47-46.76,34.38-79.55" fill="none" stroke="#fff" stroke-linecap="round" stroke-linejoin="round" stroke-width="4"/>
          <path id="Path_1003" data-name="Path 1003" d="M3109.59,3714.69s-27.41-36.64-69.28-65.51" fill="none" stroke="#fff" stroke-linecap="round" stroke-linejoin="round" stroke-width="4"/>
          <path id="Path_1004" data-name="Path 1004" d="M3119.76,3743.03s7.71-33.69,19.13-58.99,13.11-28.6,13.11-28.6" fill="none" stroke="#fff" stroke-linecap="round" stroke-linejoin="round" stroke-width="4"/>
          <path id="Path_1005" data-name="Path 1005" d="M3167.77,3916.05s23.59-28.91,38.27-39.73a204.4,204.4,0,0,0,24.85-21.61" fill="none" stroke="#fff" stroke-linecap="round" stroke-linejoin="round" stroke-width="4"/>
          <path id="Path_1006" data-name="Path 1006" d="M3169.38,3880.08s-15.16-24.89-31.98-43.8-37.64-34.87-37.64-34.87" fill="none" stroke="#fff" stroke-linecap="round" stroke-linejoin="round" stroke-width="4"/>
          <path id="Path_1007" data-name="Path 1007" d="M3159.09,3992.89s-1.24-25.46-15.86-44.75-31.85-44.9-38.86-54.97" fill="none" stroke="#fff" stroke-linecap="round" stroke-linejoin="round" stroke-width="4"/>
        </g>
      </g>
      <g id="Group_138" data-name="Group 138">
        <path id="Path_1008" data-name="Path 1008" d="M3056,4036.32h304.07V4285.3a3.039,3.039,0,0,1-3.04,3.04H3059.04a3.039,3.039,0,0,1-3.04-3.04V4036.32h0Z" fill="#353460"/>
        <path id="Path_1009" data-name="Path 1009" d="M3357.42,4075.98H3056a23.8,23.8,0,0,1-23.8-23.8h0a23.8,23.8,0,0,1,23.8-23.8h301.42a23.8,23.8,0,0,1,23.8,23.8h0A23.8,23.8,0,0,1,3357.42,4075.98Z" fill="#353460"/>
      </g>
    </g>
    <g id="Group_140" data-name="Group 140">
      <path id="Path_1010" data-name="Path 1010" d="M2947.93,1107.69a32.99,32.99,0,1,1,32.99-32.99A33.028,33.028,0,0,1,2947.93,1107.69Zm0-62.51a29.52,29.52,0,1,0,29.52,29.52A29.55,29.55,0,0,0,2947.93,1045.18Z" fill="#010101"/>
      <circle id="Ellipse_345" data-name="Ellipse 345" cx="31.25" cy="31.25" r="31.25" transform="translate(3017.39 1043.45)" fill="#010101"/>
      <circle id="Ellipse_346" data-name="Ellipse 346" cx="31.25" cy="31.25" r="31.25" transform="translate(2916.68 1144.15)" fill="#010101"/>
      <path id="Path_1011" data-name="Path 1011" d="M3048.64,1208.39a32.99,32.99,0,1,1,32.99-32.99A33.028,33.028,0,0,1,3048.64,1208.39Zm0-62.51a29.52,29.52,0,1,0,29.52,29.52A29.55,29.55,0,0,0,3048.64,1145.88Z" fill="#010101"/>
      <path id="Path_1012" data-name="Path 1012" d="M2947.93,1309.1a32.99,32.99,0,1,1,32.99-32.99A33.028,33.028,0,0,1,2947.93,1309.1Zm0-62.51a29.52,29.52,0,1,0,29.52,29.52A29.55,29.55,0,0,0,2947.93,1246.59Z" fill="#010101"/>
      <path id="Path_1013" data-name="Path 1013" d="M3048.64,1309.1a32.99,32.99,0,1,1,32.99-32.99A33.028,33.028,0,0,1,3048.64,1309.1Zm0-62.51a29.52,29.52,0,1,0,29.52,29.52A29.55,29.55,0,0,0,3048.64,1246.59Z" fill="#010101"/>
    </g>
  </g>
</svg>
