<svg xmlns="http://www.w3.org/2000/svg" width="326.303" height="196.159" viewBox="0 0 326.303 196.159">
  <g id="Group_40" data-name="Group 40" transform="translate(-21 -65.631)">
    <g id="Group_38" data-name="Group 38" transform="translate(21 145.505)">
      <path id="Path_116" data-name="Path 116" d="M275.395,90.868l-7.409,4.7,4.5-8.177a7.323,7.323,0,0,0-4.482-1.6h-.119a8.668,8.668,0,0,1-1.537-.115l-2.511,1.59,1.079-1.957a8.888,8.888,0,0,1-4.392-3.342l-4.5,2.864,2.84-5.16A13.155,13.155,0,0,0,248.8,74.58c-4.673,0-8.836,2.778-11.523,7.108a8.592,8.592,0,0,1-7.638,4.105h-.253c-5.16,0-9.342,5.848-9.342,13.065s4.182,13.065,9.342,13.065a7.031,7.031,0,0,0,3.256-.816,13.457,13.457,0,0,1,11.3-.22,11.772,11.772,0,0,0,9.614,0,13.486,13.486,0,0,1,11.208.22,6.994,6.994,0,0,0,3.217.8c5.16,0,9.342-5.852,9.342-13.065A16.569,16.569,0,0,0,275.395,90.868Z" transform="translate(-220.04 -74.58)" fill="#f2f2f2"/>
      <path id="Path_117" data-name="Path 117" d="M261.464,128.623a13.791,13.791,0,0,0-7.991.869,11.8,11.8,0,0,1-9.614,0,13.471,13.471,0,0,0-11.3.224,7.042,7.042,0,0,1-3.256.812c-4.583,0-8.4-4.616-9.189-10.707a8.918,8.918,0,0,0,2.291-2.468c2.688-4.334,6.85-7.113,11.524-7.113s8.783,2.745,11.457,7.032A8.836,8.836,0,0,0,253,121.429h.119C256.766,121.429,259.927,124.356,261.464,128.623Z" transform="translate(-220.077 -93.217)" opacity="0.03"/>
    </g>
    <g id="Group_33" data-name="Group 33" transform="translate(290.018 96.379)">
      <path id="Path_116-2" data-name="Path 116" d="M275.395,90.868l-7.409,4.7,4.5-8.177a7.323,7.323,0,0,0-4.482-1.6h-.119a8.668,8.668,0,0,1-1.537-.115l-2.511,1.59,1.079-1.957a8.888,8.888,0,0,1-4.392-3.342l-4.5,2.864,2.84-5.16A13.155,13.155,0,0,0,248.8,74.58c-4.673,0-8.836,2.778-11.523,7.108a8.592,8.592,0,0,1-7.638,4.105h-.253c-5.16,0-9.342,5.848-9.342,13.065s4.182,13.065,9.342,13.065a7.031,7.031,0,0,0,3.256-.816,13.457,13.457,0,0,1,11.3-.22,11.772,11.772,0,0,0,9.614,0,13.486,13.486,0,0,1,11.208.22,6.994,6.994,0,0,0,3.217.8c5.16,0,9.342-5.852,9.342-13.065A16.569,16.569,0,0,0,275.395,90.868Z" transform="translate(-220.04 -74.58)" fill="#f2f2f2"/>
      <path id="Path_117-2" data-name="Path 117" d="M261.464,128.623a13.791,13.791,0,0,0-7.991.869,11.8,11.8,0,0,1-9.614,0,13.471,13.471,0,0,0-11.3.224,7.042,7.042,0,0,1-3.256.812c-4.583,0-8.4-4.616-9.189-10.707a8.918,8.918,0,0,0,2.291-2.468c2.688-4.334,6.85-7.113,11.524-7.113s8.783,2.745,11.457,7.032A8.836,8.836,0,0,0,253,121.429h.119C256.766,121.429,259.927,124.356,261.464,128.623Z" transform="translate(-220.077 -93.217)" opacity="0.03"/>
    </g>
    <g id="Group_39" data-name="Group 39" transform="translate(35.036 65.631)">
      <path id="Path_116-3" data-name="Path 116" d="M293.665,96.243l-9.854,6.248,5.981-10.876a9.74,9.74,0,0,0-5.962-2.127h-.159a11.531,11.531,0,0,1-2.045-.152l-3.34,2.114,1.435-2.6a11.823,11.823,0,0,1-5.841-4.444l-5.981,3.81,3.778-6.863c-3.5-4.2-8.21-6.768-13.39-6.768-6.216,0-11.752,3.7-15.327,9.454a11.429,11.429,0,0,1-10.159,5.46h-.336c-6.863,0-12.425,7.778-12.425,17.378s5.562,17.378,12.425,17.378a9.352,9.352,0,0,0,4.33-1.086,17.9,17.9,0,0,1,15.035-.292,15.657,15.657,0,0,0,12.787,0,17.937,17.937,0,0,1,14.908.292,9.3,9.3,0,0,0,4.279,1.06c6.863,0,12.425-7.784,12.425-17.378A22.037,22.037,0,0,0,293.665,96.243Z" transform="translate(-220.04 -74.58)" fill="#f2f2f2"/>
      <path id="Path_117-3" data-name="Path 117" d="M275.113,134.691a18.343,18.343,0,0,0-10.629,1.156,15.689,15.689,0,0,1-12.787,0,17.917,17.917,0,0,0-15.035.3,9.366,9.366,0,0,1-4.33,1.079c-6.1,0-11.168-6.14-12.222-14.241a11.861,11.861,0,0,0,3.048-3.283c3.575-5.765,9.111-9.46,15.327-9.46s11.682,3.651,15.238,9.352a11.752,11.752,0,0,0,10.127,5.53h.159C268.865,125.122,273.069,129.015,275.113,134.691Z" transform="translate(-220.066 -87.599)" opacity="0.03"/>
    </g>
    <g id="undraw_remote_design_team_0hp4" transform="translate(56.09 99.421)">
      <rect id="Rectangle_94" data-name="Rectangle 94" width="244" height="130" rx="2" transform="translate(5.91 -0.421)" fill="#fff"/>
      <path id="Path_401" data-name="Path 401" d="M371.413,152.808H129.655a2.05,2.05,0,0,0-2.049,2.049V279.7a2.049,2.049,0,0,0,2.049,2.049H371.413a2.057,2.057,0,0,0,1.647-.836,1.8,1.8,0,0,0,.26-.47,1.977,1.977,0,0,0,.142-.743V154.857A2.05,2.05,0,0,0,371.413,152.808ZM372.643,279.7a1.231,1.231,0,0,1-1.229,1.229H129.655a1.231,1.231,0,0,1-1.229-1.229V154.857a1.231,1.231,0,0,1,1.229-1.229H371.413a1.231,1.231,0,0,1,1.229,1.229Z" transform="translate(-122.797 -152.808)" fill="#e6e6e6"/>
      <path id="Path_40" data-name="Path 40" d="M314.529,298.378a.99.99,0,1,0,0,1.98h46.679a.99.99,0,1,0,.033-1.98H314.529Z" transform="translate(-257.937 -258.612)" fill="#6d5a7a"/>
      <path id="Path_40-2" data-name="Path 40" d="M314.529,265.378a.99.99,0,1,0,0,1.98h13.352a.99.99,0,0,0,.032-1.98H314.529Z" transform="translate(-257.937 -234.627)" fill="#b46576"/>
      <path id="Path_40-3" data-name="Path 40" d="M314.529,332.378a.99.99,0,1,0,0,1.98h46.679a.99.99,0,1,0,.033-1.98H314.529Z" transform="translate(-257.937 -283.324)" fill="#6d5a7a"/>
      <path id="Path_40-4" data-name="Path 40" d="M708.172,298.378a.99.99,0,1,1,0,1.98H661.493a.99.99,0,0,1-.033-1.98h46.712Z" transform="translate(-510.108 -258.612)" fill="#b46576"/>
      <path id="Path_40-5" data-name="Path 40" d="M796.845,265.378a.99.99,0,0,1,0,1.98H783.493a.99.99,0,0,1-.032-1.98h13.385Z" transform="translate(-598.781 -234.627)" fill="#6d5a7a"/>
      <path id="Path_40-6" data-name="Path 40" d="M708.172,332.378a.99.99,0,1,1,0,1.98H661.493a.99.99,0,0,1-.033-1.98h46.712Z" transform="translate(-510.108 -283.324)" fill="#b46576"/>
      <path id="Path_78" data-name="Path 78" d="M369.718,426.665H305.567c-1.251,0-2.264-.722-2.265-1.612V411.11c0-.89,1.015-1.612,2.265-1.612h64.151c1.251,0,2.264.722,2.265,1.612v13.943C371.983,425.943,370.969,426.664,369.718,426.665Z" transform="translate(-250.497 -339.377)" fill="#e6e6e6"/>
      <path id="Path_402" data-name="Path 402" d="M209.822,317.453a11.7,11.7,0,0,1-1.21,5.2c-.09.186-.186.366-.287.546H187.791c-.1-.18-.2-.361-.287-.546a11.766,11.766,0,1,1,22.318-5.2Z" transform="translate(-165.45 -263.922)" fill="#2f2e41"/>
      <circle id="Ellipse_257" data-name="Ellipse 257" cx="4.021" cy="4.021" r="4.021" transform="translate(28.886 46.53)" fill="#fff"/>
      <circle id="Ellipse_258" data-name="Ellipse 258" cx="1.34" cy="1.34" r="1.34" transform="translate(31.566 49.211)" fill="#3f3d56"/>
      <path id="Path_403" data-name="Path 403" d="M187.13,282.546c-.95-4.254,2.087-8.553,6.783-9.6s9.273,1.55,10.223,5.8-2.162,5.823-6.858,6.872S188.08,286.8,187.13,282.546Z" transform="translate(-165.934 -239.958)" fill="#b46576"/>
      <path id="Path_404" data-name="Path 404" d="M192.846,235.808H158.972a1.366,1.366,0,0,0-1.366,1.366v33.873a1.366,1.366,0,0,0,1.366,1.366h33.874a1.366,1.366,0,0,0,1.366-1.366V237.174A1.366,1.366,0,0,0,192.846,235.808Zm.82,35.239a.822.822,0,0,1-.82.819H158.972a.822.822,0,0,1-.82-.819V237.174a.822.822,0,0,1,.82-.82h33.874a.822.822,0,0,1,.82.82Z" transform="translate(-144.601 -213.134)" fill="#3f3d56"/>
      <path id="Path_405" data-name="Path 405" d="M899.845,235.808H865.972a1.366,1.366,0,0,0-1.366,1.366v33.873a1.366,1.366,0,0,0,1.366,1.366h33.873a1.367,1.367,0,0,0,1.366-1.366V237.174A1.367,1.367,0,0,0,899.845,235.808Zm.82,35.239a.822.822,0,0,1-.82.819H865.972a.822.822,0,0,1-.819-.819V237.174a.822.822,0,0,1,.82-.82h33.873a.822.822,0,0,1,.82.82Z" transform="translate(-658.468 -213.134)" fill="#3f3d56"/>
      <rect id="Rectangle_93" data-name="Rectangle 93" width="245.036" height="0.546" transform="translate(5.629 10.471)" fill="#e6e6e6"/>
      <circle id="Ellipse_259" data-name="Ellipse 259" cx="2.459" cy="2.459" r="2.459" transform="translate(9.18 3.551)" fill="#6d5a7a"/>
      <circle id="Ellipse_260" data-name="Ellipse 260" cx="2.459" cy="2.459" r="2.459" transform="translate(17.102 3.551)" fill="#6d5a7a"/>
      <circle id="Ellipse_261" data-name="Ellipse 261" cx="2.459" cy="2.459" r="2.459" transform="translate(25.024 3.551)" fill="#6d5a7a"/>
      <ellipse id="Ellipse_262" data-name="Ellipse 262" cx="1.801" cy="5.738" rx="1.801" ry="5.738" transform="translate(38.673 57.84) rotate(-50.959)" fill="#2f2e41"/>
      <ellipse id="Ellipse_263" data-name="Ellipse 263" cx="1.801" cy="5.738" rx="1.801" ry="5.738" transform="translate(14.361 47.732) rotate(-50.959)" fill="#2f2e41"/>
      <path id="Path_78-2" data-name="Path 78" d="M334.876,394.783H270.724c-1.251,0-2.264-.722-2.265-1.612V379.228c0-.89,1.015-1.612,2.265-1.612h64.151c1.251,0,2.264.722,2.265,1.612v13.943C337.14,394.061,336.127,394.782,334.876,394.783Zm-64.151-16.523c-.75,0-1.359.433-1.359.967v13.943c0,.534.609.966,1.359.967h64.151c.75,0,1.358-.433,1.359-.967V379.228c0-.534-.609-.966-1.359-.967Z" transform="translate(-225.172 -316.205)" fill="#3f3d56"/>
      <circle id="Ellipse_264" data-name="Ellipse 264" cx="5.19" cy="5.19" r="5.19" transform="translate(49.751 64.693)" fill="#b46576"/>
      <path id="Path_40-7" data-name="Path 40" d="M349.529,395a.99.99,0,1,0,0,1.98h37.118a.99.99,0,0,0,.032-1.98H349.529Z" transform="translate(-283.376 -328.842)" fill="#3f3d56"/>
      <path id="Path_40-8" data-name="Path 40" d="M349.529,415a.99.99,0,1,0,0,1.98h37.118a.99.99,0,1,0,.032-1.98H349.529Z" transform="translate(-283.376 -343.378)" fill="#3f3d56"/>
      <path id="Path_406" data-name="Path 406" d="M603.229,388.192A1.231,1.231,0,0,0,602,389.422V415.1a1.231,1.231,0,0,0,1.229,1.229h99.708a1.231,1.231,0,0,0,1.229-1.229V389.422a1.231,1.231,0,0,0-1.229-1.229Z" transform="translate(-467.599 -323.891)" fill="#6d5a7a"/>
      <rect id="Rectangle_95" data-name="Rectangle 95" width="103" height="66" rx="2" transform="translate(133.91 95.579)" fill="#fff"/>
      <path id="Path_40-9" data-name="Path 40" d="M720.384,595.224a1.624,1.624,0,1,0,0,3.249h7.126a1.624,1.624,0,0,0,.053-3.249h-7.179Z" transform="translate(-552.462 -474.367)" fill="#b46576"/>
      <path id="Path_409" data-name="Path 409" d="M735.189,599.508H705.277v.546h29.912a5.553,5.553,0,0,1,0,11.105H689.927a5.553,5.553,0,1,1,0-11.105h1.692v-.546h-1.692a6.1,6.1,0,0,0,0,12.2h45.262a6.1,6.1,0,0,0,0-12.2Z" transform="translate(-527.073 -477.481)" fill="#6d5a7a"/>
      <path id="Path_410" data-name="Path 410" d="M735.189,668.508H705.277v.546h29.912a5.553,5.553,0,0,1,0,11.105H689.927a5.553,5.553,0,1,1,0-11.105h1.692v-.546h-1.692a6.1,6.1,0,0,0,0,12.2h45.262a6.1,6.1,0,0,0,0-12.2Z" transform="translate(-527.073 -527.632)" fill="#6d5a7a"/>
      <path id="Path_411" data-name="Path 411" d="M643.028,422.244a6.528,6.528,0,1,1-1.912-4.644A6.556,6.556,0,0,1,643.028,422.244Z" transform="translate(-487.889 -343.876)" fill="#fff"/>
      <path id="Path_40-10" data-name="Path 40" d="M720.384,663.224a1.624,1.624,0,1,0,0,3.249h7.126a1.625,1.625,0,0,0,.053-3.249h-7.179Z" transform="translate(-552.462 -523.791)" fill="#b46576"/>
      <path id="Path_40-11" data-name="Path 40" d="M710.037,615.888a1.624,1.624,0,1,0,0,3.249h40.726a1.625,1.625,0,0,0,.053-3.249h-40.78Z" transform="translate(-544.942 -489.387)" fill="#6d5a7a"/>
      <path id="Path_40-12" data-name="Path 40" d="M710.037,684.888a1.624,1.624,0,1,0,0,3.249h40.726a1.624,1.624,0,0,0,.053-3.249h-40.78Z" transform="translate(-544.942 -539.538)" fill="#6d5a7a"/>
      <path id="Path_40-13" data-name="Path 40" d="M692.635,420.746a1.624,1.624,0,1,0,0,3.249h40.726a1.625,1.625,0,1,0,.053-3.249h-40.78Z" transform="translate(-532.294 -347.552)" fill="#fff"/>
      <path id="Path_40-14" data-name="Path 40" d="M692.635,446.746a1.624,1.624,0,1,0,0,3.249h66.951a1.625,1.625,0,1,0,.053-3.249h-67Z" transform="translate(-532.294 -366.449)" fill="#fff"/>
      <path id="Path_412" data-name="Path 412" d="M1021.7,440.029a65.394,65.394,0,0,1-3.054,18.065c-.041.134-.088.268-.131.4h-11.391c.011-.12.025-.257.036-.4,0-.046.008-.093.011-.142h3.5a1.231,1.231,0,0,0,1.229-1.229V396.368c.268.585.544,1.191.819,1.822C1017.062,408.051,1022.23,423.447,1021.7,440.029Z" transform="translate(-762.055 -329.834)" fill="#ecd8dc"/>
      <path id="Path_413" data-name="Path 413" d="M1033.828,519.754c-.1.136-.194.271-.3.405h-8.546c.065-.115.14-.251.227-.405,1.412-2.548,5.591-10.167,9.47-18.065,4.169-8.488,7.993-17.3,7.671-20.486C1042.453,481.923,1045.338,503.844,1033.828,519.754Z" transform="translate(-775.036 -391.495)" fill="#ecd8dc"/>
      <path id="Path_414" data-name="Path 414" d="M124.932,519.037a33.17,33.17,0,0,0,1.549,9.169c.022.069.044.137.067.206h5.783c-.006-.062-.012-.131-.019-.206-.386-4.432-2.609-31.41.049-36.024C132.129,492.557,124.483,504.953,124.932,519.037Z" transform="translate(-120.839 -399.475)" fill="#ecd8dc"/>
      <path id="Path_415" data-name="Path 415" d="M114.527,571.992c.048.069.1.138.15.206h4.338l-.115-.206c-.717-1.293-2.838-5.16-4.807-9.169-2.116-4.308-4.057-8.78-3.894-10.4C110.149,552.789,108.684,563.916,114.527,571.992Z" transform="translate(-110 -443.259)" fill="#ecd8dc"/>
      <ellipse id="Ellipse_265" data-name="Ellipse 265" cx="5.738" cy="1.801" rx="5.738" ry="1.801" transform="translate(231.286 42.695) rotate(-14.482)" fill="#2f2e41"/>
      <ellipse id="Ellipse_266" data-name="Ellipse 266" cx="5.738" cy="1.801" rx="5.738" ry="1.801" transform="matrix(0.384, -0.923, 0.923, 0.384, 209.387, 48.705)" fill="#2f2e41"/>
      <circle id="Ellipse_267" data-name="Ellipse 267" cx="11.477" cy="11.477" r="11.477" transform="translate(214.31 29.907)" fill="#2f2e41"/>
      <path id="Path_416" data-name="Path 416" d="M916.4,343.547l-3.487.016c-2.552-2.512-2.174-4.529-.029-6.247l3.487-.016C914.765,339.279,914.336,341.333,916.4,343.547Z" transform="translate(-692.287 -286.902)" fill="#2f2e41"/>
      <ellipse id="Ellipse_268" data-name="Ellipse 268" cx="2.905" cy="1.09" rx="2.905" ry="1.09" transform="translate(218.588 57.834) rotate(-30.266)" fill="#2f2e41"/>
      <path id="Path_417" data-name="Path 417" d="M939.4,343.547l-3.487.016c-2.552-2.512-2.174-4.529-.029-6.247l3.486-.016C937.765,339.279,937.336,341.333,939.4,343.547Z" transform="translate(-709.004 -286.902)" fill="#2f2e41"/>
      <ellipse id="Ellipse_269" data-name="Ellipse 269" cx="2.905" cy="1.09" rx="2.905" ry="1.09" transform="translate(224.871 57.834) rotate(-30.266)" fill="#2f2e41"/>
      <circle id="Ellipse_270" data-name="Ellipse 270" cx="3.922" cy="3.922" r="3.922" transform="translate(221.56 34.557)" fill="#fff"/>
      <circle id="Ellipse_271" data-name="Ellipse 271" cx="1.307" cy="1.307" r="1.307" transform="translate(224.197 39.059)" fill="#3f3d56"/>
      <path id="Path_418" data-name="Path 418" d="M932.495,239.622c.907-4.154-2.074-8.334-6.66-9.336s-9.038,1.554-9.946,5.709,2.136,5.671,6.721,6.672S931.587,243.777,932.495,239.622Z" transform="translate(-695.625 -208.964)" fill="#b46576"/>
      <path id="Path_419" data-name="Path 419" d="M931.107,318a2.615,2.615,0,0,1-5.23.029v-.005c-.007-1.444,1.163-1.749,2.607-1.755S931.1,316.556,931.107,318Z" transform="translate(-703.001 -271.616)" fill="#fff"/>
      <path id="Path_420" data-name="Path 420" d="M647.006,445.078v.014a6.55,6.55,0,0,1-8.862.235c-.005-.082-.008-.167-.008-.249a4.435,4.435,0,0,1,8.87,0Z" transform="translate(-493.863 -362.014)" fill="#2f2e41"/>
      <circle id="Ellipse_272" data-name="Ellipse 272" cx="1.516" cy="1.516" r="1.516" transform="translate(147.303 80.423)" fill="#fff"/>
      <circle id="Ellipse_273" data-name="Ellipse 273" cx="0.505" cy="0.505" r="0.505" transform="translate(148.314 81.434)" fill="#3f3d56"/>
      <path id="Path_421" data-name="Path 421" d="M638.443,431.906a3.3,3.3,0,0,1,6.412-1.432c.358,1.6-.815,2.2-2.586,2.591S638.8,433.51,638.443,431.906Z" transform="translate(-494.039 -352.969)" fill="#b46576"/>
      <path id="Path_422" data-name="Path 422" d="M783.205,343.383a6.814,6.814,0,0,1,3.217-7.171,4.023,4.023,0,0,1,3.713-.407,1.5,1.5,0,0,1,.933,1.1,1.251,1.251,0,0,1-.78,1.264,1.711,1.711,0,0,1-1.591,0,2,2,0,0,1-.881-1.589,3.3,3.3,0,0,1,2.472-3.208c1.777-.629,3.693-.335,5.534-.292a24.551,24.551,0,0,0,5.256-.456,25,25,0,0,0,10.558-4.82c.416-.324-.168-.9-.58-.58a24.175,24.175,0,0,1-10.649,4.693,27.022,27.022,0,0,1-6.021.283c-1.921-.093-4.005-.1-5.654,1.048a3.7,3.7,0,0,0-1.56,4.221,2.559,2.559,0,0,0,1.485,1.581,2.621,2.621,0,0,0,2.008-.155,2.024,2.024,0,0,0,.564-3.329,4.105,4.105,0,0,0-4.076-.589,7.665,7.665,0,0,0-4.909,7.461,7.109,7.109,0,0,0,.169,1.166C782.533,344.115,783.323,343.9,783.205,343.383Z" transform="translate(-598.598 -279.508)" fill="#3f3d56"/>
      <path id="Path_408" data-name="Path 408" d="M735.189,530.508H705.277v.546h29.912a5.553,5.553,0,0,1,0,11.105H689.927a5.553,5.553,0,1,1,0-11.105h1.692v-.546h-1.692a6.1,6.1,0,1,0,0,12.2h45.262a6.1,6.1,0,1,0,0-12.2Z" transform="translate(-527.073 -427.33)" fill="#6d5a7a"/>
      <path id="Path_40-15" data-name="Path 40" d="M720.384,525.224a1.624,1.624,0,1,0,0,3.249h7.126a1.625,1.625,0,0,0,.053-3.249h-7.179Z" transform="translate(-552.462 -423.489)" fill="#b46576"/>
      <path id="Path_40-16" data-name="Path 40" d="M710.037,546.888a1.624,1.624,0,1,0,0,3.249h40.726a1.625,1.625,0,0,0,.053-3.249h-40.78Z" transform="translate(-544.942 -439.236)" fill="#6d5a7a"/>
      <path id="Path_407" data-name="Path 407" d="M700.757,484.808H601.049A2.051,2.051,0,0,1,599,482.759V388.241a2.051,2.051,0,0,1,2.049-2.049h99.708a2.051,2.051,0,0,1,2.049,2.049v94.518A2.051,2.051,0,0,1,700.757,484.808Zm-99.708-97.8a1.231,1.231,0,0,0-1.229,1.229v94.518a1.231,1.231,0,0,0,1.229,1.229h99.708a1.231,1.231,0,0,0,1.229-1.229V388.241a1.231,1.231,0,0,0-1.229-1.229Z" transform="translate(-465.418 -322.438)" fill="#3f3d56"/>
    </g>
  </g>
</svg>
